%TF.GenerationSoftware,KiCad,Pcbnew,8.0.5*%
%TF.CreationDate,2024-09-26T19:22:18+05:30*%
%TF.ProjectId,AirOwl_v1,4169724f-776c-45f7-9631-2e6b69636164,rev?*%
%TF.SameCoordinates,Original*%
%TF.FileFunction,Profile,NP*%
%FSLAX46Y46*%
G04 Gerber Fmt 4.6, Leading zero omitted, Abs format (unit mm)*
G04 Created by KiCad (PCBNEW 8.0.5) date 2024-09-26 19:22:18*
%MOMM*%
%LPD*%
G01*
G04 APERTURE LIST*
%TA.AperFunction,Profile*%
%ADD10C,0.250000*%
%TD*%
%TA.AperFunction,Profile*%
%ADD11C,0.200000*%
%TD*%
G04 APERTURE END LIST*
D10*
X108922972Y-145869594D02*
X66000000Y-145869594D01*
X63200000Y-143069594D02*
X63200000Y-39069594D01*
X66000000Y-145869594D02*
G75*
G02*
X63200006Y-143069594I0J2799994D01*
G01*
X110500000Y-146027632D02*
G75*
G02*
X108922972Y-145869594I-500000J2958032D01*
G01*
X102250000Y-104136861D02*
X102250000Y-96836861D01*
X110500000Y-108900000D02*
X102250000Y-104136861D01*
X82500000Y-128150000D02*
X82500000Y-114400000D01*
X93500000Y-143069594D02*
X93500000Y-135569594D01*
X110500000Y-143069594D02*
X93500000Y-143069594D01*
X63200000Y-39069594D02*
G75*
G02*
X66000000Y-36269600I2800000J-6D01*
G01*
X110500000Y-146027632D02*
X110500000Y-143069594D01*
X82500000Y-114400000D02*
X110500000Y-114400000D01*
X66000000Y-36269594D02*
X110000000Y-36269594D01*
X102250000Y-96836861D02*
X109934868Y-92400000D01*
X93500000Y-135569594D02*
X82500000Y-128150000D01*
X110500000Y-108900000D02*
X110500000Y-114400000D01*
X109934868Y-92400000D02*
X112800000Y-92400000D01*
X110000000Y-36269594D02*
G75*
G02*
X112800006Y-39069594I0J-2800006D01*
G01*
X112800000Y-39069594D02*
X112800000Y-92400000D01*
D11*
%TO.C,U1*%
X67650000Y-39069600D02*
G75*
G02*
X64350000Y-39069600I-1650000J0D01*
G01*
X64350000Y-39069600D02*
G75*
G02*
X67650000Y-39069600I1650000J0D01*
G01*
X67650015Y-83069629D02*
G75*
G02*
X64350015Y-83069629I-1650000J0D01*
G01*
X64350015Y-83069629D02*
G75*
G02*
X67650015Y-83069629I1650000J0D01*
G01*
X111650029Y-39069600D02*
G75*
G02*
X108350029Y-39069600I-1650000J0D01*
G01*
X108350029Y-39069600D02*
G75*
G02*
X111650029Y-39069600I1650000J0D01*
G01*
X111650029Y-83069629D02*
G75*
G02*
X108350029Y-83069629I-1650000J0D01*
G01*
X108350029Y-83069629D02*
G75*
G02*
X111650029Y-83069629I1650000J0D01*
G01*
%TD*%
M02*
