%TF.GenerationSoftware,KiCad,Pcbnew,8.0.5*%
%TF.CreationDate,2024-09-26T19:22:18+05:30*%
%TF.ProjectId,AirOwl_v1,4169724f-776c-45f7-9631-2e6b69636164,rev?*%
%TF.SameCoordinates,Original*%
%TF.FileFunction,Copper,L1,Top*%
%TF.FilePolarity,Positive*%
%FSLAX46Y46*%
G04 Gerber Fmt 4.6, Leading zero omitted, Abs format (unit mm)*
G04 Created by KiCad (PCBNEW 8.0.5) date 2024-09-26 19:22:18*
%MOMM*%
%LPD*%
G01*
G04 APERTURE LIST*
G04 Aperture macros list*
%AMRoundRect*
0 Rectangle with rounded corners*
0 $1 Rounding radius*
0 $2 $3 $4 $5 $6 $7 $8 $9 X,Y pos of 4 corners*
0 Add a 4 corners polygon primitive as box body*
4,1,4,$2,$3,$4,$5,$6,$7,$8,$9,$2,$3,0*
0 Add four circle primitives for the rounded corners*
1,1,$1+$1,$2,$3*
1,1,$1+$1,$4,$5*
1,1,$1+$1,$6,$7*
1,1,$1+$1,$8,$9*
0 Add four rect primitives between the rounded corners*
20,1,$1+$1,$2,$3,$4,$5,0*
20,1,$1+$1,$4,$5,$6,$7,0*
20,1,$1+$1,$6,$7,$8,$9,0*
20,1,$1+$1,$8,$9,$2,$3,0*%
G04 Aperture macros list end*
%TA.AperFunction,SMDPad,CuDef*%
%ADD10RoundRect,0.250000X0.350000X0.450000X-0.350000X0.450000X-0.350000X-0.450000X0.350000X-0.450000X0*%
%TD*%
%TA.AperFunction,ComponentPad*%
%ADD11R,1.700000X1.700000*%
%TD*%
%TA.AperFunction,ComponentPad*%
%ADD12O,1.700000X1.700000*%
%TD*%
%TA.AperFunction,ComponentPad*%
%ADD13O,1.000000X1.700000*%
%TD*%
%TA.AperFunction,ComponentPad*%
%ADD14O,0.750000X0.750000*%
%TD*%
%TA.AperFunction,ComponentPad*%
%ADD15O,1.500000X2.800000*%
%TD*%
%TA.AperFunction,ComponentPad*%
%ADD16C,1.800000*%
%TD*%
%TA.AperFunction,ComponentPad*%
%ADD17RoundRect,0.250000X-0.625000X0.350000X-0.625000X-0.350000X0.625000X-0.350000X0.625000X0.350000X0*%
%TD*%
%TA.AperFunction,ComponentPad*%
%ADD18O,1.750000X1.200000*%
%TD*%
%TA.AperFunction,ViaPad*%
%ADD19C,0.600000*%
%TD*%
%TA.AperFunction,Conductor*%
%ADD20C,0.300000*%
%TD*%
%TA.AperFunction,Conductor*%
%ADD21C,0.500000*%
%TD*%
G04 APERTURE END LIST*
D10*
%TO.P,R2,1*%
%TO.N,+3.3V*%
X66600000Y-117400000D03*
%TO.P,R2,2*%
%TO.N,SCL*%
X64600000Y-117400000D03*
%TD*%
%TO.P,R1,1*%
%TO.N,+3.3V*%
X66600000Y-119700000D03*
%TO.P,R1,2*%
%TO.N,SDA*%
X64600000Y-119700000D03*
%TD*%
D11*
%TO.P,J2,1,Pin_1*%
%TO.N,+5V*%
X65600000Y-123900000D03*
D12*
%TO.P,J2,2,Pin_2*%
%TO.N,GND*%
X65600000Y-126440000D03*
%TO.P,J2,3,Pin_3*%
%TO.N,SDA*%
X65600000Y-128980000D03*
%TO.P,J2,4,Pin_4*%
%TO.N,SCL*%
X65600000Y-131520000D03*
%TO.P,J2,5,Pin_5*%
%TO.N,SEL*%
X65600000Y-134060000D03*
%TO.P,J2,6,Pin_6*%
%TO.N,unconnected-(J2-Pin_6-Pad6)*%
X65600000Y-136600000D03*
%TD*%
D13*
%TO.P,J4,SH1*%
%TO.N,N/C*%
X83680000Y-98630000D03*
%TO.P,J4,SH2*%
X92320000Y-98630000D03*
%TD*%
D14*
%TO.P,J1,A5,CC1*%
%TO.N,unconnected-(J1-CC1-PadA5)*%
X88600000Y-93750000D03*
%TO.P,J1,A9,VBUS*%
%TO.N,Net-(D2-A)*%
X86200000Y-93750000D03*
%TO.P,J1,A12,GND*%
%TO.N,GND*%
X85000000Y-93750000D03*
%TO.P,J1,B5,CC2*%
%TO.N,unconnected-(J1-CC2-PadB5)*%
X87400000Y-93750000D03*
%TO.P,J1,B9,VBUS*%
%TO.N,Net-(D2-A)*%
X89800000Y-93750000D03*
%TO.P,J1,B12,GND*%
%TO.N,GND*%
X91000000Y-93750000D03*
D15*
%TO.P,J1,S1,SHIELD*%
%TO.N,unconnected-(J1-SHIELD-PadS1)*%
X92330000Y-93520000D03*
%TO.P,J1,S2*%
%TO.N,N/C*%
X83670000Y-93520000D03*
%TD*%
D16*
%TO.P,U1,1,GND*%
%TO.N,GND*%
X67680014Y-78849581D03*
%TO.P,U1,2,GND*%
X67680014Y-76309581D03*
%TO.P,U1,3,GND*%
X67680014Y-73769581D03*
%TO.P,U1,4,G37-MOSI*%
%TO.N,unconnected-(U1-G37-MOSI-Pad4)*%
X67680014Y-71229581D03*
%TO.P,U1,5,G37-MISO*%
%TO.N,unconnected-(U1-G37-MISO-Pad5)*%
X67680014Y-68689581D03*
%TO.P,U1,6,G36-SCK*%
%TO.N,unconnected-(U1-G36-SCK-Pad6)*%
X67680014Y-66149581D03*
%TO.P,U1,7,G44-RXD0*%
%TO.N,unconnected-(U1-G44-RXD0-Pad7)*%
X67680014Y-63609581D03*
%TO.P,U1,8,G18-PC_RX*%
%TO.N,unconnected-(U1-G18-PC_RX-Pad8)*%
X67680014Y-61069581D03*
%TO.P,U1,9,G12-intSDA*%
%TO.N,unconnected-(U1-G12-intSDA-Pad9)*%
X67680014Y-58529581D03*
%TO.P,U1,10,G2-PA_SDA*%
%TO.N,SDA*%
X67680014Y-55989581D03*
%TO.P,U1,11,G6*%
%TO.N,unconnected-(U1-G6-Pad11)*%
X67680014Y-53449581D03*
%TO.P,U1,12,G13-I2S_DOUT*%
%TO.N,unconnected-(U1-G13-I2S_DOUT-Pad12)*%
X67680014Y-50909581D03*
%TO.P,U1,13,NC*%
%TO.N,unconnected-(U1-NC-Pad13)*%
X67680014Y-48369581D03*
%TO.P,U1,14,NC*%
%TO.N,unconnected-(U1-NC-Pad14)*%
X67680014Y-45829581D03*
%TO.P,U1,15,NC*%
%TO.N,unconnected-(U1-NC-Pad15)*%
X67680014Y-43289581D03*
%TO.P,U1,16,G10-ADC*%
%TO.N,unconnected-(U1-G10-ADC-Pad16)*%
X70220014Y-78849581D03*
%TO.P,U1,17,G8-PB_IN*%
%TO.N,unconnected-(U1-G8-PB_IN-Pad17)*%
X70220014Y-76309581D03*
%TO.P,U1,18,RST/EN*%
%TO.N,unconnected-(U1-RST{slash}EN-Pad18)*%
X70220014Y-73769581D03*
%TO.P,U1,19,G5-GPIO*%
%TO.N,unconnected-(U1-G5-GPIO-Pad19)*%
X70220014Y-71229581D03*
%TO.P,U1,20,G9-PB_OUT*%
%TO.N,unconnected-(U1-G9-PB_OUT-Pad20)*%
X70220014Y-68689581D03*
%TO.P,U1,21,+3.3V*%
%TO.N,+3.3V*%
X70220014Y-66149581D03*
%TO.P,U1,22,G43-TXD0*%
%TO.N,unconnected-(U1-G43-TXD0-Pad22)*%
X70220014Y-63609581D03*
%TO.P,U1,23,G17-PC_TX*%
%TO.N,unconnected-(U1-G17-PC_TX-Pad23)*%
X70220014Y-61069581D03*
%TO.P,U1,24,G11-intSCL*%
%TO.N,unconnected-(U1-G11-intSCL-Pad24)*%
X70220014Y-58529581D03*
%TO.P,U1,25,G1-PA_SCL*%
%TO.N,SCL*%
X70220014Y-55989581D03*
%TO.P,U1,26,G7-GPIO*%
%TO.N,unconnected-(U1-G7-GPIO-Pad26)*%
X70220014Y-53449581D03*
%TO.P,U1,27,G0-I2S_LRCLK*%
%TO.N,unconnected-(U1-G0-I2S_LRCLK-Pad27)*%
X70220014Y-50909581D03*
%TO.P,U1,28,G14-I2S_DIN*%
%TO.N,unconnected-(U1-G14-I2S_DIN-Pad28)*%
X70220014Y-48369581D03*
%TO.P,U1,29,5V*%
%TO.N,+5V*%
X70220014Y-45829581D03*
%TO.P,U1,30,BAT*%
%TO.N,+BATT*%
X70220014Y-43289581D03*
%TD*%
D17*
%TO.P,J3,1,Pin_1*%
%TO.N,+BATT*%
X65700000Y-109900000D03*
D18*
%TO.P,J3,2,Pin_2*%
%TO.N,GND*%
X65700000Y-111900000D03*
%TD*%
D19*
%TO.N,GND*%
X68200000Y-112400000D03*
X66400000Y-104000000D03*
X68900000Y-121900000D03*
%TO.N,SCL*%
X64500000Y-115500000D03*
%TO.N,+BATT*%
X77000000Y-44000000D03*
X77000000Y-49000000D03*
%TD*%
D20*
%TO.N,SDA*%
X68930014Y-57239581D02*
X67680014Y-55989581D01*
X72689581Y-57239581D02*
X68930014Y-57239581D01*
X70800000Y-88900000D02*
X74200000Y-85500000D01*
X74200000Y-85500000D02*
X74200000Y-58750000D01*
X74200000Y-58750000D02*
X72689581Y-57239581D01*
X70020000Y-128980000D02*
X70800000Y-128200000D01*
X65600000Y-128980000D02*
X70020000Y-128980000D01*
X70800000Y-128200000D02*
X70800000Y-88900000D01*
%TO.N,SCL*%
X75200000Y-57600000D02*
X73589581Y-55989581D01*
X73589581Y-55989581D02*
X70220014Y-55989581D01*
X75200000Y-61300000D02*
X75200000Y-57600000D01*
X72000000Y-89100000D02*
X75200000Y-85900000D01*
X70480000Y-131520000D02*
X72000000Y-130000000D01*
X65600000Y-131520000D02*
X70480000Y-131520000D01*
X72000000Y-130000000D02*
X72000000Y-89100000D01*
X75200000Y-85900000D02*
X75200000Y-61300000D01*
X64500000Y-117300000D02*
X64600000Y-117400000D01*
X64500000Y-115500000D02*
X64500000Y-117300000D01*
%TO.N,SDA*%
X63900000Y-120400000D02*
X64600000Y-119700000D01*
X64380000Y-128980000D02*
X63900000Y-128500000D01*
X63900000Y-128500000D02*
X63900000Y-120400000D01*
X65600000Y-128980000D02*
X64380000Y-128980000D01*
D21*
%TO.N,+BATT*%
X77000000Y-49000000D02*
X77000000Y-44000000D01*
%TO.N,+3.3V*%
X73300000Y-67100000D02*
X72349581Y-66149581D01*
X66600000Y-117400000D02*
X66600000Y-116600000D01*
X66600000Y-119700000D02*
X66600000Y-117400000D01*
X69600000Y-88700000D02*
X73300000Y-85000000D01*
X66600000Y-116600000D02*
X69600000Y-113600000D01*
X72349581Y-66149581D02*
X70220014Y-66149581D01*
X69600000Y-113600000D02*
X69600000Y-88700000D01*
X73300000Y-85000000D02*
X73300000Y-67100000D01*
%TD*%
%TA.AperFunction,Conductor*%
%TO.N,GND*%
G36*
X106246270Y-36789779D02*
G01*
X106292025Y-36842583D01*
X106301969Y-36911741D01*
X106286618Y-36956094D01*
X106228991Y-37055906D01*
X106228989Y-37055910D01*
X106061275Y-37423152D01*
X106061262Y-37423185D01*
X105929219Y-37804697D01*
X105929216Y-37804708D01*
X105834029Y-38197073D01*
X105776570Y-38596706D01*
X105757359Y-39000000D01*
X105776570Y-39403293D01*
X105834029Y-39802926D01*
X105929216Y-40195291D01*
X105929219Y-40195302D01*
X106061262Y-40576814D01*
X106061275Y-40576847D01*
X106228989Y-40944089D01*
X106228991Y-40944093D01*
X106430866Y-41293750D01*
X106430872Y-41293759D01*
X106665058Y-41622626D01*
X106665059Y-41622627D01*
X106929456Y-41927758D01*
X107221661Y-42206374D01*
X107539027Y-42455953D01*
X107878680Y-42674235D01*
X108237543Y-42859242D01*
X108612368Y-43009299D01*
X108999759Y-43123048D01*
X109396209Y-43199457D01*
X109798127Y-43237836D01*
X109798133Y-43237836D01*
X110201867Y-43237836D01*
X110201873Y-43237836D01*
X110603791Y-43199457D01*
X111000241Y-43123048D01*
X111387632Y-43009299D01*
X111762457Y-42859242D01*
X112118681Y-42675595D01*
X112187287Y-42662373D01*
X112252152Y-42688341D01*
X112292680Y-42745256D01*
X112299500Y-42785812D01*
X112299500Y-79453965D01*
X112279815Y-79521004D01*
X112227011Y-79566759D01*
X112157853Y-79576703D01*
X112108462Y-79558281D01*
X112050537Y-79521055D01*
X111691673Y-79336048D01*
X111691667Y-79336045D01*
X111691664Y-79336044D01*
X111316852Y-79185992D01*
X110929462Y-79072243D01*
X110929445Y-79072239D01*
X110533022Y-78995835D01*
X110533010Y-78995833D01*
X110399034Y-78983040D01*
X110131089Y-78957454D01*
X109727343Y-78957454D01*
X109486192Y-78980481D01*
X109325421Y-78995833D01*
X109325409Y-78995835D01*
X108928986Y-79072239D01*
X108928969Y-79072243D01*
X108541579Y-79185992D01*
X108166767Y-79336044D01*
X108166763Y-79336046D01*
X107807899Y-79521053D01*
X107468254Y-79739329D01*
X107468247Y-79739334D01*
X107468243Y-79739337D01*
X107284932Y-79883494D01*
X107150878Y-79988915D01*
X107150876Y-79988916D01*
X106858675Y-80267529D01*
X106858673Y-80267531D01*
X106594274Y-80572663D01*
X106360088Y-80901530D01*
X106360082Y-80901539D01*
X106158207Y-81251196D01*
X106158205Y-81251200D01*
X105990491Y-81618442D01*
X105990478Y-81618475D01*
X105858435Y-81999987D01*
X105858432Y-81999998D01*
X105763245Y-82392363D01*
X105705786Y-82791996D01*
X105686575Y-83195290D01*
X105705786Y-83598583D01*
X105763245Y-83998216D01*
X105858432Y-84390581D01*
X105858435Y-84390592D01*
X105990478Y-84772104D01*
X105990491Y-84772137D01*
X106158205Y-85139379D01*
X106158207Y-85139383D01*
X106360082Y-85489040D01*
X106360088Y-85489049D01*
X106594274Y-85817916D01*
X106594275Y-85817917D01*
X106858672Y-86123048D01*
X107150877Y-86401664D01*
X107468243Y-86651243D01*
X107807896Y-86869525D01*
X108166759Y-87054532D01*
X108541584Y-87204589D01*
X108928975Y-87318338D01*
X109325425Y-87394747D01*
X109727343Y-87433126D01*
X109727349Y-87433126D01*
X110131083Y-87433126D01*
X110131089Y-87433126D01*
X110533007Y-87394747D01*
X110929457Y-87318338D01*
X111316848Y-87204589D01*
X111691673Y-87054532D01*
X112050537Y-86869525D01*
X112108460Y-86832300D01*
X112175499Y-86812615D01*
X112242539Y-86832299D01*
X112288294Y-86885103D01*
X112299500Y-86936615D01*
X112299500Y-91775500D01*
X112279815Y-91842539D01*
X112227011Y-91888294D01*
X112175500Y-91899500D01*
X109868976Y-91899500D01*
X109741682Y-91933608D01*
X109741679Y-91933609D01*
X105036709Y-94650025D01*
X102056814Y-96370468D01*
X102028040Y-96387081D01*
X102028039Y-96387082D01*
X101942689Y-96436359D01*
X101942683Y-96436363D01*
X101849502Y-96529544D01*
X101849500Y-96529547D01*
X101783608Y-96643673D01*
X101749500Y-96770969D01*
X101749500Y-104202752D01*
X101783608Y-104330048D01*
X101816554Y-104387111D01*
X101849500Y-104444175D01*
X101942686Y-104537361D01*
X109937500Y-109153168D01*
X109985716Y-109203735D01*
X109999500Y-109260555D01*
X109999500Y-113775500D01*
X109979815Y-113842539D01*
X109927011Y-113888294D01*
X109875500Y-113899500D01*
X82434108Y-113899500D01*
X82306812Y-113933608D01*
X82192686Y-113999500D01*
X82192683Y-113999502D01*
X82099502Y-114092683D01*
X82099500Y-114092686D01*
X82033608Y-114206812D01*
X81999500Y-114334108D01*
X81999500Y-128128190D01*
X81999198Y-128136839D01*
X81996122Y-128180816D01*
X81997222Y-128186471D01*
X81999500Y-128210130D01*
X81999500Y-128215895D01*
X82010906Y-128258462D01*
X82012852Y-128266893D01*
X82021266Y-128310179D01*
X82023792Y-128315357D01*
X82032116Y-128337621D01*
X82033605Y-128343180D01*
X82033607Y-128343185D01*
X82033608Y-128343186D01*
X82055654Y-128381372D01*
X82059709Y-128388998D01*
X82079037Y-128428627D01*
X82082817Y-128432975D01*
X82096618Y-128452324D01*
X82099495Y-128457307D01*
X82099501Y-128457315D01*
X82130663Y-128488477D01*
X82136565Y-128494805D01*
X82165497Y-128528087D01*
X82170274Y-128531309D01*
X82188615Y-128546429D01*
X82192686Y-128550500D01*
X82230862Y-128572541D01*
X82238193Y-128577121D01*
X92944840Y-135798845D01*
X92989411Y-135852653D01*
X92999500Y-135901646D01*
X92999500Y-143135485D01*
X93033608Y-143262781D01*
X93066554Y-143319844D01*
X93099500Y-143376908D01*
X93192686Y-143470094D01*
X93306814Y-143535986D01*
X93434108Y-143570094D01*
X109875500Y-143570094D01*
X109942539Y-143589779D01*
X109988294Y-143642583D01*
X109999500Y-143694094D01*
X109999500Y-145440924D01*
X109979815Y-145507963D01*
X109927011Y-145553718D01*
X109863136Y-145564306D01*
X109624822Y-145540424D01*
X109611724Y-145538400D01*
X109363254Y-145486269D01*
X109350451Y-145482859D01*
X109221206Y-145440924D01*
X109142964Y-145415537D01*
X109119241Y-145404981D01*
X109116164Y-145403205D01*
X109116151Y-145403199D01*
X109084331Y-145394673D01*
X109071911Y-145390633D01*
X109054629Y-145383985D01*
X109041157Y-145378804D01*
X109041155Y-145378803D01*
X109041146Y-145378801D01*
X109024282Y-145377017D01*
X109005246Y-145373482D01*
X108988870Y-145369095D01*
X108988865Y-145369094D01*
X108988864Y-145369094D01*
X108988862Y-145369094D01*
X108955921Y-145369094D01*
X108942875Y-145368406D01*
X108910104Y-145364938D01*
X108893348Y-145367581D01*
X108874035Y-145369094D01*
X66003751Y-145369094D01*
X65996264Y-145368868D01*
X65730311Y-145352780D01*
X65715447Y-145350975D01*
X65457070Y-145303626D01*
X65442531Y-145300042D01*
X65191745Y-145221894D01*
X65177755Y-145216589D01*
X64938198Y-145108772D01*
X64924962Y-145101825D01*
X64700152Y-144965923D01*
X64687832Y-144957419D01*
X64481053Y-144795417D01*
X64469845Y-144785487D01*
X64284108Y-144599751D01*
X64274178Y-144588543D01*
X64112178Y-144381763D01*
X64103672Y-144369440D01*
X63967779Y-144144645D01*
X63960821Y-144131386D01*
X63853010Y-143891841D01*
X63847700Y-143877840D01*
X63769556Y-143627065D01*
X63765972Y-143612526D01*
X63761223Y-143586613D01*
X63718622Y-143354144D01*
X63716818Y-143339284D01*
X63710968Y-143242565D01*
X63700725Y-143073223D01*
X63700500Y-143065754D01*
X63700500Y-129519808D01*
X63720185Y-129452769D01*
X63772989Y-129407014D01*
X63842147Y-129397070D01*
X63905703Y-129426095D01*
X63912182Y-129432128D01*
X63965325Y-129485272D01*
X63965331Y-129485277D01*
X64071874Y-129556466D01*
X64141221Y-129585189D01*
X64190256Y-129605501D01*
X64190259Y-129605501D01*
X64190260Y-129605502D01*
X64315928Y-129630500D01*
X64315931Y-129630500D01*
X64315932Y-129630500D01*
X64342278Y-129630500D01*
X64409317Y-129650185D01*
X64443853Y-129683377D01*
X64561501Y-129851396D01*
X64561506Y-129851402D01*
X64728597Y-130018493D01*
X64728603Y-130018498D01*
X64914158Y-130148425D01*
X64957783Y-130203002D01*
X64964977Y-130272500D01*
X64933454Y-130334855D01*
X64914158Y-130351575D01*
X64728597Y-130481505D01*
X64561505Y-130648597D01*
X64425965Y-130842169D01*
X64425964Y-130842171D01*
X64326098Y-131056335D01*
X64326094Y-131056344D01*
X64264938Y-131284586D01*
X64264936Y-131284596D01*
X64244341Y-131519999D01*
X64244341Y-131520000D01*
X64264936Y-131755403D01*
X64264938Y-131755413D01*
X64326094Y-131983655D01*
X64326096Y-131983659D01*
X64326097Y-131983663D01*
X64345502Y-132025277D01*
X64425965Y-132197830D01*
X64425967Y-132197834D01*
X64443853Y-132223377D01*
X64561501Y-132391396D01*
X64561506Y-132391402D01*
X64728597Y-132558493D01*
X64728603Y-132558498D01*
X64914158Y-132688425D01*
X64957783Y-132743002D01*
X64964977Y-132812500D01*
X64933454Y-132874855D01*
X64914158Y-132891575D01*
X64728597Y-133021505D01*
X64561505Y-133188597D01*
X64425965Y-133382169D01*
X64425964Y-133382171D01*
X64326098Y-133596335D01*
X64326094Y-133596344D01*
X64264938Y-133824586D01*
X64264936Y-133824596D01*
X64244341Y-134059999D01*
X64244341Y-134060000D01*
X64264936Y-134295403D01*
X64264938Y-134295413D01*
X64326094Y-134523655D01*
X64326096Y-134523659D01*
X64326097Y-134523663D01*
X64425965Y-134737830D01*
X64425967Y-134737834D01*
X64561501Y-134931395D01*
X64561506Y-134931402D01*
X64728597Y-135098493D01*
X64728603Y-135098498D01*
X64914158Y-135228425D01*
X64957783Y-135283002D01*
X64964977Y-135352500D01*
X64933454Y-135414855D01*
X64914158Y-135431575D01*
X64728597Y-135561505D01*
X64561505Y-135728597D01*
X64425965Y-135922169D01*
X64425964Y-135922171D01*
X64326098Y-136136335D01*
X64326094Y-136136344D01*
X64264938Y-136364586D01*
X64264936Y-136364596D01*
X64244341Y-136599999D01*
X64244341Y-136600000D01*
X64264936Y-136835403D01*
X64264938Y-136835413D01*
X64326094Y-137063655D01*
X64326096Y-137063659D01*
X64326097Y-137063663D01*
X64425965Y-137277830D01*
X64425967Y-137277834D01*
X64534281Y-137432521D01*
X64561505Y-137471401D01*
X64728599Y-137638495D01*
X64825384Y-137706265D01*
X64922165Y-137774032D01*
X64922167Y-137774033D01*
X64922170Y-137774035D01*
X65136337Y-137873903D01*
X65364592Y-137935063D01*
X65552918Y-137951539D01*
X65599999Y-137955659D01*
X65600000Y-137955659D01*
X65600001Y-137955659D01*
X65639234Y-137952226D01*
X65835408Y-137935063D01*
X66063663Y-137873903D01*
X66277830Y-137774035D01*
X66471401Y-137638495D01*
X66638495Y-137471401D01*
X66774035Y-137277830D01*
X66873903Y-137063663D01*
X66935063Y-136835408D01*
X66955659Y-136600000D01*
X66935063Y-136364592D01*
X66873903Y-136136337D01*
X66774035Y-135922171D01*
X66759664Y-135901646D01*
X66638494Y-135728597D01*
X66471402Y-135561506D01*
X66471396Y-135561501D01*
X66285842Y-135431575D01*
X66242217Y-135376998D01*
X66235023Y-135307500D01*
X66266546Y-135245145D01*
X66285842Y-135228425D01*
X66405149Y-135144885D01*
X66471401Y-135098495D01*
X66638495Y-134931401D01*
X66774035Y-134737830D01*
X66873903Y-134523663D01*
X66935063Y-134295408D01*
X66955659Y-134060000D01*
X66935063Y-133824592D01*
X66873903Y-133596337D01*
X66774035Y-133382171D01*
X66638495Y-133188599D01*
X66638494Y-133188597D01*
X66471402Y-133021506D01*
X66471396Y-133021501D01*
X66285842Y-132891575D01*
X66242217Y-132836998D01*
X66235023Y-132767500D01*
X66266546Y-132705145D01*
X66285842Y-132688425D01*
X66308026Y-132672891D01*
X66471401Y-132558495D01*
X66638495Y-132391401D01*
X66756147Y-132223377D01*
X66810724Y-132179752D01*
X66857722Y-132170500D01*
X70544071Y-132170500D01*
X70628615Y-132153682D01*
X70669744Y-132145501D01*
X70788127Y-132096465D01*
X70894669Y-132025277D01*
X72505277Y-130414669D01*
X72576466Y-130308126D01*
X72625501Y-130189743D01*
X72650500Y-130064069D01*
X72650500Y-129935931D01*
X72650500Y-99078543D01*
X82679499Y-99078543D01*
X82717947Y-99271829D01*
X82717950Y-99271839D01*
X82793364Y-99453907D01*
X82793371Y-99453920D01*
X82902860Y-99617781D01*
X82902863Y-99617785D01*
X83042214Y-99757136D01*
X83042218Y-99757139D01*
X83206079Y-99866628D01*
X83206092Y-99866635D01*
X83388160Y-99942049D01*
X83388165Y-99942051D01*
X83388169Y-99942051D01*
X83388170Y-99942052D01*
X83581456Y-99980500D01*
X83581459Y-99980500D01*
X83778543Y-99980500D01*
X83908582Y-99954632D01*
X83971835Y-99942051D01*
X84153914Y-99866632D01*
X84317782Y-99757139D01*
X84457139Y-99617782D01*
X84566632Y-99453914D01*
X84642051Y-99271835D01*
X84680500Y-99078543D01*
X91319499Y-99078543D01*
X91357947Y-99271829D01*
X91357950Y-99271839D01*
X91433364Y-99453907D01*
X91433371Y-99453920D01*
X91542860Y-99617781D01*
X91542863Y-99617785D01*
X91682214Y-99757136D01*
X91682218Y-99757139D01*
X91846079Y-99866628D01*
X91846092Y-99866635D01*
X92028160Y-99942049D01*
X92028165Y-99942051D01*
X92028169Y-99942051D01*
X92028170Y-99942052D01*
X92221456Y-99980500D01*
X92221459Y-99980500D01*
X92418543Y-99980500D01*
X92548582Y-99954632D01*
X92611835Y-99942051D01*
X92793914Y-99866632D01*
X92957782Y-99757139D01*
X93097139Y-99617782D01*
X93206632Y-99453914D01*
X93282051Y-99271835D01*
X93320500Y-99078541D01*
X93320500Y-98181459D01*
X93320500Y-98181456D01*
X93282052Y-97988170D01*
X93282051Y-97988169D01*
X93282051Y-97988165D01*
X93282049Y-97988160D01*
X93206635Y-97806092D01*
X93206628Y-97806079D01*
X93097139Y-97642218D01*
X93097136Y-97642214D01*
X92957785Y-97502863D01*
X92957781Y-97502860D01*
X92793920Y-97393371D01*
X92793907Y-97393364D01*
X92611839Y-97317950D01*
X92611829Y-97317947D01*
X92418543Y-97279500D01*
X92418541Y-97279500D01*
X92221459Y-97279500D01*
X92221457Y-97279500D01*
X92028170Y-97317947D01*
X92028160Y-97317950D01*
X91846092Y-97393364D01*
X91846079Y-97393371D01*
X91682218Y-97502860D01*
X91682214Y-97502863D01*
X91542863Y-97642214D01*
X91542860Y-97642218D01*
X91433371Y-97806079D01*
X91433364Y-97806092D01*
X91357950Y-97988160D01*
X91357947Y-97988170D01*
X91319500Y-98181456D01*
X91319500Y-98181459D01*
X91319500Y-99078541D01*
X91319500Y-99078543D01*
X91319499Y-99078543D01*
X84680500Y-99078543D01*
X84680500Y-99078541D01*
X84680500Y-98181459D01*
X84680500Y-98181456D01*
X84642052Y-97988170D01*
X84642051Y-97988169D01*
X84642051Y-97988165D01*
X84642049Y-97988160D01*
X84566635Y-97806092D01*
X84566628Y-97806079D01*
X84457139Y-97642218D01*
X84457136Y-97642214D01*
X84317785Y-97502863D01*
X84317781Y-97502860D01*
X84153920Y-97393371D01*
X84153907Y-97393364D01*
X83971839Y-97317950D01*
X83971829Y-97317947D01*
X83778543Y-97279500D01*
X83778541Y-97279500D01*
X83581459Y-97279500D01*
X83581457Y-97279500D01*
X83388170Y-97317947D01*
X83388160Y-97317950D01*
X83206092Y-97393364D01*
X83206079Y-97393371D01*
X83042218Y-97502860D01*
X83042214Y-97502863D01*
X82902863Y-97642214D01*
X82902860Y-97642218D01*
X82793371Y-97806079D01*
X82793364Y-97806092D01*
X82717950Y-97988160D01*
X82717947Y-97988170D01*
X82679500Y-98181456D01*
X82679500Y-98181459D01*
X82679500Y-99078541D01*
X82679500Y-99078543D01*
X82679499Y-99078543D01*
X72650500Y-99078543D01*
X72650500Y-92771577D01*
X82419500Y-92771577D01*
X82419500Y-94268422D01*
X82450290Y-94462826D01*
X82511117Y-94650029D01*
X82600476Y-94825405D01*
X82716172Y-94984646D01*
X82855354Y-95123828D01*
X83014595Y-95239524D01*
X83097455Y-95281743D01*
X83189970Y-95328882D01*
X83189972Y-95328882D01*
X83189975Y-95328884D01*
X83290317Y-95361487D01*
X83377173Y-95389709D01*
X83571578Y-95420500D01*
X83571583Y-95420500D01*
X83768422Y-95420500D01*
X83962826Y-95389709D01*
X84150025Y-95328884D01*
X84325405Y-95239524D01*
X84484646Y-95123828D01*
X84623828Y-94984646D01*
X84739524Y-94825405D01*
X84828884Y-94650025D01*
X84889709Y-94462826D01*
X84891915Y-94448897D01*
X84920500Y-94268422D01*
X84920500Y-93960608D01*
X84955245Y-93975000D01*
X85044755Y-93975000D01*
X85127452Y-93940746D01*
X85190746Y-93877452D01*
X85225000Y-93794755D01*
X85225000Y-93705245D01*
X85190746Y-93622548D01*
X85127452Y-93559254D01*
X85044755Y-93525000D01*
X84955245Y-93525000D01*
X84920500Y-93539391D01*
X84920500Y-92908589D01*
X85250000Y-92908589D01*
X85250000Y-94591409D01*
X85271876Y-94586759D01*
X85271878Y-94586759D01*
X85439909Y-94511946D01*
X85526689Y-94448897D01*
X85592496Y-94425417D01*
X85660550Y-94441242D01*
X85672460Y-94448897D01*
X85759834Y-94512378D01*
X85759835Y-94512378D01*
X85759839Y-94512381D01*
X85896953Y-94573428D01*
X85927961Y-94587234D01*
X85927966Y-94587236D01*
X86107981Y-94625500D01*
X86292019Y-94625500D01*
X86472034Y-94587236D01*
X86640161Y-94512381D01*
X86708368Y-94462826D01*
X86727115Y-94449206D01*
X86792921Y-94425726D01*
X86860975Y-94441552D01*
X86872885Y-94449206D01*
X86959834Y-94512378D01*
X86959835Y-94512378D01*
X86959839Y-94512381D01*
X87096953Y-94573428D01*
X87127961Y-94587234D01*
X87127966Y-94587236D01*
X87307981Y-94625500D01*
X87492019Y-94625500D01*
X87672034Y-94587236D01*
X87840161Y-94512381D01*
X87908368Y-94462826D01*
X87927115Y-94449206D01*
X87992921Y-94425726D01*
X88060975Y-94441552D01*
X88072885Y-94449206D01*
X88159834Y-94512378D01*
X88159835Y-94512378D01*
X88159839Y-94512381D01*
X88296953Y-94573428D01*
X88327961Y-94587234D01*
X88327966Y-94587236D01*
X88507981Y-94625500D01*
X88692019Y-94625500D01*
X88872034Y-94587236D01*
X89040161Y-94512381D01*
X89108368Y-94462826D01*
X89127115Y-94449206D01*
X89192921Y-94425726D01*
X89260975Y-94441552D01*
X89272885Y-94449206D01*
X89359834Y-94512378D01*
X89359835Y-94512378D01*
X89359839Y-94512381D01*
X89496953Y-94573428D01*
X89527961Y-94587234D01*
X89527966Y-94587236D01*
X89707981Y-94625500D01*
X89892019Y-94625500D01*
X90072034Y-94587236D01*
X90240161Y-94512381D01*
X90327540Y-94448896D01*
X90393344Y-94425417D01*
X90461398Y-94441242D01*
X90473309Y-94448897D01*
X90560085Y-94511943D01*
X90560090Y-94511946D01*
X90728122Y-94586759D01*
X90749999Y-94591409D01*
X90750000Y-94591409D01*
X90750000Y-93705245D01*
X90775000Y-93705245D01*
X90775000Y-93794755D01*
X90809254Y-93877452D01*
X90872548Y-93940746D01*
X90955245Y-93975000D01*
X91044755Y-93975000D01*
X91079500Y-93960608D01*
X91079500Y-94268422D01*
X91110290Y-94462826D01*
X91171117Y-94650029D01*
X91260476Y-94825405D01*
X91376172Y-94984646D01*
X91515354Y-95123828D01*
X91674595Y-95239524D01*
X91757455Y-95281743D01*
X91849970Y-95328882D01*
X91849972Y-95328882D01*
X91849975Y-95328884D01*
X91950317Y-95361487D01*
X92037173Y-95389709D01*
X92231578Y-95420500D01*
X92231583Y-95420500D01*
X92428422Y-95420500D01*
X92622826Y-95389709D01*
X92810025Y-95328884D01*
X92985405Y-95239524D01*
X93144646Y-95123828D01*
X93283828Y-94984646D01*
X93399524Y-94825405D01*
X93488884Y-94650025D01*
X93549709Y-94462826D01*
X93551915Y-94448897D01*
X93580500Y-94268422D01*
X93580500Y-92771577D01*
X93549709Y-92577173D01*
X93488882Y-92389970D01*
X93399523Y-92214594D01*
X93283828Y-92055354D01*
X93144646Y-91916172D01*
X92985405Y-91800476D01*
X92936387Y-91775500D01*
X92810029Y-91711117D01*
X92622826Y-91650290D01*
X92428422Y-91619500D01*
X92428417Y-91619500D01*
X92231583Y-91619500D01*
X92231578Y-91619500D01*
X92037173Y-91650290D01*
X91849970Y-91711117D01*
X91674594Y-91800476D01*
X91583741Y-91866485D01*
X91515354Y-91916172D01*
X91515352Y-91916174D01*
X91515351Y-91916174D01*
X91376174Y-92055351D01*
X91376174Y-92055352D01*
X91376172Y-92055354D01*
X91326485Y-92123741D01*
X91260476Y-92214594D01*
X91171117Y-92389970D01*
X91110290Y-92577173D01*
X91079500Y-92771577D01*
X91079500Y-93539391D01*
X91044755Y-93525000D01*
X90955245Y-93525000D01*
X90872548Y-93559254D01*
X90809254Y-93622548D01*
X90775000Y-93705245D01*
X90750000Y-93705245D01*
X90750000Y-92908589D01*
X90728122Y-92913240D01*
X90560090Y-92988054D01*
X90560085Y-92988056D01*
X90473309Y-93051103D01*
X90407503Y-93074583D01*
X90339449Y-93058757D01*
X90327549Y-93051110D01*
X90258845Y-93001194D01*
X90240160Y-92987618D01*
X90072038Y-92912765D01*
X90072033Y-92912763D01*
X89892019Y-92874500D01*
X89707981Y-92874500D01*
X89527966Y-92912763D01*
X89527961Y-92912765D01*
X89359839Y-92987618D01*
X89272885Y-93050794D01*
X89207078Y-93074273D01*
X89139024Y-93058447D01*
X89127115Y-93050794D01*
X89040160Y-92987618D01*
X88872038Y-92912765D01*
X88872033Y-92912763D01*
X88692019Y-92874500D01*
X88507981Y-92874500D01*
X88327966Y-92912763D01*
X88327961Y-92912765D01*
X88159839Y-92987618D01*
X88072885Y-93050794D01*
X88007078Y-93074273D01*
X87939024Y-93058447D01*
X87927115Y-93050794D01*
X87840160Y-92987618D01*
X87672038Y-92912765D01*
X87672033Y-92912763D01*
X87492019Y-92874500D01*
X87307981Y-92874500D01*
X87127966Y-92912763D01*
X87127961Y-92912765D01*
X86959839Y-92987618D01*
X86872885Y-93050794D01*
X86807078Y-93074273D01*
X86739024Y-93058447D01*
X86727115Y-93050794D01*
X86640160Y-92987618D01*
X86472038Y-92912765D01*
X86472033Y-92912763D01*
X86292019Y-92874500D01*
X86107981Y-92874500D01*
X85927966Y-92912763D01*
X85927961Y-92912765D01*
X85759840Y-92987618D01*
X85672460Y-93051103D01*
X85606653Y-93074582D01*
X85538599Y-93058756D01*
X85526690Y-93051103D01*
X85439908Y-92988053D01*
X85271877Y-92913240D01*
X85271878Y-92913240D01*
X85250000Y-92908589D01*
X84920500Y-92908589D01*
X84920500Y-92771577D01*
X84889709Y-92577173D01*
X84828882Y-92389970D01*
X84739523Y-92214594D01*
X84623828Y-92055354D01*
X84484646Y-91916172D01*
X84325405Y-91800476D01*
X84276387Y-91775500D01*
X84150029Y-91711117D01*
X83962826Y-91650290D01*
X83768422Y-91619500D01*
X83768417Y-91619500D01*
X83571583Y-91619500D01*
X83571578Y-91619500D01*
X83377173Y-91650290D01*
X83189970Y-91711117D01*
X83014594Y-91800476D01*
X82923741Y-91866485D01*
X82855354Y-91916172D01*
X82855352Y-91916174D01*
X82855351Y-91916174D01*
X82716174Y-92055351D01*
X82716174Y-92055352D01*
X82716172Y-92055354D01*
X82666485Y-92123741D01*
X82600476Y-92214594D01*
X82511117Y-92389970D01*
X82450290Y-92577173D01*
X82419500Y-92771577D01*
X72650500Y-92771577D01*
X72650500Y-89420808D01*
X72670185Y-89353769D01*
X72686819Y-89333127D01*
X75705271Y-86314675D01*
X75705276Y-86314670D01*
X75776465Y-86208127D01*
X75825501Y-86089744D01*
X75842303Y-86005276D01*
X75850500Y-85964069D01*
X75850500Y-61235931D01*
X75850500Y-57535931D01*
X75850500Y-57535928D01*
X75825502Y-57410261D01*
X75825501Y-57410260D01*
X75825501Y-57410256D01*
X75776465Y-57291873D01*
X75776464Y-57291870D01*
X75705277Y-57185331D01*
X75705271Y-57185324D01*
X74004254Y-55484307D01*
X74004250Y-55484304D01*
X73897708Y-55413116D01*
X73779325Y-55364080D01*
X73779319Y-55364078D01*
X73653652Y-55339081D01*
X73653650Y-55339081D01*
X71535031Y-55339081D01*
X71467992Y-55319396D01*
X71431222Y-55282902D01*
X71421994Y-55268778D01*
X71386205Y-55213997D01*
X71328997Y-55126433D01*
X71328994Y-55126430D01*
X71328993Y-55126428D01*
X71171798Y-54955668D01*
X70994194Y-54817434D01*
X70953382Y-54760724D01*
X70949707Y-54690951D01*
X70984338Y-54630268D01*
X70994195Y-54621727D01*
X71171798Y-54483494D01*
X71328993Y-54312734D01*
X71455938Y-54118430D01*
X71549171Y-53905881D01*
X71606148Y-53680886D01*
X71625314Y-53449581D01*
X71625314Y-53449574D01*
X71606149Y-53218283D01*
X71606147Y-53218272D01*
X71549171Y-52993280D01*
X71455938Y-52780732D01*
X71328997Y-52586433D01*
X71328994Y-52586430D01*
X71328993Y-52586428D01*
X71171798Y-52415668D01*
X70994194Y-52277434D01*
X70953382Y-52220724D01*
X70949707Y-52150951D01*
X70984338Y-52090268D01*
X70994195Y-52081727D01*
X71171798Y-51943494D01*
X71328993Y-51772734D01*
X71455938Y-51578430D01*
X71549171Y-51365881D01*
X71606148Y-51140886D01*
X71625314Y-50909581D01*
X71625314Y-50909574D01*
X71606149Y-50678283D01*
X71606147Y-50678272D01*
X71549171Y-50453280D01*
X71455938Y-50240732D01*
X71328997Y-50046433D01*
X71328994Y-50046430D01*
X71328993Y-50046428D01*
X71171798Y-49875668D01*
X70994194Y-49737434D01*
X70953382Y-49680724D01*
X70949707Y-49610951D01*
X70984338Y-49550268D01*
X70994195Y-49541727D01*
X71171798Y-49403494D01*
X71328993Y-49232734D01*
X71455938Y-49038430D01*
X71549171Y-48825881D01*
X71606148Y-48600886D01*
X71625314Y-48369581D01*
X71625314Y-48369574D01*
X71606149Y-48138283D01*
X71606147Y-48138272D01*
X71549171Y-47913280D01*
X71455938Y-47700732D01*
X71328997Y-47506433D01*
X71328994Y-47506430D01*
X71328993Y-47506428D01*
X71171798Y-47335668D01*
X70994194Y-47197434D01*
X70953382Y-47140724D01*
X70949707Y-47070951D01*
X70984338Y-47010268D01*
X70994195Y-47001727D01*
X71171798Y-46863494D01*
X71328993Y-46692734D01*
X71455938Y-46498430D01*
X71549171Y-46285881D01*
X71606148Y-46060886D01*
X71625314Y-45829581D01*
X71625314Y-45829574D01*
X71606149Y-45598283D01*
X71606147Y-45598272D01*
X71549171Y-45373280D01*
X71455938Y-45160732D01*
X71328997Y-44966433D01*
X71328994Y-44966430D01*
X71328993Y-44966428D01*
X71171798Y-44795668D01*
X70994194Y-44657434D01*
X70953382Y-44600724D01*
X70949707Y-44530951D01*
X70984338Y-44470268D01*
X70994195Y-44461727D01*
X71171798Y-44323494D01*
X71328993Y-44152734D01*
X71428782Y-43999996D01*
X76194435Y-43999996D01*
X76194435Y-44000003D01*
X76214630Y-44179249D01*
X76214631Y-44179254D01*
X76242542Y-44259017D01*
X76249500Y-44299972D01*
X76249500Y-48700028D01*
X76242542Y-48740982D01*
X76214631Y-48820747D01*
X76194435Y-48999996D01*
X76194435Y-49000003D01*
X76214630Y-49179249D01*
X76214631Y-49179254D01*
X76274211Y-49349523D01*
X76308125Y-49403496D01*
X76370184Y-49502262D01*
X76497738Y-49629816D01*
X76650478Y-49725789D01*
X76820745Y-49785368D01*
X76820750Y-49785369D01*
X76999996Y-49805565D01*
X77000000Y-49805565D01*
X77000004Y-49805565D01*
X77179249Y-49785369D01*
X77179252Y-49785368D01*
X77179255Y-49785368D01*
X77349522Y-49725789D01*
X77502262Y-49629816D01*
X77629816Y-49502262D01*
X77725789Y-49349522D01*
X77785368Y-49179255D01*
X77789209Y-49145164D01*
X77805565Y-49000003D01*
X77805565Y-48999996D01*
X77792100Y-48880496D01*
X77785368Y-48820745D01*
X77757458Y-48740982D01*
X77750500Y-48700028D01*
X77750500Y-44299972D01*
X77757458Y-44259017D01*
X77785368Y-44179254D01*
X77785369Y-44179249D01*
X77805565Y-44000003D01*
X77805565Y-43999996D01*
X77785369Y-43820750D01*
X77785368Y-43820745D01*
X77725788Y-43650476D01*
X77686582Y-43588080D01*
X77629816Y-43497738D01*
X77502262Y-43370184D01*
X77349523Y-43274211D01*
X77179254Y-43214631D01*
X77179249Y-43214630D01*
X77000004Y-43194435D01*
X76999996Y-43194435D01*
X76820750Y-43214630D01*
X76820745Y-43214631D01*
X76650476Y-43274211D01*
X76497737Y-43370184D01*
X76370184Y-43497737D01*
X76274211Y-43650476D01*
X76214631Y-43820745D01*
X76214630Y-43820750D01*
X76194435Y-43999996D01*
X71428782Y-43999996D01*
X71455938Y-43958430D01*
X71549171Y-43745881D01*
X71606148Y-43520886D01*
X71608066Y-43497737D01*
X71625314Y-43289587D01*
X71625314Y-43289574D01*
X71606149Y-43058283D01*
X71606147Y-43058272D01*
X71549171Y-42833280D01*
X71455938Y-42620732D01*
X71328997Y-42426433D01*
X71328994Y-42426430D01*
X71328993Y-42426428D01*
X71171798Y-42255668D01*
X71171793Y-42255664D01*
X71171791Y-42255662D01*
X70988648Y-42113116D01*
X70988642Y-42113112D01*
X70784518Y-42002645D01*
X70784509Y-42002642D01*
X70564998Y-41927283D01*
X70393296Y-41898631D01*
X70336063Y-41889081D01*
X70103965Y-41889081D01*
X70058178Y-41896721D01*
X69875029Y-41927283D01*
X69655518Y-42002642D01*
X69655509Y-42002645D01*
X69451385Y-42113112D01*
X69451379Y-42113116D01*
X69268236Y-42255662D01*
X69268233Y-42255665D01*
X69111030Y-42426433D01*
X69053823Y-42513997D01*
X69000676Y-42559354D01*
X68931445Y-42568778D01*
X68868109Y-42539276D01*
X68846205Y-42513997D01*
X68788997Y-42426433D01*
X68788994Y-42426430D01*
X68788993Y-42426428D01*
X68631798Y-42255668D01*
X68631793Y-42255664D01*
X68631791Y-42255662D01*
X68448648Y-42113116D01*
X68448642Y-42113112D01*
X68244518Y-42002645D01*
X68244515Y-42002644D01*
X68225266Y-41996036D01*
X68168251Y-41955649D01*
X68142122Y-41890849D01*
X68155174Y-41822209D01*
X68198490Y-41774440D01*
X68390189Y-41651243D01*
X68707555Y-41401664D01*
X68999760Y-41123048D01*
X69264157Y-40817917D01*
X69498353Y-40489035D01*
X69700226Y-40139381D01*
X69867948Y-39772120D01*
X69995600Y-39403293D01*
X69999996Y-39390592D01*
X69999996Y-39390589D01*
X70000000Y-39390580D01*
X70095187Y-38998215D01*
X70152646Y-38598579D01*
X70171857Y-38195290D01*
X70152646Y-37792001D01*
X70095187Y-37392365D01*
X70000000Y-37000000D01*
X69999996Y-36999987D01*
X69977383Y-36934650D01*
X69974058Y-36864860D01*
X70008993Y-36804351D01*
X70071096Y-36772335D01*
X70094563Y-36770094D01*
X106179231Y-36770094D01*
X106246270Y-36789779D01*
G37*
%TD.AperFunction*%
%TA.AperFunction,Conductor*%
G36*
X70068834Y-114295047D02*
G01*
X70124767Y-114336919D01*
X70149184Y-114402383D01*
X70149500Y-114411229D01*
X70149500Y-127879192D01*
X70129815Y-127946231D01*
X70113181Y-127966873D01*
X69786873Y-128293181D01*
X69725550Y-128326666D01*
X69699192Y-128329500D01*
X66857721Y-128329500D01*
X66790682Y-128309815D01*
X66756146Y-128276623D01*
X66638494Y-128108597D01*
X66471402Y-127941506D01*
X66471401Y-127941505D01*
X66285405Y-127811269D01*
X66241781Y-127756692D01*
X66234588Y-127687193D01*
X66266110Y-127624839D01*
X66285405Y-127608119D01*
X66471082Y-127478105D01*
X66638105Y-127311082D01*
X66773600Y-127117578D01*
X66873429Y-126903492D01*
X66873432Y-126903486D01*
X66930636Y-126690000D01*
X66033012Y-126690000D01*
X66065925Y-126632993D01*
X66100000Y-126505826D01*
X66100000Y-126374174D01*
X66065925Y-126247007D01*
X66033012Y-126190000D01*
X66930636Y-126190000D01*
X66930635Y-126189999D01*
X66873432Y-125976513D01*
X66873429Y-125976507D01*
X66773600Y-125762422D01*
X66773599Y-125762420D01*
X66638113Y-125568926D01*
X66638108Y-125568920D01*
X66516053Y-125446865D01*
X66482568Y-125385542D01*
X66487552Y-125315850D01*
X66529424Y-125259917D01*
X66560400Y-125243002D01*
X66692331Y-125193796D01*
X66807546Y-125107546D01*
X66893796Y-124992331D01*
X66944091Y-124857483D01*
X66950500Y-124797873D01*
X66950499Y-123002128D01*
X66944091Y-122942517D01*
X66893796Y-122807669D01*
X66893795Y-122807668D01*
X66893793Y-122807664D01*
X66807547Y-122692455D01*
X66807544Y-122692452D01*
X66692335Y-122606206D01*
X66692328Y-122606202D01*
X66557482Y-122555908D01*
X66557483Y-122555908D01*
X66497883Y-122549501D01*
X66497881Y-122549500D01*
X66497873Y-122549500D01*
X66497864Y-122549500D01*
X64702129Y-122549500D01*
X64702120Y-122549501D01*
X64687752Y-122551046D01*
X64618993Y-122538639D01*
X64567857Y-122491027D01*
X64550500Y-122427756D01*
X64550500Y-121024499D01*
X64570185Y-120957460D01*
X64622989Y-120911705D01*
X64674500Y-120900499D01*
X65000002Y-120900499D01*
X65000008Y-120900499D01*
X65102797Y-120889999D01*
X65269334Y-120834814D01*
X65418656Y-120742712D01*
X65512319Y-120649049D01*
X65573642Y-120615564D01*
X65643334Y-120620548D01*
X65687681Y-120649049D01*
X65781344Y-120742712D01*
X65930666Y-120834814D01*
X66097203Y-120889999D01*
X66199991Y-120900500D01*
X67000008Y-120900499D01*
X67000016Y-120900498D01*
X67000019Y-120900498D01*
X67056302Y-120894748D01*
X67102797Y-120889999D01*
X67269334Y-120834814D01*
X67418656Y-120742712D01*
X67542712Y-120618656D01*
X67634814Y-120469334D01*
X67689999Y-120302797D01*
X67700500Y-120200009D01*
X67700499Y-119199992D01*
X67689999Y-119097203D01*
X67634814Y-118930666D01*
X67542712Y-118781344D01*
X67418656Y-118657288D01*
X67415819Y-118655538D01*
X67414283Y-118653830D01*
X67412989Y-118652807D01*
X67413163Y-118652585D01*
X67369096Y-118603594D01*
X67357872Y-118534632D01*
X67385713Y-118470549D01*
X67415823Y-118444458D01*
X67418656Y-118442712D01*
X67542712Y-118318656D01*
X67634814Y-118169334D01*
X67689999Y-118002797D01*
X67700500Y-117900009D01*
X67700499Y-116899992D01*
X67689999Y-116797203D01*
X67657847Y-116700177D01*
X67655446Y-116630350D01*
X67687871Y-116573495D01*
X69937819Y-114323548D01*
X69999142Y-114290063D01*
X70068834Y-114295047D01*
G37*
%TD.AperFunction*%
%TA.AperFunction,Conductor*%
G36*
X72054390Y-66919766D02*
G01*
X72075032Y-66936400D01*
X72513181Y-67374548D01*
X72546666Y-67435871D01*
X72549500Y-67462229D01*
X72549500Y-84637770D01*
X72529815Y-84704809D01*
X72513181Y-84725451D01*
X69017049Y-88221582D01*
X69017045Y-88221586D01*
X68998395Y-88249501D01*
X68998394Y-88249502D01*
X68934916Y-88344503D01*
X68934914Y-88344506D01*
X68878343Y-88481082D01*
X68878340Y-88481092D01*
X68849500Y-88626079D01*
X68849500Y-113237769D01*
X68829815Y-113304808D01*
X68813181Y-113325450D01*
X66017050Y-116121580D01*
X66017044Y-116121588D01*
X65967812Y-116195269D01*
X65967813Y-116195270D01*
X65931532Y-116249569D01*
X65930047Y-116248577D01*
X65892030Y-116289015D01*
X65781347Y-116357285D01*
X65781343Y-116357288D01*
X65687681Y-116450951D01*
X65626358Y-116484436D01*
X65556666Y-116479452D01*
X65512319Y-116450951D01*
X65418657Y-116357289D01*
X65418656Y-116357288D01*
X65269334Y-116265186D01*
X65269328Y-116265184D01*
X65235494Y-116253972D01*
X65178050Y-116214199D01*
X65151228Y-116149683D01*
X65150500Y-116136267D01*
X65150500Y-116005067D01*
X65169507Y-115939094D01*
X65225788Y-115849524D01*
X65285368Y-115679254D01*
X65285369Y-115679249D01*
X65305565Y-115500003D01*
X65305565Y-115499996D01*
X65285369Y-115320750D01*
X65285368Y-115320745D01*
X65225788Y-115150476D01*
X65129815Y-114997737D01*
X65002262Y-114870184D01*
X64849523Y-114774211D01*
X64679254Y-114714631D01*
X64679249Y-114714630D01*
X64500004Y-114694435D01*
X64499996Y-114694435D01*
X64320750Y-114714630D01*
X64320745Y-114714631D01*
X64150476Y-114774211D01*
X63997737Y-114870184D01*
X63912181Y-114955741D01*
X63850858Y-114989226D01*
X63781166Y-114984242D01*
X63725233Y-114942370D01*
X63700816Y-114876906D01*
X63700500Y-114868060D01*
X63700500Y-109499983D01*
X64324500Y-109499983D01*
X64324500Y-110300001D01*
X64324501Y-110300019D01*
X64335000Y-110402796D01*
X64335001Y-110402799D01*
X64390185Y-110569331D01*
X64390186Y-110569334D01*
X64482288Y-110718656D01*
X64606344Y-110842712D01*
X64670981Y-110882580D01*
X64717705Y-110934526D01*
X64728928Y-111003489D01*
X64701085Y-111067571D01*
X64693566Y-111075799D01*
X64585964Y-111183401D01*
X64484195Y-111323475D01*
X64405591Y-111477744D01*
X64352085Y-111642415D01*
X64350884Y-111649999D01*
X64350885Y-111650000D01*
X65419670Y-111650000D01*
X65399925Y-111669745D01*
X65350556Y-111755255D01*
X65325000Y-111850630D01*
X65325000Y-111949370D01*
X65350556Y-112044745D01*
X65399925Y-112130255D01*
X65419670Y-112150000D01*
X64350885Y-112150000D01*
X64352085Y-112157584D01*
X64405591Y-112322255D01*
X64484195Y-112476524D01*
X64585967Y-112616602D01*
X64708397Y-112739032D01*
X64848475Y-112840804D01*
X65002742Y-112919408D01*
X65167415Y-112972914D01*
X65338429Y-113000000D01*
X65450000Y-113000000D01*
X65450000Y-112180330D01*
X65469745Y-112200075D01*
X65555255Y-112249444D01*
X65650630Y-112275000D01*
X65749370Y-112275000D01*
X65844745Y-112249444D01*
X65930255Y-112200075D01*
X65950000Y-112180330D01*
X65950000Y-113000000D01*
X66061571Y-113000000D01*
X66232584Y-112972914D01*
X66397257Y-112919408D01*
X66551524Y-112840804D01*
X66691602Y-112739032D01*
X66814032Y-112616602D01*
X66915804Y-112476524D01*
X66994408Y-112322255D01*
X67047914Y-112157584D01*
X67049115Y-112150000D01*
X65980330Y-112150000D01*
X66000075Y-112130255D01*
X66049444Y-112044745D01*
X66075000Y-111949370D01*
X66075000Y-111850630D01*
X66049444Y-111755255D01*
X66000075Y-111669745D01*
X65980330Y-111650000D01*
X67049115Y-111650000D01*
X67049115Y-111649999D01*
X67047914Y-111642415D01*
X66994408Y-111477744D01*
X66915804Y-111323475D01*
X66814032Y-111183397D01*
X66706434Y-111075799D01*
X66672949Y-111014476D01*
X66677933Y-110944784D01*
X66719805Y-110888851D01*
X66728995Y-110882594D01*
X66793656Y-110842712D01*
X66917712Y-110718656D01*
X67009814Y-110569334D01*
X67064999Y-110402797D01*
X67075500Y-110300009D01*
X67075499Y-109499992D01*
X67064999Y-109397203D01*
X67009814Y-109230666D01*
X66917712Y-109081344D01*
X66793656Y-108957288D01*
X66644334Y-108865186D01*
X66477797Y-108810001D01*
X66477795Y-108810000D01*
X66375010Y-108799500D01*
X65024998Y-108799500D01*
X65024981Y-108799501D01*
X64922203Y-108810000D01*
X64922200Y-108810001D01*
X64755668Y-108865185D01*
X64755663Y-108865187D01*
X64606342Y-108957289D01*
X64482289Y-109081342D01*
X64390187Y-109230663D01*
X64390186Y-109230666D01*
X64335001Y-109397203D01*
X64335001Y-109397204D01*
X64335000Y-109397204D01*
X64324500Y-109499983D01*
X63700500Y-109499983D01*
X63700500Y-87017593D01*
X63720185Y-86950554D01*
X63772989Y-86904799D01*
X63842147Y-86894855D01*
X63881316Y-86907375D01*
X64166759Y-87054532D01*
X64541584Y-87204589D01*
X64928975Y-87318338D01*
X65325425Y-87394747D01*
X65727343Y-87433126D01*
X65727349Y-87433126D01*
X66131083Y-87433126D01*
X66131089Y-87433126D01*
X66533007Y-87394747D01*
X66929457Y-87318338D01*
X67316848Y-87204589D01*
X67691673Y-87054532D01*
X68050537Y-86869525D01*
X68182462Y-86784741D01*
X68390170Y-86651256D01*
X68390178Y-86651250D01*
X68390189Y-86651243D01*
X68707555Y-86401664D01*
X68999760Y-86123048D01*
X69264157Y-85817917D01*
X69498353Y-85489035D01*
X69700226Y-85139381D01*
X69867948Y-84772120D01*
X70000000Y-84390580D01*
X70095187Y-83998215D01*
X70152646Y-83598579D01*
X70171857Y-83195290D01*
X70152646Y-82792001D01*
X70095187Y-82392365D01*
X70000000Y-82000000D01*
X69867948Y-81618460D01*
X69700226Y-81251199D01*
X69498353Y-80901545D01*
X69498349Y-80901539D01*
X69498343Y-80901530D01*
X69264157Y-80572663D01*
X69158931Y-80451226D01*
X68999760Y-80267532D01*
X68707555Y-79988916D01*
X68390189Y-79739337D01*
X68390181Y-79739332D01*
X68390175Y-79739327D01*
X68050536Y-79521054D01*
X68050529Y-79521050D01*
X67959145Y-79473938D01*
X67928284Y-79451404D01*
X67809423Y-79332543D01*
X67873007Y-79315506D01*
X67987021Y-79249680D01*
X68080113Y-79156588D01*
X68145939Y-79042574D01*
X68162976Y-78978990D01*
X68831199Y-79647213D01*
X68845905Y-79624706D01*
X68899051Y-79579349D01*
X68968282Y-79569925D01*
X69031618Y-79599427D01*
X69053522Y-79624704D01*
X69111035Y-79712734D01*
X69268230Y-79883494D01*
X69268233Y-79883496D01*
X69268236Y-79883499D01*
X69451379Y-80026045D01*
X69451385Y-80026049D01*
X69451388Y-80026051D01*
X69655511Y-80136517D01*
X69769501Y-80175649D01*
X69875029Y-80211878D01*
X69875031Y-80211878D01*
X69875033Y-80211879D01*
X70103965Y-80250081D01*
X70103966Y-80250081D01*
X70336062Y-80250081D01*
X70336063Y-80250081D01*
X70564995Y-80211879D01*
X70784517Y-80136517D01*
X70988640Y-80026051D01*
X71171798Y-79883494D01*
X71328993Y-79712734D01*
X71455938Y-79518430D01*
X71549171Y-79305881D01*
X71606148Y-79080886D01*
X71606149Y-79080878D01*
X71625314Y-78849587D01*
X71625314Y-78849574D01*
X71606149Y-78618283D01*
X71606147Y-78618272D01*
X71549171Y-78393280D01*
X71455938Y-78180732D01*
X71328997Y-77986433D01*
X71328994Y-77986430D01*
X71328993Y-77986428D01*
X71171798Y-77815668D01*
X70994194Y-77677434D01*
X70953382Y-77620724D01*
X70949707Y-77550951D01*
X70984338Y-77490268D01*
X70994195Y-77481727D01*
X71171798Y-77343494D01*
X71328993Y-77172734D01*
X71455938Y-76978430D01*
X71549171Y-76765881D01*
X71606148Y-76540886D01*
X71606149Y-76540878D01*
X71625314Y-76309587D01*
X71625314Y-76309574D01*
X71606149Y-76078283D01*
X71606147Y-76078272D01*
X71549171Y-75853280D01*
X71455938Y-75640732D01*
X71328997Y-75446433D01*
X71328994Y-75446430D01*
X71328993Y-75446428D01*
X71171798Y-75275668D01*
X70994194Y-75137434D01*
X70953382Y-75080724D01*
X70949707Y-75010951D01*
X70984338Y-74950268D01*
X70994195Y-74941727D01*
X71171798Y-74803494D01*
X71328993Y-74632734D01*
X71455938Y-74438430D01*
X71549171Y-74225881D01*
X71606148Y-74000886D01*
X71606149Y-74000878D01*
X71625314Y-73769587D01*
X71625314Y-73769574D01*
X71606149Y-73538283D01*
X71606147Y-73538272D01*
X71549171Y-73313280D01*
X71455938Y-73100732D01*
X71328997Y-72906433D01*
X71328994Y-72906430D01*
X71328993Y-72906428D01*
X71171798Y-72735668D01*
X70994194Y-72597434D01*
X70953382Y-72540724D01*
X70949707Y-72470951D01*
X70984338Y-72410268D01*
X70994195Y-72401727D01*
X71171798Y-72263494D01*
X71328993Y-72092734D01*
X71455938Y-71898430D01*
X71549171Y-71685881D01*
X71606148Y-71460886D01*
X71625314Y-71229581D01*
X71625314Y-71229574D01*
X71606149Y-70998283D01*
X71606147Y-70998272D01*
X71549171Y-70773280D01*
X71455938Y-70560732D01*
X71328997Y-70366433D01*
X71328994Y-70366430D01*
X71328993Y-70366428D01*
X71171798Y-70195668D01*
X70994194Y-70057434D01*
X70953382Y-70000724D01*
X70949707Y-69930951D01*
X70984338Y-69870268D01*
X70994195Y-69861727D01*
X71171798Y-69723494D01*
X71328993Y-69552734D01*
X71455938Y-69358430D01*
X71549171Y-69145881D01*
X71606148Y-68920886D01*
X71625314Y-68689581D01*
X71625314Y-68689574D01*
X71606149Y-68458283D01*
X71606147Y-68458272D01*
X71549171Y-68233280D01*
X71455938Y-68020732D01*
X71328997Y-67826433D01*
X71328994Y-67826430D01*
X71328993Y-67826428D01*
X71171798Y-67655668D01*
X70994194Y-67517434D01*
X70953382Y-67460724D01*
X70949707Y-67390951D01*
X70984338Y-67330268D01*
X70994195Y-67321727D01*
X71171798Y-67183494D01*
X71328993Y-67012734D01*
X71335928Y-67002118D01*
X71365891Y-66956259D01*
X71419037Y-66910903D01*
X71469699Y-66900081D01*
X71987351Y-66900081D01*
X72054390Y-66919766D01*
G37*
%TD.AperFunction*%
%TA.AperFunction,Conductor*%
G36*
X63881316Y-41907375D02*
G01*
X64166759Y-42054532D01*
X64541584Y-42204589D01*
X64928975Y-42318338D01*
X65325425Y-42394747D01*
X65727343Y-42433126D01*
X65727349Y-42433126D01*
X66131094Y-42433126D01*
X66339082Y-42413265D01*
X66407689Y-42426487D01*
X66458256Y-42474703D01*
X66474729Y-42542603D01*
X66454680Y-42604521D01*
X66444089Y-42620731D01*
X66350856Y-42833280D01*
X66293880Y-43058272D01*
X66293878Y-43058283D01*
X66274714Y-43289574D01*
X66274714Y-43289587D01*
X66293878Y-43520878D01*
X66293880Y-43520889D01*
X66350856Y-43745881D01*
X66444089Y-43958429D01*
X66571030Y-44152728D01*
X66571033Y-44152732D01*
X66571035Y-44152734D01*
X66728230Y-44323494D01*
X66728233Y-44323496D01*
X66728236Y-44323499D01*
X66905832Y-44461728D01*
X66946645Y-44518438D01*
X66950320Y-44588211D01*
X66915688Y-44648894D01*
X66905832Y-44657434D01*
X66728236Y-44795662D01*
X66728233Y-44795665D01*
X66571030Y-44966433D01*
X66444089Y-45160732D01*
X66350856Y-45373280D01*
X66293880Y-45598272D01*
X66293878Y-45598283D01*
X66274714Y-45829574D01*
X66274714Y-45829587D01*
X66293878Y-46060878D01*
X66293880Y-46060889D01*
X66350856Y-46285881D01*
X66444089Y-46498429D01*
X66571030Y-46692728D01*
X66571033Y-46692732D01*
X66571035Y-46692734D01*
X66728230Y-46863494D01*
X66728233Y-46863496D01*
X66728236Y-46863499D01*
X66905832Y-47001728D01*
X66946645Y-47058438D01*
X66950320Y-47128211D01*
X66915688Y-47188894D01*
X66905832Y-47197434D01*
X66728236Y-47335662D01*
X66728233Y-47335665D01*
X66571030Y-47506433D01*
X66444089Y-47700732D01*
X66350856Y-47913280D01*
X66293880Y-48138272D01*
X66293878Y-48138283D01*
X66274714Y-48369574D01*
X66274714Y-48369587D01*
X66293878Y-48600878D01*
X66293880Y-48600889D01*
X66350856Y-48825881D01*
X66444089Y-49038429D01*
X66571030Y-49232728D01*
X66571033Y-49232732D01*
X66571035Y-49232734D01*
X66728230Y-49403494D01*
X66728233Y-49403496D01*
X66728236Y-49403499D01*
X66905832Y-49541728D01*
X66946645Y-49598438D01*
X66950320Y-49668211D01*
X66915688Y-49728894D01*
X66905832Y-49737434D01*
X66728236Y-49875662D01*
X66728233Y-49875665D01*
X66571030Y-50046433D01*
X66444089Y-50240732D01*
X66350856Y-50453280D01*
X66293880Y-50678272D01*
X66293878Y-50678283D01*
X66274714Y-50909574D01*
X66274714Y-50909587D01*
X66293878Y-51140878D01*
X66293880Y-51140889D01*
X66350856Y-51365881D01*
X66444089Y-51578429D01*
X66571030Y-51772728D01*
X66571033Y-51772732D01*
X66571035Y-51772734D01*
X66728230Y-51943494D01*
X66728233Y-51943496D01*
X66728236Y-51943499D01*
X66905832Y-52081728D01*
X66946645Y-52138438D01*
X66950320Y-52208211D01*
X66915688Y-52268894D01*
X66905832Y-52277434D01*
X66728236Y-52415662D01*
X66728233Y-52415665D01*
X66571030Y-52586433D01*
X66444089Y-52780732D01*
X66350856Y-52993280D01*
X66293880Y-53218272D01*
X66293878Y-53218283D01*
X66274714Y-53449574D01*
X66274714Y-53449587D01*
X66293878Y-53680878D01*
X66293880Y-53680889D01*
X66350856Y-53905881D01*
X66444089Y-54118429D01*
X66571030Y-54312728D01*
X66571033Y-54312732D01*
X66571035Y-54312734D01*
X66728230Y-54483494D01*
X66728233Y-54483496D01*
X66728236Y-54483499D01*
X66905832Y-54621728D01*
X66946645Y-54678438D01*
X66950320Y-54748211D01*
X66915688Y-54808894D01*
X66905832Y-54817434D01*
X66728236Y-54955662D01*
X66728233Y-54955665D01*
X66571030Y-55126433D01*
X66444089Y-55320732D01*
X66350856Y-55533280D01*
X66293880Y-55758272D01*
X66293878Y-55758283D01*
X66274714Y-55989574D01*
X66274714Y-55989587D01*
X66293878Y-56220878D01*
X66293880Y-56220889D01*
X66350856Y-56445881D01*
X66444089Y-56658429D01*
X66571030Y-56852728D01*
X66571033Y-56852732D01*
X66571035Y-56852734D01*
X66728230Y-57023494D01*
X66728233Y-57023496D01*
X66728236Y-57023499D01*
X66905832Y-57161728D01*
X66946645Y-57218438D01*
X66950320Y-57288211D01*
X66915688Y-57348894D01*
X66905832Y-57357434D01*
X66728236Y-57495662D01*
X66728233Y-57495665D01*
X66728230Y-57495667D01*
X66728230Y-57495668D01*
X66669281Y-57559703D01*
X66571030Y-57666433D01*
X66444089Y-57860732D01*
X66350856Y-58073280D01*
X66293880Y-58298272D01*
X66293878Y-58298283D01*
X66274714Y-58529574D01*
X66274714Y-58529587D01*
X66293878Y-58760878D01*
X66293880Y-58760889D01*
X66350856Y-58985881D01*
X66444089Y-59198429D01*
X66571030Y-59392728D01*
X66571033Y-59392732D01*
X66571035Y-59392734D01*
X66728230Y-59563494D01*
X66728233Y-59563496D01*
X66728236Y-59563499D01*
X66905832Y-59701728D01*
X66946645Y-59758438D01*
X66950320Y-59828211D01*
X66915688Y-59888894D01*
X66905832Y-59897434D01*
X66728236Y-60035662D01*
X66728233Y-60035665D01*
X66571030Y-60206433D01*
X66444089Y-60400732D01*
X66350856Y-60613280D01*
X66293880Y-60838272D01*
X66293878Y-60838283D01*
X66274714Y-61069574D01*
X66274714Y-61069587D01*
X66293878Y-61300878D01*
X66293880Y-61300889D01*
X66350856Y-61525881D01*
X66444089Y-61738429D01*
X66571030Y-61932728D01*
X66571033Y-61932732D01*
X66571035Y-61932734D01*
X66728230Y-62103494D01*
X66728233Y-62103496D01*
X66728236Y-62103499D01*
X66905832Y-62241728D01*
X66946645Y-62298438D01*
X66950320Y-62368211D01*
X66915688Y-62428894D01*
X66905832Y-62437434D01*
X66728236Y-62575662D01*
X66728233Y-62575665D01*
X66571030Y-62746433D01*
X66444089Y-62940732D01*
X66350856Y-63153280D01*
X66293880Y-63378272D01*
X66293878Y-63378283D01*
X66274714Y-63609574D01*
X66274714Y-63609587D01*
X66293878Y-63840878D01*
X66293880Y-63840889D01*
X66350856Y-64065881D01*
X66444089Y-64278429D01*
X66571030Y-64472728D01*
X66571033Y-64472732D01*
X66571035Y-64472734D01*
X66728230Y-64643494D01*
X66728233Y-64643496D01*
X66728236Y-64643499D01*
X66905832Y-64781728D01*
X66946645Y-64838438D01*
X66950320Y-64908211D01*
X66915688Y-64968894D01*
X66905832Y-64977434D01*
X66728236Y-65115662D01*
X66728233Y-65115665D01*
X66571030Y-65286433D01*
X66444089Y-65480732D01*
X66350856Y-65693280D01*
X66293880Y-65918272D01*
X66293878Y-65918283D01*
X66274714Y-66149574D01*
X66274714Y-66149587D01*
X66293878Y-66380878D01*
X66293880Y-66380889D01*
X66350856Y-66605881D01*
X66444089Y-66818429D01*
X66571030Y-67012728D01*
X66571033Y-67012732D01*
X66571035Y-67012734D01*
X66728230Y-67183494D01*
X66728233Y-67183496D01*
X66728236Y-67183499D01*
X66905832Y-67321728D01*
X66946645Y-67378438D01*
X66950320Y-67448211D01*
X66915688Y-67508894D01*
X66905832Y-67517434D01*
X66728236Y-67655662D01*
X66728233Y-67655665D01*
X66571030Y-67826433D01*
X66444089Y-68020732D01*
X66350856Y-68233280D01*
X66293880Y-68458272D01*
X66293878Y-68458283D01*
X66274714Y-68689574D01*
X66274714Y-68689587D01*
X66293878Y-68920878D01*
X66293880Y-68920889D01*
X66350856Y-69145881D01*
X66444089Y-69358429D01*
X66571030Y-69552728D01*
X66571033Y-69552732D01*
X66571035Y-69552734D01*
X66728230Y-69723494D01*
X66728233Y-69723496D01*
X66728236Y-69723499D01*
X66905832Y-69861728D01*
X66946645Y-69918438D01*
X66950320Y-69988211D01*
X66915688Y-70048894D01*
X66905832Y-70057434D01*
X66728236Y-70195662D01*
X66728233Y-70195665D01*
X66571030Y-70366433D01*
X66444089Y-70560732D01*
X66350856Y-70773280D01*
X66293880Y-70998272D01*
X66293878Y-70998283D01*
X66274714Y-71229574D01*
X66274714Y-71229587D01*
X66293878Y-71460878D01*
X66293880Y-71460889D01*
X66350856Y-71685881D01*
X66444089Y-71898429D01*
X66571030Y-72092728D01*
X66571033Y-72092732D01*
X66571035Y-72092734D01*
X66728230Y-72263494D01*
X66905833Y-72401727D01*
X66906239Y-72402043D01*
X66947052Y-72458754D01*
X66950727Y-72528527D01*
X66916096Y-72589210D01*
X66906239Y-72597751D01*
X66881215Y-72617227D01*
X66881214Y-72617228D01*
X67550605Y-73286618D01*
X67487021Y-73303656D01*
X67373007Y-73369482D01*
X67279915Y-73462574D01*
X67214089Y-73576588D01*
X67197051Y-73640172D01*
X66528825Y-72971946D01*
X66444530Y-73100971D01*
X66351331Y-73313445D01*
X66294375Y-73538362D01*
X66275216Y-73769575D01*
X66275216Y-73769586D01*
X66294375Y-74000799D01*
X66351331Y-74225716D01*
X66444529Y-74438187D01*
X66528826Y-74567214D01*
X67197051Y-73898989D01*
X67214089Y-73962574D01*
X67279915Y-74076588D01*
X67373007Y-74169680D01*
X67487021Y-74235506D01*
X67550604Y-74252543D01*
X66881215Y-74921932D01*
X66906647Y-74941726D01*
X66947460Y-74998437D01*
X66951135Y-75068210D01*
X66916504Y-75128893D01*
X66906646Y-75137434D01*
X66881215Y-75157227D01*
X66881214Y-75157228D01*
X67550605Y-75826618D01*
X67487021Y-75843656D01*
X67373007Y-75909482D01*
X67279915Y-76002574D01*
X67214089Y-76116588D01*
X67197051Y-76180172D01*
X66528825Y-75511946D01*
X66444530Y-75640971D01*
X66351331Y-75853445D01*
X66294375Y-76078362D01*
X66275216Y-76309575D01*
X66275216Y-76309586D01*
X66294375Y-76540799D01*
X66351331Y-76765716D01*
X66444529Y-76978187D01*
X66528826Y-77107214D01*
X67197051Y-76438989D01*
X67214089Y-76502574D01*
X67279915Y-76616588D01*
X67373007Y-76709680D01*
X67487021Y-76775506D01*
X67550604Y-76792543D01*
X66881215Y-77461932D01*
X66906647Y-77481726D01*
X66947460Y-77538437D01*
X66951135Y-77608210D01*
X66916504Y-77668893D01*
X66906646Y-77677434D01*
X66881215Y-77697227D01*
X66881214Y-77697228D01*
X67550605Y-78366618D01*
X67487021Y-78383656D01*
X67373007Y-78449482D01*
X67279915Y-78542574D01*
X67214089Y-78656588D01*
X67197051Y-78720171D01*
X66528825Y-78051946D01*
X66444530Y-78180971D01*
X66351331Y-78393445D01*
X66294375Y-78618362D01*
X66275584Y-78845127D01*
X66250431Y-78910312D01*
X66194029Y-78951550D01*
X66140228Y-78958326D01*
X66131091Y-78957454D01*
X66131089Y-78957454D01*
X65727343Y-78957454D01*
X65486192Y-78980481D01*
X65325421Y-78995833D01*
X65325409Y-78995835D01*
X64928986Y-79072239D01*
X64928969Y-79072243D01*
X64541579Y-79185992D01*
X64166767Y-79336044D01*
X64166762Y-79336046D01*
X63881320Y-79483202D01*
X63812713Y-79496424D01*
X63747848Y-79470456D01*
X63707320Y-79413542D01*
X63700500Y-79372986D01*
X63700500Y-42017593D01*
X63720185Y-41950554D01*
X63772989Y-41904799D01*
X63842147Y-41894855D01*
X63881316Y-41907375D01*
G37*
%TD.AperFunction*%
%TA.AperFunction,Conductor*%
G36*
X68831199Y-77107213D02*
G01*
X68845905Y-77084706D01*
X68899051Y-77039349D01*
X68968282Y-77029925D01*
X69031618Y-77059427D01*
X69053522Y-77084704D01*
X69111035Y-77172734D01*
X69268230Y-77343494D01*
X69268233Y-77343496D01*
X69268236Y-77343499D01*
X69445832Y-77481728D01*
X69486645Y-77538438D01*
X69490320Y-77608211D01*
X69455688Y-77668894D01*
X69445832Y-77677434D01*
X69268236Y-77815662D01*
X69268233Y-77815665D01*
X69111029Y-77986435D01*
X69053523Y-78074455D01*
X69000377Y-78119811D01*
X68931146Y-78129235D01*
X68867810Y-78099733D01*
X68845906Y-78074455D01*
X68831200Y-78051946D01*
X68162976Y-78720170D01*
X68145939Y-78656588D01*
X68080113Y-78542574D01*
X67987021Y-78449482D01*
X67873007Y-78383656D01*
X67809423Y-78366618D01*
X68478811Y-77697228D01*
X68478811Y-77697227D01*
X68453381Y-77677434D01*
X68412569Y-77620724D01*
X68408894Y-77550951D01*
X68443526Y-77490268D01*
X68453380Y-77481729D01*
X68478811Y-77461933D01*
X68478812Y-77461931D01*
X67809424Y-76792543D01*
X67873007Y-76775506D01*
X67987021Y-76709680D01*
X68080113Y-76616588D01*
X68145939Y-76502574D01*
X68162976Y-76438990D01*
X68831199Y-77107213D01*
G37*
%TD.AperFunction*%
%TA.AperFunction,Conductor*%
G36*
X68831199Y-74567213D02*
G01*
X68845905Y-74544706D01*
X68899051Y-74499349D01*
X68968282Y-74489925D01*
X69031618Y-74519427D01*
X69053522Y-74544704D01*
X69111035Y-74632734D01*
X69268230Y-74803494D01*
X69268233Y-74803496D01*
X69268236Y-74803499D01*
X69445832Y-74941728D01*
X69486645Y-74998438D01*
X69490320Y-75068211D01*
X69455688Y-75128894D01*
X69445832Y-75137434D01*
X69268236Y-75275662D01*
X69268233Y-75275665D01*
X69111029Y-75446435D01*
X69053523Y-75534455D01*
X69000377Y-75579811D01*
X68931146Y-75589235D01*
X68867810Y-75559733D01*
X68845906Y-75534455D01*
X68831200Y-75511946D01*
X68162976Y-76180170D01*
X68145939Y-76116588D01*
X68080113Y-76002574D01*
X67987021Y-75909482D01*
X67873007Y-75843656D01*
X67809423Y-75826618D01*
X68478811Y-75157228D01*
X68478811Y-75157227D01*
X68453381Y-75137434D01*
X68412569Y-75080724D01*
X68408894Y-75010951D01*
X68443526Y-74950268D01*
X68453380Y-74941729D01*
X68478811Y-74921933D01*
X68478812Y-74921931D01*
X67809424Y-74252543D01*
X67873007Y-74235506D01*
X67987021Y-74169680D01*
X68080113Y-74076588D01*
X68145939Y-73962574D01*
X68162976Y-73898990D01*
X68831199Y-74567213D01*
G37*
%TD.AperFunction*%
%TA.AperFunction,Conductor*%
G36*
X69031918Y-71979885D02*
G01*
X69053823Y-72005164D01*
X69111030Y-72092728D01*
X69111033Y-72092732D01*
X69111035Y-72092734D01*
X69268230Y-72263494D01*
X69268233Y-72263496D01*
X69268236Y-72263499D01*
X69445832Y-72401728D01*
X69486645Y-72458438D01*
X69490320Y-72528211D01*
X69455688Y-72588894D01*
X69445832Y-72597434D01*
X69268236Y-72735662D01*
X69268233Y-72735665D01*
X69111029Y-72906435D01*
X69053523Y-72994455D01*
X69000377Y-73039811D01*
X68931146Y-73049235D01*
X68867810Y-73019733D01*
X68845906Y-72994455D01*
X68831200Y-72971946D01*
X68162976Y-73640170D01*
X68145939Y-73576588D01*
X68080113Y-73462574D01*
X67987021Y-73369482D01*
X67873007Y-73303656D01*
X67809423Y-73286618D01*
X68478811Y-72617228D01*
X68478811Y-72617227D01*
X68453787Y-72597750D01*
X68412975Y-72541040D01*
X68409300Y-72471267D01*
X68443932Y-72410584D01*
X68453774Y-72402054D01*
X68631798Y-72263494D01*
X68788993Y-72092734D01*
X68846205Y-72005163D01*
X68899351Y-71959807D01*
X68968582Y-71950383D01*
X69031918Y-71979885D01*
G37*
%TD.AperFunction*%
%TD*%
M02*
