%TF.GenerationSoftware,KiCad,Pcbnew,8.0.5*%
%TF.CreationDate,2024-09-26T19:22:18+05:30*%
%TF.ProjectId,AirOwl_v1,4169724f-776c-45f7-9631-2e6b69636164,rev?*%
%TF.SameCoordinates,Original*%
%TF.FileFunction,Legend,Bot*%
%TF.FilePolarity,Positive*%
%FSLAX46Y46*%
G04 Gerber Fmt 4.6, Leading zero omitted, Abs format (unit mm)*
G04 Created by KiCad (PCBNEW 8.0.5) date 2024-09-26 19:22:18*
%MOMM*%
%LPD*%
G01*
G04 APERTURE LIST*
G04 Aperture macros list*
%AMRoundRect*
0 Rectangle with rounded corners*
0 $1 Rounding radius*
0 $2 $3 $4 $5 $6 $7 $8 $9 X,Y pos of 4 corners*
0 Add a 4 corners polygon primitive as box body*
4,1,4,$2,$3,$4,$5,$6,$7,$8,$9,$2,$3,0*
0 Add four circle primitives for the rounded corners*
1,1,$1+$1,$2,$3*
1,1,$1+$1,$4,$5*
1,1,$1+$1,$6,$7*
1,1,$1+$1,$8,$9*
0 Add four rect primitives between the rounded corners*
20,1,$1+$1,$2,$3,$4,$5,0*
20,1,$1+$1,$4,$5,$6,$7,0*
20,1,$1+$1,$6,$7,$8,$9,0*
20,1,$1+$1,$8,$9,$2,$3,0*%
%AMFreePoly0*
4,1,19,0.500000,-0.750000,0.000000,-0.750000,0.000000,-0.744911,-0.071157,-0.744911,-0.207708,-0.704816,-0.327430,-0.627875,-0.420627,-0.520320,-0.479746,-0.390866,-0.500000,-0.250000,-0.500000,0.250000,-0.479746,0.390866,-0.420627,0.520320,-0.327430,0.627875,-0.207708,0.704816,-0.071157,0.744911,0.000000,0.744911,0.000000,0.750000,0.500000,0.750000,0.500000,-0.750000,0.500000,-0.750000,
$1*%
%AMFreePoly1*
4,1,19,0.000000,0.744911,0.071157,0.744911,0.207708,0.704816,0.327430,0.627875,0.420627,0.520320,0.479746,0.390866,0.500000,0.250000,0.500000,-0.250000,0.479746,-0.390866,0.420627,-0.520320,0.327430,-0.627875,0.207708,-0.704816,0.071157,-0.744911,0.000000,-0.744911,0.000000,-0.750000,-0.500000,-0.750000,-0.500000,0.750000,0.000000,0.750000,0.000000,0.744911,0.000000,0.744911,
$1*%
G04 Aperture macros list end*
%ADD10C,0.100000*%
%ADD11C,0.150000*%
%ADD12C,0.120000*%
%ADD13C,0.000000*%
%ADD14C,0.010000*%
%ADD15FreePoly0,90.000000*%
%ADD16FreePoly1,90.000000*%
%ADD17R,1.700000X1.700000*%
%ADD18O,1.700000X1.700000*%
%ADD19O,1.152400X1.852400*%
%ADD20O,0.750000X0.750000*%
%ADD21O,1.500000X2.800000*%
%ADD22RoundRect,0.250000X-0.650000X1.000000X-0.650000X-1.000000X0.650000X-1.000000X0.650000X1.000000X0*%
%ADD23C,1.800000*%
%ADD24RoundRect,0.250000X-0.625000X0.350000X-0.625000X-0.350000X0.625000X-0.350000X0.625000X0.350000X0*%
%ADD25O,1.750000X1.200000*%
G04 APERTURE END LIST*
D10*
G36*
X64798496Y-115622419D02*
G01*
X64618514Y-115622419D01*
X64494554Y-115581099D01*
X64413398Y-115499942D01*
X64371863Y-115416872D01*
X64327068Y-115237692D01*
X64327068Y-115107145D01*
X64371863Y-114927965D01*
X64413399Y-114844893D01*
X64494552Y-114763739D01*
X64618514Y-114722419D01*
X64798496Y-114722419D01*
X64798496Y-115622419D01*
G37*
G36*
X67104845Y-115833530D02*
G01*
X64115957Y-115833530D01*
X64115957Y-115100990D01*
X64227068Y-115100990D01*
X64227068Y-115243847D01*
X64228263Y-115249856D01*
X64228561Y-115255974D01*
X64276180Y-115446450D01*
X64278519Y-115451402D01*
X64279966Y-115456684D01*
X64327584Y-115551921D01*
X64332495Y-115558249D01*
X64336950Y-115564916D01*
X64432189Y-115660155D01*
X64434270Y-115661545D01*
X64434784Y-115662573D01*
X64441749Y-115666543D01*
X64448410Y-115670994D01*
X64449558Y-115670994D01*
X64451733Y-115672234D01*
X64594589Y-115719853D01*
X64602539Y-115720855D01*
X64610401Y-115722419D01*
X64848496Y-115722419D01*
X64867630Y-115718613D01*
X64894690Y-115691553D01*
X64898496Y-115672419D01*
X64898496Y-114672419D01*
X65274687Y-114672419D01*
X65274687Y-115672419D01*
X65278493Y-115691553D01*
X65283347Y-115696407D01*
X65285155Y-115703034D01*
X65296399Y-115709459D01*
X65305553Y-115718613D01*
X65312419Y-115718613D01*
X65318381Y-115722020D01*
X65330874Y-115718613D01*
X65343821Y-115718613D01*
X65348675Y-115713758D01*
X65355302Y-115711951D01*
X65368099Y-115697226D01*
X65846115Y-114860697D01*
X65846115Y-115672419D01*
X65849921Y-115691553D01*
X65876981Y-115718613D01*
X65915249Y-115718613D01*
X65942309Y-115691553D01*
X65946115Y-115672419D01*
X65946115Y-115243847D01*
X66274687Y-115243847D01*
X66274687Y-115577180D01*
X66278493Y-115596314D01*
X66289331Y-115612535D01*
X66336950Y-115660155D01*
X66339032Y-115661546D01*
X66339546Y-115662573D01*
X66346504Y-115666539D01*
X66353171Y-115670994D01*
X66354320Y-115670994D01*
X66356495Y-115672234D01*
X66499351Y-115719853D01*
X66507301Y-115720855D01*
X66515163Y-115722419D01*
X66610401Y-115722419D01*
X66618263Y-115720855D01*
X66626212Y-115719853D01*
X66769069Y-115672234D01*
X66771244Y-115670994D01*
X66772393Y-115670994D01*
X66779063Y-115666536D01*
X66786017Y-115662573D01*
X66786529Y-115661547D01*
X66788614Y-115660155D01*
X66883852Y-115564916D01*
X66888305Y-115558250D01*
X66893217Y-115551922D01*
X66940836Y-115456684D01*
X66942282Y-115451402D01*
X66944622Y-115446450D01*
X66992241Y-115255974D01*
X66992538Y-115249856D01*
X66993734Y-115243847D01*
X66993734Y-115100990D01*
X66992538Y-115094980D01*
X66992241Y-115088863D01*
X66944622Y-114898387D01*
X66942282Y-114893434D01*
X66940836Y-114888153D01*
X66893217Y-114792915D01*
X66888301Y-114786580D01*
X66883851Y-114779921D01*
X66788613Y-114684683D01*
X66786530Y-114683291D01*
X66786017Y-114682265D01*
X66779056Y-114678297D01*
X66772392Y-114673844D01*
X66771244Y-114673844D01*
X66769069Y-114672604D01*
X66626212Y-114624985D01*
X66618263Y-114623982D01*
X66610401Y-114622419D01*
X66467544Y-114622419D01*
X66465087Y-114622907D01*
X66463999Y-114622545D01*
X66456271Y-114624661D01*
X66448410Y-114626225D01*
X66447598Y-114627036D01*
X66445183Y-114627698D01*
X66349945Y-114675317D01*
X66334533Y-114687278D01*
X66322432Y-114723583D01*
X66339546Y-114757811D01*
X66375851Y-114769912D01*
X66394667Y-114764759D01*
X66479348Y-114722419D01*
X66602288Y-114722419D01*
X66726249Y-114763739D01*
X66807402Y-114844892D01*
X66848939Y-114927966D01*
X66893734Y-115107145D01*
X66893734Y-115237692D01*
X66848939Y-115416870D01*
X66807402Y-115499944D01*
X66726248Y-115581098D01*
X66602288Y-115622419D01*
X66523276Y-115622419D01*
X66399316Y-115581099D01*
X66374687Y-115556469D01*
X66374687Y-115293847D01*
X66515163Y-115293847D01*
X66534297Y-115290041D01*
X66561357Y-115262981D01*
X66561357Y-115224713D01*
X66534297Y-115197653D01*
X66515163Y-115193847D01*
X66324687Y-115193847D01*
X66305553Y-115197653D01*
X66278493Y-115224713D01*
X66274687Y-115243847D01*
X65946115Y-115243847D01*
X65946115Y-114672419D01*
X65942309Y-114653285D01*
X65937454Y-114648430D01*
X65935647Y-114641804D01*
X65924402Y-114635378D01*
X65915249Y-114626225D01*
X65908383Y-114626225D01*
X65902421Y-114622818D01*
X65889929Y-114626225D01*
X65876981Y-114626225D01*
X65872125Y-114631080D01*
X65865501Y-114632887D01*
X65852703Y-114647612D01*
X65374687Y-115484140D01*
X65374687Y-114672419D01*
X65370881Y-114653285D01*
X65343821Y-114626225D01*
X65305553Y-114626225D01*
X65278493Y-114653285D01*
X65274687Y-114672419D01*
X64898496Y-114672419D01*
X64894690Y-114653285D01*
X64867630Y-114626225D01*
X64848496Y-114622419D01*
X64610401Y-114622419D01*
X64602539Y-114623982D01*
X64594589Y-114624985D01*
X64451733Y-114672604D01*
X64449558Y-114673844D01*
X64448410Y-114673844D01*
X64441749Y-114678294D01*
X64434784Y-114682265D01*
X64434270Y-114683292D01*
X64432189Y-114684683D01*
X64336951Y-114779921D01*
X64332499Y-114786582D01*
X64327584Y-114792916D01*
X64279966Y-114888153D01*
X64278519Y-114893434D01*
X64276180Y-114898387D01*
X64228561Y-115088863D01*
X64228263Y-115094980D01*
X64227068Y-115100990D01*
X64115957Y-115100990D01*
X64115957Y-114511308D01*
X67104845Y-114511308D01*
X67104845Y-115833530D01*
G37*
G36*
X67246115Y-106822419D02*
G01*
X66926967Y-106822419D01*
X66849544Y-106783708D01*
X66813398Y-106747561D01*
X66774687Y-106670139D01*
X66774687Y-106550888D01*
X66813398Y-106473464D01*
X66846934Y-106439929D01*
X66970895Y-106398609D01*
X67246115Y-106398609D01*
X67246115Y-106822419D01*
G37*
G36*
X67246115Y-106298609D02*
G01*
X66974586Y-106298609D01*
X66897162Y-106259897D01*
X66861017Y-106223753D01*
X66822306Y-106146330D01*
X66822306Y-106074698D01*
X66861017Y-105997274D01*
X66897162Y-105961130D01*
X66974586Y-105922419D01*
X67246115Y-105922419D01*
X67246115Y-106298609D01*
G37*
G36*
X66274363Y-106536704D02*
G01*
X65936915Y-106536704D01*
X66105639Y-106030532D01*
X66274363Y-106536704D01*
G37*
G36*
X67457226Y-107033530D02*
G01*
X64091191Y-107033530D01*
X64091191Y-105853285D01*
X64202302Y-105853285D01*
X64202302Y-105891553D01*
X64229362Y-105918613D01*
X64248496Y-105922419D01*
X64484210Y-105922419D01*
X64484210Y-106872419D01*
X64488016Y-106891553D01*
X64515076Y-106918613D01*
X64553344Y-106918613D01*
X64580404Y-106891553D01*
X64584210Y-106872419D01*
X64584210Y-105922419D01*
X64819924Y-105922419D01*
X64839058Y-105918613D01*
X64866118Y-105891553D01*
X64866118Y-105853285D01*
X64964207Y-105853285D01*
X64964207Y-105891553D01*
X64991267Y-105918613D01*
X65010401Y-105922419D01*
X65246115Y-105922419D01*
X65246115Y-106872419D01*
X65249921Y-106891553D01*
X65276981Y-106918613D01*
X65315249Y-106918613D01*
X65342309Y-106891553D01*
X65345410Y-106875963D01*
X65722432Y-106875963D01*
X65739546Y-106910192D01*
X65775850Y-106922293D01*
X65810079Y-106905179D01*
X65819740Y-106888230D01*
X65903582Y-106636704D01*
X66307696Y-106636704D01*
X66391538Y-106888230D01*
X66401199Y-106905178D01*
X66435428Y-106922293D01*
X66471732Y-106910191D01*
X66488846Y-106875963D01*
X66486406Y-106856607D01*
X66380565Y-106539085D01*
X66674687Y-106539085D01*
X66674687Y-106681942D01*
X66675175Y-106684398D01*
X66674813Y-106685487D01*
X66676929Y-106693214D01*
X66678493Y-106701076D01*
X66679304Y-106701887D01*
X66679966Y-106704303D01*
X66727584Y-106799540D01*
X66732495Y-106805868D01*
X66736950Y-106812535D01*
X66784569Y-106860155D01*
X66791235Y-106864609D01*
X66797564Y-106869521D01*
X66892802Y-106917140D01*
X66895217Y-106917801D01*
X66896029Y-106918613D01*
X66903890Y-106920176D01*
X66911618Y-106922293D01*
X66912706Y-106921930D01*
X66915163Y-106922419D01*
X67296115Y-106922419D01*
X67315249Y-106918613D01*
X67342309Y-106891553D01*
X67346115Y-106872419D01*
X67346115Y-105872419D01*
X67342309Y-105853285D01*
X67315249Y-105826225D01*
X67296115Y-105822419D01*
X66962782Y-105822419D01*
X66960325Y-105822907D01*
X66959237Y-105822545D01*
X66951509Y-105824661D01*
X66943648Y-105826225D01*
X66942836Y-105827036D01*
X66940421Y-105827698D01*
X66845183Y-105875317D01*
X66838854Y-105880228D01*
X66832188Y-105884683D01*
X66784570Y-105932302D01*
X66780118Y-105938963D01*
X66775203Y-105945297D01*
X66727585Y-106040534D01*
X66726923Y-106042949D01*
X66726112Y-106043761D01*
X66724548Y-106051622D01*
X66722432Y-106059350D01*
X66722794Y-106060438D01*
X66722306Y-106062895D01*
X66722306Y-106158133D01*
X66722794Y-106160589D01*
X66722432Y-106161678D01*
X66724548Y-106169405D01*
X66726112Y-106177267D01*
X66726923Y-106178078D01*
X66727585Y-106180494D01*
X66775203Y-106275731D01*
X66780118Y-106282064D01*
X66784570Y-106288726D01*
X66832188Y-106336345D01*
X66835274Y-106338407D01*
X66804114Y-106348794D01*
X66801939Y-106350034D01*
X66800790Y-106350034D01*
X66794123Y-106354488D01*
X66787165Y-106358455D01*
X66786651Y-106359481D01*
X66784569Y-106360873D01*
X66736951Y-106408492D01*
X66732499Y-106415153D01*
X66727584Y-106421487D01*
X66679966Y-106516724D01*
X66679304Y-106519139D01*
X66678493Y-106519951D01*
X66676929Y-106527812D01*
X66674813Y-106535540D01*
X66675175Y-106536628D01*
X66674687Y-106539085D01*
X66380565Y-106539085D01*
X66153073Y-105856608D01*
X66143412Y-105839659D01*
X66140069Y-105837987D01*
X66138399Y-105834647D01*
X66123362Y-105829634D01*
X66109183Y-105822545D01*
X66105638Y-105823726D01*
X66102095Y-105822545D01*
X66087921Y-105829632D01*
X66072879Y-105834646D01*
X66071207Y-105837989D01*
X66067866Y-105839660D01*
X66058205Y-105856608D01*
X65724872Y-106856608D01*
X65722432Y-106875963D01*
X65345410Y-106875963D01*
X65346115Y-106872419D01*
X65346115Y-105922419D01*
X65581829Y-105922419D01*
X65600963Y-105918613D01*
X65628023Y-105891553D01*
X65628023Y-105853285D01*
X65600963Y-105826225D01*
X65581829Y-105822419D01*
X65010401Y-105822419D01*
X64991267Y-105826225D01*
X64964207Y-105853285D01*
X64866118Y-105853285D01*
X64839058Y-105826225D01*
X64819924Y-105822419D01*
X64248496Y-105822419D01*
X64229362Y-105826225D01*
X64202302Y-105853285D01*
X64091191Y-105853285D01*
X64091191Y-105711308D01*
X67457226Y-105711308D01*
X67457226Y-107033530D01*
G37*
D11*
X90654819Y-86966666D02*
X91369104Y-86966666D01*
X91369104Y-86966666D02*
X91511961Y-86919047D01*
X91511961Y-86919047D02*
X91607200Y-86823809D01*
X91607200Y-86823809D02*
X91654819Y-86680952D01*
X91654819Y-86680952D02*
X91654819Y-86585714D01*
X91654819Y-87442857D02*
X90654819Y-87442857D01*
X90654819Y-87442857D02*
X90654819Y-87823809D01*
X90654819Y-87823809D02*
X90702438Y-87919047D01*
X90702438Y-87919047D02*
X90750057Y-87966666D01*
X90750057Y-87966666D02*
X90845295Y-88014285D01*
X90845295Y-88014285D02*
X90988152Y-88014285D01*
X90988152Y-88014285D02*
X91083390Y-87966666D01*
X91083390Y-87966666D02*
X91131009Y-87919047D01*
X91131009Y-87919047D02*
X91178628Y-87823809D01*
X91178628Y-87823809D02*
X91178628Y-87442857D01*
X91654819Y-88966666D02*
X91654819Y-88395238D01*
X91654819Y-88680952D02*
X90654819Y-88680952D01*
X90654819Y-88680952D02*
X90797676Y-88585714D01*
X90797676Y-88585714D02*
X90892914Y-88490476D01*
X90892914Y-88490476D02*
X90940533Y-88395238D01*
X88258333Y-101040819D02*
X88258333Y-101755104D01*
X88258333Y-101755104D02*
X88305952Y-101897961D01*
X88305952Y-101897961D02*
X88401190Y-101993200D01*
X88401190Y-101993200D02*
X88544047Y-102040819D01*
X88544047Y-102040819D02*
X88639285Y-102040819D01*
X87353571Y-101374152D02*
X87353571Y-102040819D01*
X87591666Y-100993200D02*
X87829761Y-101707485D01*
X87829761Y-101707485D02*
X87210714Y-101707485D01*
D10*
X93133333Y-90557419D02*
X93133333Y-91271704D01*
X93133333Y-91271704D02*
X93180952Y-91414561D01*
X93180952Y-91414561D02*
X93276190Y-91509800D01*
X93276190Y-91509800D02*
X93419047Y-91557419D01*
X93419047Y-91557419D02*
X93514285Y-91557419D01*
X92133333Y-91557419D02*
X92704761Y-91557419D01*
X92419047Y-91557419D02*
X92419047Y-90557419D01*
X92419047Y-90557419D02*
X92514285Y-90700276D01*
X92514285Y-90700276D02*
X92609523Y-90795514D01*
X92609523Y-90795514D02*
X92704761Y-90843133D01*
D11*
X84154819Y-87061905D02*
X83154819Y-87061905D01*
X83154819Y-87061905D02*
X83154819Y-87300000D01*
X83154819Y-87300000D02*
X83202438Y-87442857D01*
X83202438Y-87442857D02*
X83297676Y-87538095D01*
X83297676Y-87538095D02*
X83392914Y-87585714D01*
X83392914Y-87585714D02*
X83583390Y-87633333D01*
X83583390Y-87633333D02*
X83726247Y-87633333D01*
X83726247Y-87633333D02*
X83916723Y-87585714D01*
X83916723Y-87585714D02*
X84011961Y-87538095D01*
X84011961Y-87538095D02*
X84107200Y-87442857D01*
X84107200Y-87442857D02*
X84154819Y-87300000D01*
X84154819Y-87300000D02*
X84154819Y-87061905D01*
X83250057Y-88014286D02*
X83202438Y-88061905D01*
X83202438Y-88061905D02*
X83154819Y-88157143D01*
X83154819Y-88157143D02*
X83154819Y-88395238D01*
X83154819Y-88395238D02*
X83202438Y-88490476D01*
X83202438Y-88490476D02*
X83250057Y-88538095D01*
X83250057Y-88538095D02*
X83345295Y-88585714D01*
X83345295Y-88585714D02*
X83440533Y-88585714D01*
X83440533Y-88585714D02*
X83583390Y-88538095D01*
X83583390Y-88538095D02*
X84154819Y-87966667D01*
X84154819Y-87966667D02*
X84154819Y-88585714D01*
D10*
X65238095Y-35112180D02*
X65238095Y-34302657D01*
X65238095Y-34302657D02*
X65285714Y-34207419D01*
X65285714Y-34207419D02*
X65333333Y-34159800D01*
X65333333Y-34159800D02*
X65428571Y-34112180D01*
X65428571Y-34112180D02*
X65619047Y-34112180D01*
X65619047Y-34112180D02*
X65714285Y-34159800D01*
X65714285Y-34159800D02*
X65761904Y-34207419D01*
X65761904Y-34207419D02*
X65809523Y-34302657D01*
X65809523Y-34302657D02*
X65809523Y-35112180D01*
X66809523Y-34112180D02*
X66238095Y-34112180D01*
X66523809Y-34112180D02*
X66523809Y-35112180D01*
X66523809Y-35112180D02*
X66428571Y-34969323D01*
X66428571Y-34969323D02*
X66333333Y-34874085D01*
X66333333Y-34874085D02*
X66238095Y-34826466D01*
D11*
X68154819Y-105966666D02*
X68869104Y-105966666D01*
X68869104Y-105966666D02*
X69011961Y-105919047D01*
X69011961Y-105919047D02*
X69107200Y-105823809D01*
X69107200Y-105823809D02*
X69154819Y-105680952D01*
X69154819Y-105680952D02*
X69154819Y-105585714D01*
X68154819Y-106347619D02*
X68154819Y-106966666D01*
X68154819Y-106966666D02*
X68535771Y-106633333D01*
X68535771Y-106633333D02*
X68535771Y-106776190D01*
X68535771Y-106776190D02*
X68583390Y-106871428D01*
X68583390Y-106871428D02*
X68631009Y-106919047D01*
X68631009Y-106919047D02*
X68726247Y-106966666D01*
X68726247Y-106966666D02*
X68964342Y-106966666D01*
X68964342Y-106966666D02*
X69059580Y-106919047D01*
X69059580Y-106919047D02*
X69107200Y-106871428D01*
X69107200Y-106871428D02*
X69154819Y-106776190D01*
X69154819Y-106776190D02*
X69154819Y-106490476D01*
X69154819Y-106490476D02*
X69107200Y-106395238D01*
X69107200Y-106395238D02*
X69059580Y-106347619D01*
D12*
%TO.C,JP1*%
X89700000Y-89200000D02*
X89100000Y-89200000D01*
X90400000Y-87100000D02*
X90400000Y-88500000D01*
X88400000Y-88500000D02*
X88400000Y-87100000D01*
X89100000Y-86400000D02*
X89700000Y-86400000D01*
X90400000Y-88500000D02*
G75*
G02*
X89700000Y-89200000I-699999J-1D01*
G01*
X89100000Y-89200000D02*
G75*
G02*
X88400000Y-88500000I-1J699999D01*
G01*
X89700000Y-86400000D02*
G75*
G02*
X90400000Y-87100000I0J-700000D01*
G01*
X88400000Y-87100000D02*
G75*
G02*
X89100000Y-86400000I700000J0D01*
G01*
D13*
%TO.C,G\u002A\u002A\u002A*%
G36*
X82753670Y-41223073D02*
G01*
X82914657Y-41351252D01*
X83130327Y-41555927D01*
X83412859Y-41843306D01*
X83459490Y-41891349D01*
X83790511Y-42218973D01*
X84081084Y-42473179D01*
X84359886Y-42672318D01*
X84655591Y-42834738D01*
X84996875Y-42978788D01*
X85412412Y-43122818D01*
X85834678Y-43252011D01*
X86224257Y-43350110D01*
X86603353Y-43418437D01*
X87004193Y-43461571D01*
X87459001Y-43484093D01*
X88000000Y-43490582D01*
X88530333Y-43484386D01*
X88986663Y-43462259D01*
X89388329Y-43419619D01*
X89767555Y-43351885D01*
X90156566Y-43254478D01*
X90587588Y-43122818D01*
X90645764Y-43103796D01*
X91050226Y-42960785D01*
X91384095Y-42815411D01*
X91676045Y-42649326D01*
X91954753Y-42444179D01*
X92248893Y-42181622D01*
X92587141Y-41843306D01*
X92843955Y-41581515D01*
X93065927Y-41368636D01*
X93231968Y-41232889D01*
X93354258Y-41168066D01*
X93444981Y-41167957D01*
X93516320Y-41226354D01*
X93580455Y-41337048D01*
X93589296Y-41358071D01*
X93618980Y-41459022D01*
X93654410Y-41621722D01*
X93696306Y-41851299D01*
X93745388Y-42152885D01*
X93802374Y-42531610D01*
X93867985Y-42992605D01*
X93942939Y-43540999D01*
X94027957Y-44181924D01*
X94123757Y-44920510D01*
X94231059Y-45761887D01*
X94350583Y-46711186D01*
X94483048Y-47773537D01*
X94561722Y-48405726D01*
X94652552Y-49132717D01*
X94743169Y-49855188D01*
X94831520Y-50556916D01*
X94915555Y-51221679D01*
X94993223Y-51833257D01*
X95062472Y-52375425D01*
X95121252Y-52831964D01*
X95167510Y-53186651D01*
X95241315Y-53775951D01*
X95340500Y-54704677D01*
X95409488Y-55558699D01*
X95447684Y-56328086D01*
X95454497Y-57002908D01*
X95429334Y-57573235D01*
X95407828Y-57805113D01*
X95370570Y-58145177D01*
X95322285Y-58546418D01*
X95265308Y-58992541D01*
X95201973Y-59467252D01*
X95134616Y-59954255D01*
X95065571Y-60437257D01*
X94997172Y-60899963D01*
X94931754Y-61326078D01*
X94871651Y-61699307D01*
X94819198Y-62003357D01*
X94776729Y-62221932D01*
X94746579Y-62338738D01*
X94730928Y-62373636D01*
X94674092Y-62420914D01*
X94602268Y-62368732D01*
X94510730Y-62211795D01*
X94394750Y-61944812D01*
X94368270Y-61879328D01*
X94282394Y-61674928D01*
X94213923Y-61523621D01*
X94175753Y-61454285D01*
X94138816Y-61467684D01*
X94053186Y-61556701D01*
X93943674Y-61703665D01*
X93832475Y-61864598D01*
X93497038Y-62310648D01*
X93182145Y-62663963D01*
X92874591Y-62939810D01*
X92746172Y-63038172D01*
X92515970Y-63195333D01*
X92287717Y-63316964D01*
X92031414Y-63415656D01*
X91717066Y-63504001D01*
X91314674Y-63594590D01*
X91282449Y-63601986D01*
X91234273Y-63623819D01*
X91238864Y-63660967D01*
X91307944Y-63725846D01*
X91453233Y-63830874D01*
X91686454Y-63988471D01*
X91865531Y-64111458D01*
X92050753Y-64247014D01*
X92176851Y-64349560D01*
X92223419Y-64403329D01*
X92222904Y-64404372D01*
X92153547Y-64415061D01*
X91971286Y-64424766D01*
X91681668Y-64433414D01*
X91290237Y-64440932D01*
X90802539Y-64447248D01*
X90224121Y-64452287D01*
X89560528Y-64455977D01*
X88817306Y-64458244D01*
X88000000Y-64459017D01*
X87920896Y-64459010D01*
X87110257Y-64458095D01*
X86374217Y-64455692D01*
X85718323Y-64451873D01*
X85148120Y-64446712D01*
X84669155Y-64440282D01*
X84286972Y-64432655D01*
X84007119Y-64423905D01*
X83835140Y-64414106D01*
X83776581Y-64403329D01*
X83807469Y-64364096D01*
X83919940Y-64269657D01*
X84095435Y-64139193D01*
X84313547Y-63988471D01*
X84420393Y-63916810D01*
X84616204Y-63782233D01*
X84728881Y-63695140D01*
X84770146Y-63643114D01*
X84751721Y-63613736D01*
X84685326Y-63594590D01*
X84466323Y-63547120D01*
X84112783Y-63459254D01*
X83831919Y-63367182D01*
X83593734Y-63258311D01*
X83368230Y-63120051D01*
X83125409Y-62939810D01*
X83029226Y-62860952D01*
X82720796Y-62562522D01*
X82400898Y-62181849D01*
X82056326Y-61703665D01*
X81965995Y-61580309D01*
X81874278Y-61478757D01*
X81824248Y-61454285D01*
X81817000Y-61464347D01*
X81768657Y-61560583D01*
X81693775Y-61730365D01*
X81605250Y-61944812D01*
X81565550Y-62041684D01*
X81457830Y-62273208D01*
X81373053Y-62396363D01*
X81306492Y-62416442D01*
X81253421Y-62338738D01*
X81228170Y-62244260D01*
X81187247Y-62038630D01*
X81136020Y-61745299D01*
X81076825Y-61380561D01*
X81011995Y-60960712D01*
X80943866Y-60502045D01*
X80874771Y-60020855D01*
X80807046Y-59533437D01*
X80743024Y-59056086D01*
X80685041Y-58605095D01*
X80635430Y-58196760D01*
X80596527Y-57847375D01*
X80570666Y-57573235D01*
X80551693Y-57244032D01*
X80545793Y-56609732D01*
X80571520Y-55876907D01*
X80628283Y-55055495D01*
X80715488Y-54155431D01*
X80832542Y-53186651D01*
X80873151Y-52875653D01*
X80930658Y-52429613D01*
X80998868Y-51896135D01*
X81075734Y-51291412D01*
X81159207Y-50631632D01*
X81247240Y-49932986D01*
X81337785Y-49211664D01*
X81428794Y-48483856D01*
X81518219Y-47765753D01*
X81574310Y-47314996D01*
X81700976Y-46303102D01*
X81814978Y-45402015D01*
X81917050Y-44606513D01*
X82007922Y-43911378D01*
X82088326Y-43311387D01*
X82158995Y-42801323D01*
X82220660Y-42375964D01*
X82274054Y-42030090D01*
X82319907Y-41758482D01*
X82358952Y-41555919D01*
X82391921Y-41417181D01*
X82419545Y-41337048D01*
X82476971Y-41235414D01*
X82547009Y-41171363D01*
X82635181Y-41165179D01*
X82753670Y-41223073D01*
G37*
G36*
X87863037Y-70805386D02*
G01*
X87863037Y-71655944D01*
X87604704Y-71655944D01*
X87346370Y-71655944D01*
X87346370Y-70805386D01*
X87346370Y-69954828D01*
X87604704Y-69954828D01*
X87863037Y-69954828D01*
X87863037Y-70805386D01*
G37*
G36*
X79158198Y-69689757D02*
G01*
X79197856Y-69695780D01*
X79213037Y-69704663D01*
X79202692Y-69715632D01*
X79171370Y-69721341D01*
X79160260Y-69721554D01*
X79143001Y-69726095D01*
X79133884Y-69742185D01*
X79130317Y-69777092D01*
X79129704Y-69838084D01*
X79129704Y-69838198D01*
X79127494Y-69898059D01*
X79121587Y-69939402D01*
X79113037Y-69954828D01*
X79113021Y-69954828D01*
X79104475Y-69939352D01*
X79098573Y-69897971D01*
X79096370Y-69838084D01*
X79096295Y-69806955D01*
X79094674Y-69758596D01*
X79088931Y-69733053D01*
X79076472Y-69723058D01*
X79054704Y-69721341D01*
X79027300Y-69717200D01*
X79013037Y-69704663D01*
X79023659Y-69697132D01*
X79059771Y-69690518D01*
X79113037Y-69687986D01*
X79158198Y-69689757D01*
G37*
G36*
X86455428Y-72289710D02*
G01*
X86464390Y-72294632D01*
X86470891Y-72311273D01*
X86475302Y-72343959D01*
X86477995Y-72397017D01*
X86479338Y-72474772D01*
X86479704Y-72581551D01*
X86479702Y-72590007D01*
X86479281Y-72694627D01*
X86477855Y-72770525D01*
X86475056Y-72822026D01*
X86470511Y-72853456D01*
X86463850Y-72869142D01*
X86454704Y-72873409D01*
X86453980Y-72873392D01*
X86445018Y-72868470D01*
X86438517Y-72851830D01*
X86434105Y-72819143D01*
X86431413Y-72766086D01*
X86430069Y-72688330D01*
X86429704Y-72581551D01*
X86429705Y-72573095D01*
X86430127Y-72468475D01*
X86431552Y-72392577D01*
X86434352Y-72341076D01*
X86438897Y-72309646D01*
X86445557Y-72293960D01*
X86454704Y-72289693D01*
X86455428Y-72289710D01*
G37*
G36*
X87524663Y-72291018D02*
G01*
X87533481Y-72298146D01*
X87539520Y-72315669D01*
X87543304Y-72348179D01*
X87545357Y-72400268D01*
X87546205Y-72476528D01*
X87546370Y-72581551D01*
X87546219Y-72683341D01*
X87545405Y-72760551D01*
X87543404Y-72813425D01*
X87539691Y-72846556D01*
X87533742Y-72864536D01*
X87525032Y-72871956D01*
X87513037Y-72873409D01*
X87501412Y-72872084D01*
X87492594Y-72864956D01*
X87486555Y-72847433D01*
X87482771Y-72814923D01*
X87480717Y-72762834D01*
X87479870Y-72686574D01*
X87479704Y-72581551D01*
X87479855Y-72479761D01*
X87480669Y-72402552D01*
X87482671Y-72349677D01*
X87486384Y-72316546D01*
X87492333Y-72298566D01*
X87501042Y-72291146D01*
X87513037Y-72289693D01*
X87524663Y-72291018D01*
G37*
G36*
X89379704Y-72877592D02*
G01*
X89237653Y-72870131D01*
X89203698Y-72867982D01*
X89124101Y-72857537D01*
X89065489Y-72837717D01*
X89018862Y-72804538D01*
X88975218Y-72754019D01*
X88966918Y-72741403D01*
X88942506Y-72675647D01*
X88934333Y-72607898D01*
X89001983Y-72607898D01*
X89024693Y-72690907D01*
X89072082Y-72757335D01*
X89097778Y-72776759D01*
X89144561Y-72794390D01*
X89213265Y-72803486D01*
X89313037Y-72810708D01*
X89313037Y-72583556D01*
X89313037Y-72356403D01*
X89239122Y-72356403D01*
X89149404Y-72366213D01*
X89077143Y-72398592D01*
X89028728Y-72453965D01*
X89003654Y-72532708D01*
X89001983Y-72607898D01*
X88934333Y-72607898D01*
X88932739Y-72594685D01*
X88938212Y-72510610D01*
X88959523Y-72435518D01*
X88977927Y-72399592D01*
X89016318Y-72353031D01*
X89069067Y-72321811D01*
X89142316Y-72302835D01*
X89242204Y-72293008D01*
X89379704Y-72285510D01*
X89379704Y-72581551D01*
X89379704Y-72583556D01*
X89379704Y-72877592D01*
G37*
G36*
X78934042Y-69698524D02*
G01*
X78943243Y-69743678D01*
X78946370Y-69821407D01*
X78946315Y-69833342D01*
X78943758Y-69896623D01*
X78937958Y-69939224D01*
X78929704Y-69954828D01*
X78922392Y-69945264D01*
X78915305Y-69910455D01*
X78912260Y-69858931D01*
X78911484Y-69763035D01*
X78874219Y-69853553D01*
X78856498Y-69893117D01*
X78835065Y-69932317D01*
X78820048Y-69949709D01*
X78809867Y-69943850D01*
X78790995Y-69914308D01*
X78770590Y-69867531D01*
X78738037Y-69779713D01*
X78733000Y-69867270D01*
X78729721Y-69906331D01*
X78722188Y-69944609D01*
X78713409Y-69953155D01*
X78705062Y-69934070D01*
X78698823Y-69889454D01*
X78696370Y-69821407D01*
X78697166Y-69762311D01*
X78700845Y-69717071D01*
X78708543Y-69694270D01*
X78721370Y-69687986D01*
X78732952Y-69690323D01*
X78747393Y-69708833D01*
X78750558Y-69722873D01*
X78764515Y-69762125D01*
X78785632Y-69812177D01*
X78822848Y-69894674D01*
X78860505Y-69791330D01*
X78872730Y-69759471D01*
X78898513Y-69706325D01*
X78919041Y-69686041D01*
X78934042Y-69698524D01*
G37*
G36*
X88096370Y-72581551D02*
G01*
X88096219Y-72683341D01*
X88095405Y-72760551D01*
X88093404Y-72813425D01*
X88089691Y-72846556D01*
X88083742Y-72864536D01*
X88075032Y-72871956D01*
X88063037Y-72873409D01*
X88057037Y-72873213D01*
X88042316Y-72867811D01*
X88034081Y-72849804D01*
X88030491Y-72812280D01*
X88029704Y-72748327D01*
X88029704Y-72623245D01*
X87904704Y-72623245D01*
X87882203Y-72623193D01*
X87826998Y-72621752D01*
X87796118Y-72616950D01*
X87782656Y-72606944D01*
X87779704Y-72589890D01*
X87779900Y-72583886D01*
X87785299Y-72569155D01*
X87803294Y-72560915D01*
X87840793Y-72557323D01*
X87904704Y-72556535D01*
X88029704Y-72556535D01*
X88029704Y-72456469D01*
X88029704Y-72356403D01*
X87896370Y-72356403D01*
X87861216Y-72356281D01*
X87808205Y-72354606D01*
X87778642Y-72349627D01*
X87765821Y-72339667D01*
X87763037Y-72323048D01*
X87763051Y-72321262D01*
X87765922Y-72306677D01*
X87777990Y-72297435D01*
X87805287Y-72292329D01*
X87853848Y-72290151D01*
X87929704Y-72289693D01*
X88096370Y-72289693D01*
X88096370Y-72581551D01*
G37*
G36*
X80302336Y-72291361D02*
G01*
X80360507Y-72302552D01*
X80409023Y-72322958D01*
X80445346Y-72348785D01*
X80493980Y-72406109D01*
X80521156Y-72480982D01*
X80529642Y-72579280D01*
X80529317Y-72599969D01*
X80514124Y-72706074D01*
X80476277Y-72787899D01*
X80415839Y-72845288D01*
X80383697Y-72859843D01*
X80331023Y-72868660D01*
X80254704Y-72869169D01*
X80244855Y-72868812D01*
X80187138Y-72865500D01*
X80154241Y-72859340D01*
X80138644Y-72847815D01*
X80132824Y-72828410D01*
X80132742Y-72827829D01*
X80132287Y-72804453D01*
X80146109Y-72799007D01*
X80182824Y-72807969D01*
X80228288Y-72816902D01*
X80307350Y-72811658D01*
X80376156Y-72781727D01*
X80428044Y-72730665D01*
X80456349Y-72662028D01*
X80463238Y-72564087D01*
X80446276Y-72479223D01*
X80408053Y-72412640D01*
X80351492Y-72367754D01*
X80279522Y-72347987D01*
X80195067Y-72356755D01*
X80157155Y-72365587D01*
X80126989Y-72366104D01*
X80110960Y-72353520D01*
X80108440Y-72348839D01*
X80111263Y-72324580D01*
X80138973Y-72305995D01*
X80184660Y-72293791D01*
X80241417Y-72288677D01*
X80302336Y-72291361D01*
G37*
G36*
X79879704Y-72581551D02*
G01*
X79879704Y-72873409D01*
X79713037Y-72873409D01*
X79704111Y-72873407D01*
X79631236Y-72872832D01*
X79585057Y-72870417D01*
X79559542Y-72864954D01*
X79548658Y-72855235D01*
X79546370Y-72840054D01*
X79546861Y-72831260D01*
X79553555Y-72817998D01*
X79573457Y-72810603D01*
X79613271Y-72807395D01*
X79679704Y-72806699D01*
X79813037Y-72806699D01*
X79813037Y-72706633D01*
X79813037Y-72606568D01*
X79688037Y-72606568D01*
X79668265Y-72606526D01*
X79611904Y-72605137D01*
X79580167Y-72600441D01*
X79566173Y-72590641D01*
X79563037Y-72573943D01*
X79563064Y-72571835D01*
X79567545Y-72555492D01*
X79584548Y-72545578D01*
X79621011Y-72539938D01*
X79683870Y-72536418D01*
X79804704Y-72531518D01*
X79809741Y-72443961D01*
X79814779Y-72356403D01*
X79680575Y-72356403D01*
X79644126Y-72356272D01*
X79591331Y-72354574D01*
X79561896Y-72349579D01*
X79549138Y-72339624D01*
X79546370Y-72323048D01*
X79546384Y-72321262D01*
X79549256Y-72306677D01*
X79561323Y-72297435D01*
X79588621Y-72292329D01*
X79637181Y-72290151D01*
X79713037Y-72289693D01*
X79879704Y-72289693D01*
X79879704Y-72581551D01*
G37*
G36*
X83746370Y-72581551D02*
G01*
X83746370Y-72873409D01*
X83579704Y-72873409D01*
X83570778Y-72873407D01*
X83497902Y-72872832D01*
X83451724Y-72870417D01*
X83426209Y-72864954D01*
X83415325Y-72855235D01*
X83413037Y-72840054D01*
X83413528Y-72831260D01*
X83420222Y-72817998D01*
X83440124Y-72810603D01*
X83479938Y-72807395D01*
X83546370Y-72806699D01*
X83679704Y-72806699D01*
X83679704Y-72706633D01*
X83679704Y-72606568D01*
X83554704Y-72606568D01*
X83534932Y-72606526D01*
X83478570Y-72605137D01*
X83446834Y-72600441D01*
X83432839Y-72590641D01*
X83429704Y-72573943D01*
X83429730Y-72571835D01*
X83434212Y-72555492D01*
X83451215Y-72545578D01*
X83487678Y-72539938D01*
X83550537Y-72536418D01*
X83671370Y-72531518D01*
X83676408Y-72443961D01*
X83681446Y-72356403D01*
X83547241Y-72356403D01*
X83510793Y-72356272D01*
X83457998Y-72354574D01*
X83428563Y-72349579D01*
X83415805Y-72339624D01*
X83413037Y-72323048D01*
X83413051Y-72321262D01*
X83415922Y-72306677D01*
X83427990Y-72297435D01*
X83455287Y-72292329D01*
X83503848Y-72290151D01*
X83579704Y-72289693D01*
X83746370Y-72289693D01*
X83746370Y-72581551D01*
G37*
G36*
X88679704Y-72581551D02*
G01*
X88679704Y-72873409D01*
X88513037Y-72873409D01*
X88504111Y-72873407D01*
X88431236Y-72872832D01*
X88385057Y-72870417D01*
X88359542Y-72864954D01*
X88348658Y-72855235D01*
X88346370Y-72840054D01*
X88346861Y-72831260D01*
X88353555Y-72817998D01*
X88373457Y-72810603D01*
X88413271Y-72807395D01*
X88479704Y-72806699D01*
X88613037Y-72806699D01*
X88613037Y-72706633D01*
X88613037Y-72606568D01*
X88488037Y-72606568D01*
X88465536Y-72606515D01*
X88410331Y-72605075D01*
X88379452Y-72600273D01*
X88365990Y-72590266D01*
X88363037Y-72573212D01*
X88363233Y-72567208D01*
X88368632Y-72552477D01*
X88386627Y-72544237D01*
X88424126Y-72540645D01*
X88488037Y-72539857D01*
X88613037Y-72539857D01*
X88613037Y-72448130D01*
X88613037Y-72356403D01*
X88479704Y-72356403D01*
X88444549Y-72356281D01*
X88391539Y-72354606D01*
X88361975Y-72349627D01*
X88349154Y-72339667D01*
X88346370Y-72323048D01*
X88346384Y-72321262D01*
X88349256Y-72306677D01*
X88361323Y-72297435D01*
X88388621Y-72292329D01*
X88437181Y-72290151D01*
X88513037Y-72289693D01*
X88679704Y-72289693D01*
X88679704Y-72581551D01*
G37*
G36*
X89963037Y-72581551D02*
G01*
X89963037Y-72873409D01*
X89796370Y-72873409D01*
X89787444Y-72873407D01*
X89714569Y-72872832D01*
X89668391Y-72870417D01*
X89642876Y-72864954D01*
X89631991Y-72855235D01*
X89629704Y-72840054D01*
X89630194Y-72831260D01*
X89636888Y-72817998D01*
X89656790Y-72810603D01*
X89696605Y-72807395D01*
X89763037Y-72806699D01*
X89896370Y-72806699D01*
X89896370Y-72706633D01*
X89896370Y-72606568D01*
X89771370Y-72606568D01*
X89748870Y-72606515D01*
X89693665Y-72605075D01*
X89662785Y-72600273D01*
X89649323Y-72590266D01*
X89646370Y-72573212D01*
X89646567Y-72567208D01*
X89651965Y-72552477D01*
X89669960Y-72544237D01*
X89707460Y-72540645D01*
X89771370Y-72539857D01*
X89896370Y-72539857D01*
X89896370Y-72448130D01*
X89896370Y-72356403D01*
X89763037Y-72356403D01*
X89727883Y-72356281D01*
X89674872Y-72354606D01*
X89645308Y-72349627D01*
X89632487Y-72339667D01*
X89629704Y-72323048D01*
X89629717Y-72321262D01*
X89632589Y-72306677D01*
X89644657Y-72297435D01*
X89671954Y-72292329D01*
X89720514Y-72290151D01*
X89796370Y-72289693D01*
X89963037Y-72289693D01*
X89963037Y-72581551D01*
G37*
G36*
X82603824Y-72581551D02*
G01*
X82601371Y-72641656D01*
X82583998Y-72728077D01*
X82548077Y-72792733D01*
X82491395Y-72840729D01*
X82491089Y-72840915D01*
X82428255Y-72864495D01*
X82351262Y-72873331D01*
X82274664Y-72867162D01*
X82213013Y-72845726D01*
X82197175Y-72835360D01*
X82141459Y-72774773D01*
X82107714Y-72689846D01*
X82096370Y-72581551D01*
X82096661Y-72577917D01*
X82163063Y-72577917D01*
X82163543Y-72600422D01*
X82178619Y-72691569D01*
X82214387Y-72758171D01*
X82270235Y-72798960D01*
X82291126Y-72807419D01*
X82336084Y-72820344D01*
X82374790Y-72817548D01*
X82424279Y-72799042D01*
X82453701Y-72783641D01*
X82502029Y-72737383D01*
X82529404Y-72670707D01*
X82538037Y-72579338D01*
X82534868Y-72522719D01*
X82514235Y-72447714D01*
X82472458Y-72395064D01*
X82407279Y-72361003D01*
X82399874Y-72358646D01*
X82323613Y-72349953D01*
X82258439Y-72370519D01*
X82207715Y-72417360D01*
X82174803Y-72487488D01*
X82163063Y-72577917D01*
X82096661Y-72577917D01*
X82103658Y-72490495D01*
X82132291Y-72402515D01*
X82182676Y-72339777D01*
X82254874Y-72302213D01*
X82348942Y-72289755D01*
X82434098Y-72299096D01*
X82509090Y-72332296D01*
X82562047Y-72390064D01*
X82593462Y-72472962D01*
X82603613Y-72579338D01*
X82603824Y-72581551D01*
G37*
G36*
X86105385Y-72289705D02*
G01*
X86114353Y-72294570D01*
X86120863Y-72311185D01*
X86125284Y-72343871D01*
X86127986Y-72396948D01*
X86129336Y-72474734D01*
X86129704Y-72581551D01*
X86129325Y-72688177D01*
X86127942Y-72766276D01*
X86125195Y-72819568D01*
X86120725Y-72852334D01*
X86114171Y-72868854D01*
X86105174Y-72873409D01*
X86103539Y-72873315D01*
X86093804Y-72866253D01*
X86086785Y-72844636D01*
X86081880Y-72803764D01*
X86078488Y-72738938D01*
X86076007Y-72645458D01*
X86071370Y-72417506D01*
X85921370Y-72645119D01*
X85908049Y-72665321D01*
X85844662Y-72760027D01*
X85796751Y-72826003D01*
X85762151Y-72862590D01*
X85738696Y-72869126D01*
X85724223Y-72844951D01*
X85716565Y-72789403D01*
X85713558Y-72701824D01*
X85713037Y-72581551D01*
X85713182Y-72483129D01*
X85713981Y-72404904D01*
X85715953Y-72351192D01*
X85719613Y-72317403D01*
X85725477Y-72298950D01*
X85734063Y-72291242D01*
X85745887Y-72289693D01*
X85757826Y-72291188D01*
X85767651Y-72299661D01*
X85774218Y-72320400D01*
X85778429Y-72358677D01*
X85781184Y-72419765D01*
X85783387Y-72508934D01*
X85788037Y-72728174D01*
X85933941Y-72508934D01*
X85964632Y-72463626D01*
X86013663Y-72394667D01*
X86055836Y-72339520D01*
X86087442Y-72302943D01*
X86104774Y-72289693D01*
X86105385Y-72289705D01*
G37*
G36*
X85263833Y-72303688D02*
G01*
X85343831Y-72339790D01*
X85400860Y-72400062D01*
X85434994Y-72484574D01*
X85446308Y-72593395D01*
X85445392Y-72625528D01*
X85428802Y-72716473D01*
X85389656Y-72786469D01*
X85325690Y-72840144D01*
X85304082Y-72850533D01*
X85239451Y-72866938D01*
X85162036Y-72874010D01*
X85085238Y-72870996D01*
X85022455Y-72857144D01*
X85006837Y-72850477D01*
X84991692Y-72837825D01*
X84983577Y-72814811D01*
X84980308Y-72773773D01*
X84979704Y-72707046D01*
X84979704Y-72573212D01*
X85096370Y-72573212D01*
X85132895Y-72573577D01*
X85181506Y-72576858D01*
X85206176Y-72584637D01*
X85213037Y-72598229D01*
X85207705Y-72611295D01*
X85182109Y-72620567D01*
X85129704Y-72623245D01*
X85046370Y-72623245D01*
X85046370Y-72714216D01*
X85046370Y-72805187D01*
X85106312Y-72816440D01*
X85109584Y-72817026D01*
X85189880Y-72816756D01*
X85267833Y-72792395D01*
X85329946Y-72748069D01*
X85348229Y-72722973D01*
X85372351Y-72657134D01*
X85379869Y-72579990D01*
X85370274Y-72503543D01*
X85343055Y-72439791D01*
X85326651Y-72418351D01*
X85262995Y-72368795D01*
X85183141Y-72347557D01*
X85089259Y-72355359D01*
X85041609Y-72364389D01*
X85009918Y-72364226D01*
X84994120Y-72352760D01*
X84988174Y-72332256D01*
X85004995Y-72313126D01*
X85050667Y-72300244D01*
X85127288Y-72292662D01*
X85160791Y-72291685D01*
X85263833Y-72303688D01*
G37*
G36*
X84346370Y-72581551D02*
G01*
X84346016Y-72684390D01*
X84344658Y-72763777D01*
X84341940Y-72818120D01*
X84337511Y-72851671D01*
X84331016Y-72868684D01*
X84322101Y-72873409D01*
X84316054Y-72872187D01*
X84304537Y-72856508D01*
X84297269Y-72818431D01*
X84292934Y-72752497D01*
X84288037Y-72631584D01*
X84231000Y-72631584D01*
X84214036Y-72632074D01*
X84188573Y-72637973D01*
X84166221Y-72655367D01*
X84140610Y-72690178D01*
X84105365Y-72748327D01*
X84066400Y-72809713D01*
X84029557Y-72853680D01*
X83999902Y-72870400D01*
X83976929Y-72871362D01*
X83963037Y-72864977D01*
X83963540Y-72862818D01*
X83975078Y-72838581D01*
X83998753Y-72795336D01*
X84030418Y-72740732D01*
X84097798Y-72627239D01*
X84047084Y-72576492D01*
X84037083Y-72566071D01*
X84005394Y-72518625D01*
X83996370Y-72464994D01*
X83996705Y-72460638D01*
X84063292Y-72460638D01*
X84064709Y-72482111D01*
X84081808Y-72522752D01*
X84124441Y-72554038D01*
X84163418Y-72566541D01*
X84212733Y-72572590D01*
X84258042Y-72571343D01*
X84285259Y-72562094D01*
X84290018Y-72547901D01*
X84294600Y-72507992D01*
X84296370Y-72453689D01*
X84296370Y-72356403D01*
X84213037Y-72356403D01*
X84184728Y-72357700D01*
X84119147Y-72374748D01*
X84077595Y-72409808D01*
X84063292Y-72460638D01*
X83996705Y-72460638D01*
X83999501Y-72424251D01*
X84022833Y-72363482D01*
X84070465Y-72321644D01*
X84144198Y-72297470D01*
X84245835Y-72289693D01*
X84346370Y-72289693D01*
X84346370Y-72453689D01*
X84346370Y-72581551D01*
G37*
G36*
X79173151Y-72294927D02*
G01*
X79230805Y-72310227D01*
X79276625Y-72333931D01*
X79302684Y-72365489D01*
X79306910Y-72379596D01*
X79312437Y-72430688D01*
X79308864Y-72484313D01*
X79296840Y-72522990D01*
X79294098Y-72526374D01*
X79266333Y-72547486D01*
X79218668Y-72575874D01*
X79159596Y-72606378D01*
X79105653Y-72633570D01*
X79063406Y-72659713D01*
X79041238Y-72682741D01*
X79033082Y-72707503D01*
X79036377Y-72744211D01*
X79064751Y-72783020D01*
X79116886Y-72806855D01*
X79188557Y-72814051D01*
X79275537Y-72802946D01*
X79304388Y-72797750D01*
X79324920Y-72801836D01*
X79329704Y-72822404D01*
X79326422Y-72840674D01*
X79308870Y-72862364D01*
X79284723Y-72866610D01*
X79236842Y-72870218D01*
X79176816Y-72872093D01*
X79130618Y-72871885D01*
X79082333Y-72867084D01*
X79047494Y-72854212D01*
X79014316Y-72830233D01*
X79001656Y-72818982D01*
X78971409Y-72778339D01*
X78963037Y-72729071D01*
X78964036Y-72702022D01*
X78974516Y-72656069D01*
X79000810Y-72619204D01*
X79048320Y-72585301D01*
X79122444Y-72548234D01*
X79154594Y-72533394D01*
X79204001Y-72508389D01*
X79231653Y-72488452D01*
X79243719Y-72468333D01*
X79246370Y-72442782D01*
X79246110Y-72434487D01*
X79229165Y-72385754D01*
X79186990Y-72357046D01*
X79121314Y-72349018D01*
X79033870Y-72362325D01*
X79002994Y-72368551D01*
X78983960Y-72364268D01*
X78979704Y-72342996D01*
X78982694Y-72328817D01*
X79008433Y-72304977D01*
X79054039Y-72291750D01*
X79111587Y-72288584D01*
X79173151Y-72294927D01*
G37*
G36*
X83039818Y-72294927D02*
G01*
X83097472Y-72310227D01*
X83143292Y-72333931D01*
X83169351Y-72365489D01*
X83173577Y-72379596D01*
X83179104Y-72430688D01*
X83175531Y-72484313D01*
X83163507Y-72522990D01*
X83160765Y-72526374D01*
X83132999Y-72547486D01*
X83085335Y-72575874D01*
X83026262Y-72606378D01*
X82972320Y-72633570D01*
X82930073Y-72659713D01*
X82907904Y-72682741D01*
X82899748Y-72707503D01*
X82903043Y-72744211D01*
X82931417Y-72783020D01*
X82983552Y-72806855D01*
X83055223Y-72814051D01*
X83142204Y-72802946D01*
X83171055Y-72797750D01*
X83191587Y-72801836D01*
X83196370Y-72822404D01*
X83193088Y-72840674D01*
X83175537Y-72862364D01*
X83151389Y-72866610D01*
X83103508Y-72870218D01*
X83043483Y-72872093D01*
X82997285Y-72871885D01*
X82948999Y-72867084D01*
X82914161Y-72854212D01*
X82880983Y-72830233D01*
X82868322Y-72818982D01*
X82838076Y-72778339D01*
X82829704Y-72729071D01*
X82830702Y-72702022D01*
X82841182Y-72656069D01*
X82867477Y-72619204D01*
X82914987Y-72585301D01*
X82989111Y-72548234D01*
X83021260Y-72533394D01*
X83070667Y-72508389D01*
X83098319Y-72488452D01*
X83110386Y-72468333D01*
X83113037Y-72442782D01*
X83112777Y-72434487D01*
X83095832Y-72385754D01*
X83053656Y-72357046D01*
X82987981Y-72349018D01*
X82900537Y-72362325D01*
X82869660Y-72368551D01*
X82850627Y-72364268D01*
X82846370Y-72342996D01*
X82849360Y-72328817D01*
X82875100Y-72304977D01*
X82920706Y-72291750D01*
X82978254Y-72288584D01*
X83039818Y-72294927D01*
G37*
G36*
X81129704Y-72581551D02*
G01*
X81129563Y-72678197D01*
X81128771Y-72756956D01*
X81126815Y-72811110D01*
X81123182Y-72845246D01*
X81117360Y-72863950D01*
X81108837Y-72871809D01*
X81097101Y-72873409D01*
X81094994Y-72873383D01*
X81078662Y-72868899D01*
X81068754Y-72851884D01*
X81063118Y-72815397D01*
X81059601Y-72752497D01*
X81054704Y-72631584D01*
X81002315Y-72626491D01*
X80983089Y-72625498D01*
X80960539Y-72630568D01*
X80939134Y-72648246D01*
X80912983Y-72683983D01*
X80876195Y-72743234D01*
X80835470Y-72805873D01*
X80796304Y-72852583D01*
X80766085Y-72870400D01*
X80743573Y-72871377D01*
X80729704Y-72864977D01*
X80730206Y-72862818D01*
X80741744Y-72838581D01*
X80765419Y-72795336D01*
X80797084Y-72740732D01*
X80864465Y-72627239D01*
X80813751Y-72576492D01*
X80803750Y-72566071D01*
X80772061Y-72518625D01*
X80763037Y-72464994D01*
X80765937Y-72434407D01*
X80832343Y-72434407D01*
X80836219Y-72481751D01*
X80870613Y-72532276D01*
X80914604Y-72562807D01*
X80976168Y-72573212D01*
X80987725Y-72573039D01*
X81029450Y-72569260D01*
X81051926Y-72562094D01*
X81056685Y-72547901D01*
X81061266Y-72507992D01*
X81063037Y-72453689D01*
X81063037Y-72356403D01*
X80979704Y-72356403D01*
X80975926Y-72356426D01*
X80904985Y-72367247D01*
X80856195Y-72394740D01*
X80832343Y-72434407D01*
X80765937Y-72434407D01*
X80767732Y-72415479D01*
X80793049Y-72358235D01*
X80842226Y-72319173D01*
X80917432Y-72296817D01*
X81020835Y-72289693D01*
X81129704Y-72289693D01*
X81129704Y-72453689D01*
X81129704Y-72581551D01*
G37*
G36*
X81818692Y-72289720D02*
G01*
X81831232Y-72292047D01*
X81839591Y-72301826D01*
X81844398Y-72324234D01*
X81846283Y-72364449D01*
X81845874Y-72427649D01*
X81843802Y-72519010D01*
X81843676Y-72523949D01*
X81839711Y-72628445D01*
X81832867Y-72705462D01*
X81821427Y-72760629D01*
X81803673Y-72799573D01*
X81777886Y-72827923D01*
X81742347Y-72851308D01*
X81687582Y-72868443D01*
X81615826Y-72872402D01*
X81543312Y-72863007D01*
X81484893Y-72840859D01*
X81464469Y-72826338D01*
X81436697Y-72794399D01*
X81417263Y-72749390D01*
X81404914Y-72686284D01*
X81398398Y-72600048D01*
X81396463Y-72485655D01*
X81396518Y-72439551D01*
X81397431Y-72370764D01*
X81400169Y-72326949D01*
X81405641Y-72302542D01*
X81414753Y-72291978D01*
X81428412Y-72289693D01*
X81440122Y-72291390D01*
X81449652Y-72300455D01*
X81456129Y-72322097D01*
X81460420Y-72361510D01*
X81463392Y-72423888D01*
X81465912Y-72514425D01*
X81468025Y-72591365D01*
X81471144Y-72660289D01*
X81475809Y-72707123D01*
X81483045Y-72738068D01*
X81493878Y-72759325D01*
X81509333Y-72777097D01*
X81554097Y-72805055D01*
X81617525Y-72816830D01*
X81681728Y-72807511D01*
X81733408Y-72777097D01*
X81746398Y-72762670D01*
X81758004Y-72742519D01*
X81765825Y-72713820D01*
X81770886Y-72670373D01*
X81774212Y-72605975D01*
X81776829Y-72514425D01*
X81776834Y-72514193D01*
X81779312Y-72423858D01*
X81782195Y-72361647D01*
X81786390Y-72322342D01*
X81792806Y-72300726D01*
X81802349Y-72291582D01*
X81815927Y-72289693D01*
X81818692Y-72289720D01*
G37*
G36*
X90579704Y-72581551D02*
G01*
X90579563Y-72678197D01*
X90578771Y-72756956D01*
X90576815Y-72811110D01*
X90573182Y-72845246D01*
X90567360Y-72863950D01*
X90558837Y-72871809D01*
X90547101Y-72873409D01*
X90544994Y-72873383D01*
X90528662Y-72868899D01*
X90518754Y-72851884D01*
X90513118Y-72815397D01*
X90509601Y-72752497D01*
X90504704Y-72631584D01*
X90451413Y-72626423D01*
X90429156Y-72625393D01*
X90407473Y-72631087D01*
X90386909Y-72649621D01*
X90361783Y-72686482D01*
X90326413Y-72747159D01*
X90297443Y-72796243D01*
X90265727Y-72842223D01*
X90240402Y-72866245D01*
X90217204Y-72873232D01*
X90193874Y-72871584D01*
X90179704Y-72865364D01*
X90180040Y-72864006D01*
X90191096Y-72842256D01*
X90214634Y-72801189D01*
X90246370Y-72748327D01*
X90252934Y-72737549D01*
X90283457Y-72686025D01*
X90304925Y-72647461D01*
X90313037Y-72629521D01*
X90313025Y-72629268D01*
X90300641Y-72612753D01*
X90271990Y-72587398D01*
X90259780Y-72576231D01*
X90227748Y-72521735D01*
X90217211Y-72454771D01*
X90221280Y-72434407D01*
X90282343Y-72434407D01*
X90286219Y-72481751D01*
X90320613Y-72532276D01*
X90336841Y-72546791D01*
X90378628Y-72567486D01*
X90437280Y-72573212D01*
X90513037Y-72573212D01*
X90513037Y-72464808D01*
X90513037Y-72356403D01*
X90429704Y-72356403D01*
X90425926Y-72356426D01*
X90354985Y-72367247D01*
X90306195Y-72394740D01*
X90282343Y-72434407D01*
X90221280Y-72434407D01*
X90230668Y-72387429D01*
X90247586Y-72358001D01*
X90295771Y-72319414D01*
X90369404Y-72296964D01*
X90470835Y-72289693D01*
X90579704Y-72289693D01*
X90579704Y-72464808D01*
X90579704Y-72581551D01*
G37*
G36*
X86806293Y-72289765D02*
G01*
X86816238Y-72296031D01*
X86822983Y-72315903D01*
X86827096Y-72354317D01*
X86829147Y-72416205D01*
X86829704Y-72506502D01*
X86829738Y-72522594D01*
X86830965Y-72601092D01*
X86833689Y-72664776D01*
X86837555Y-72707466D01*
X86842204Y-72722983D01*
X86847469Y-72718653D01*
X86869050Y-72691683D01*
X86903336Y-72644139D01*
X86946914Y-72580814D01*
X86996370Y-72506502D01*
X87007449Y-72489610D01*
X87068554Y-72397898D01*
X87114826Y-72334127D01*
X87148327Y-72299069D01*
X87171117Y-72293499D01*
X87185256Y-72318189D01*
X87192804Y-72373912D01*
X87195822Y-72461442D01*
X87196370Y-72581551D01*
X87196370Y-72588695D01*
X87196203Y-72691823D01*
X87195351Y-72766469D01*
X87193269Y-72817230D01*
X87189410Y-72848706D01*
X87183228Y-72865496D01*
X87174178Y-72872197D01*
X87161713Y-72873409D01*
X87160824Y-72873408D01*
X87146998Y-72871770D01*
X87137773Y-72863438D01*
X87132432Y-72843081D01*
X87130259Y-72805371D01*
X87130536Y-72744979D01*
X87132546Y-72656577D01*
X87132933Y-72640379D01*
X87134102Y-72561912D01*
X87133900Y-72498260D01*
X87132407Y-72455596D01*
X87129704Y-72440095D01*
X87125213Y-72444489D01*
X87104926Y-72471518D01*
X87071704Y-72519067D01*
X87028860Y-72582354D01*
X86979704Y-72656600D01*
X86968625Y-72673492D01*
X86907521Y-72765204D01*
X86861248Y-72828976D01*
X86827747Y-72864033D01*
X86804957Y-72869603D01*
X86790819Y-72844913D01*
X86783270Y-72789190D01*
X86780252Y-72701660D01*
X86779704Y-72581551D01*
X86779705Y-72573095D01*
X86780127Y-72468475D01*
X86781552Y-72392577D01*
X86784352Y-72341076D01*
X86788897Y-72309646D01*
X86795557Y-72293960D01*
X86804704Y-72289693D01*
X86806293Y-72289765D01*
G37*
G36*
X86979704Y-70181683D02*
G01*
X86979704Y-70408539D01*
X86438864Y-70402661D01*
X86355256Y-70401863D01*
X86232546Y-70401120D01*
X86124144Y-70400986D01*
X86033853Y-70401435D01*
X85965479Y-70402444D01*
X85922826Y-70403988D01*
X85909698Y-70406043D01*
X85917234Y-70411753D01*
X85946877Y-70433530D01*
X85988037Y-70463365D01*
X85998358Y-70470840D01*
X86067580Y-70522218D01*
X86151196Y-70585934D01*
X86245812Y-70659255D01*
X86348036Y-70739447D01*
X86454474Y-70823778D01*
X86561733Y-70909513D01*
X86666421Y-70993919D01*
X86765144Y-71074262D01*
X86854510Y-71147808D01*
X86931125Y-71211825D01*
X86991597Y-71263578D01*
X87032532Y-71300335D01*
X87050537Y-71319361D01*
X87053153Y-71324053D01*
X87072958Y-71383587D01*
X87079049Y-71452964D01*
X87071445Y-71518760D01*
X87050167Y-71567552D01*
X87016206Y-71600182D01*
X86971370Y-71629991D01*
X86965174Y-71632778D01*
X86948194Y-71637792D01*
X86923131Y-71642036D01*
X86887460Y-71645573D01*
X86838655Y-71648465D01*
X86774193Y-71650773D01*
X86691548Y-71652560D01*
X86588195Y-71653888D01*
X86461610Y-71654818D01*
X86309266Y-71655412D01*
X86128639Y-71655732D01*
X85917204Y-71655841D01*
X84913037Y-71655944D01*
X84913037Y-71439135D01*
X84913037Y-71222326D01*
X85548007Y-71222326D01*
X86182977Y-71222326D01*
X86027174Y-71102198D01*
X85920939Y-71019850D01*
X85799541Y-70924806D01*
X85677532Y-70828402D01*
X85557904Y-70733067D01*
X85443646Y-70641227D01*
X85337749Y-70555311D01*
X85243204Y-70477745D01*
X85163001Y-70410957D01*
X85100131Y-70357374D01*
X85057583Y-70319425D01*
X85038350Y-70299536D01*
X85012705Y-70248108D01*
X84999514Y-70170483D01*
X85013630Y-70096476D01*
X85053251Y-70033261D01*
X85116577Y-69988015D01*
X85117042Y-69987803D01*
X85134059Y-69980731D01*
X85153162Y-69974771D01*
X85177192Y-69969829D01*
X85208989Y-69965806D01*
X85251394Y-69962608D01*
X85307248Y-69960137D01*
X85379391Y-69958297D01*
X85470664Y-69956992D01*
X85583908Y-69956126D01*
X85721964Y-69955602D01*
X85887671Y-69955323D01*
X86083870Y-69955194D01*
X86979704Y-69954828D01*
X86979704Y-70181683D01*
G37*
G36*
X90619710Y-70965858D02*
G01*
X90583971Y-71118120D01*
X90521917Y-71251009D01*
X90433159Y-71364912D01*
X90317308Y-71460219D01*
X90173973Y-71537317D01*
X90002764Y-71596595D01*
X89803291Y-71638441D01*
X89790703Y-71640040D01*
X89734619Y-71644009D01*
X89653978Y-71646959D01*
X89555279Y-71648755D01*
X89445021Y-71649261D01*
X89329704Y-71648341D01*
X89258908Y-71647205D01*
X89143728Y-71644560D01*
X89052860Y-71640933D01*
X88980351Y-71635847D01*
X88920247Y-71628826D01*
X88866595Y-71619396D01*
X88813443Y-71607081D01*
X88790681Y-71601139D01*
X88616364Y-71542063D01*
X88470409Y-71465767D01*
X88352254Y-71371574D01*
X88261336Y-71258803D01*
X88197091Y-71126775D01*
X88158957Y-70974811D01*
X88146370Y-70802232D01*
X88147983Y-70767262D01*
X88672603Y-70767262D01*
X88674914Y-70867613D01*
X88693839Y-70963551D01*
X88729483Y-71047524D01*
X88781948Y-71111975D01*
X88816028Y-71138310D01*
X88873205Y-71170102D01*
X88942644Y-71193489D01*
X89031349Y-71210618D01*
X89146324Y-71223636D01*
X89237998Y-71230120D01*
X89381567Y-71234239D01*
X89523205Y-71231759D01*
X89655158Y-71223063D01*
X89769674Y-71208533D01*
X89858997Y-71188550D01*
X89914554Y-71165240D01*
X89986887Y-71116488D01*
X90045908Y-71056124D01*
X90081840Y-70992741D01*
X90092279Y-70953121D01*
X90102638Y-70864824D01*
X90101818Y-70768228D01*
X90090280Y-70676729D01*
X90068482Y-70603718D01*
X90042787Y-70556281D01*
X89995693Y-70503209D01*
X89929728Y-70462134D01*
X89837669Y-70427541D01*
X89826139Y-70424100D01*
X89785621Y-70414174D01*
X89739495Y-70406902D01*
X89682216Y-70401907D01*
X89608243Y-70398808D01*
X89512031Y-70397227D01*
X89388037Y-70396784D01*
X89258579Y-70397732D01*
X89135434Y-70401643D01*
X89036682Y-70409304D01*
X88957567Y-70421478D01*
X88893331Y-70438929D01*
X88839218Y-70462420D01*
X88790471Y-70492715D01*
X88764315Y-70515289D01*
X88717408Y-70583545D01*
X88686802Y-70670055D01*
X88672603Y-70767262D01*
X88147983Y-70767262D01*
X88150525Y-70712130D01*
X88177294Y-70560700D01*
X88227157Y-70423124D01*
X88298102Y-70304337D01*
X88388118Y-70209272D01*
X88428180Y-70178903D01*
X88553745Y-70107265D01*
X88704974Y-70048493D01*
X88877893Y-70003302D01*
X89068528Y-69972404D01*
X89272904Y-69956512D01*
X89487046Y-69956341D01*
X89706979Y-69972602D01*
X89815654Y-69987088D01*
X90012054Y-70028189D01*
X90180039Y-70085869D01*
X90320297Y-70160752D01*
X90433515Y-70253467D01*
X90520377Y-70364641D01*
X90581572Y-70494899D01*
X90617785Y-70644870D01*
X90629704Y-70815180D01*
X90626411Y-70864824D01*
X90619710Y-70965858D01*
G37*
G36*
X84777096Y-70762523D02*
G01*
X84776798Y-70896201D01*
X84765638Y-71007928D01*
X84742210Y-71106704D01*
X84705110Y-71201529D01*
X84661984Y-71277453D01*
X84572349Y-71380898D01*
X84454924Y-71469633D01*
X84311448Y-71542650D01*
X84143663Y-71598937D01*
X83953312Y-71637485D01*
X83931425Y-71640217D01*
X83854292Y-71646190D01*
X83755189Y-71650386D01*
X83642009Y-71652799D01*
X83522646Y-71653427D01*
X83404993Y-71652263D01*
X83296943Y-71649303D01*
X83206391Y-71644542D01*
X83141230Y-71637975D01*
X83076834Y-71627386D01*
X82886451Y-71582696D01*
X82724501Y-71521735D01*
X82590067Y-71443741D01*
X82482231Y-71347951D01*
X82400074Y-71233600D01*
X82342679Y-71099926D01*
X82309127Y-70946166D01*
X82299946Y-70788354D01*
X82301535Y-70772268D01*
X82832788Y-70772268D01*
X82833681Y-70856964D01*
X82840725Y-70935090D01*
X82853851Y-70994113D01*
X82889381Y-71065106D01*
X82947876Y-71125908D01*
X83030349Y-71170957D01*
X83140700Y-71203095D01*
X83198790Y-71212135D01*
X83288341Y-71220438D01*
X83394694Y-71226439D01*
X83509095Y-71229888D01*
X83622789Y-71230532D01*
X83727021Y-71228120D01*
X83813037Y-71222402D01*
X83909410Y-71209635D01*
X84014034Y-71184744D01*
X84095529Y-71149213D01*
X84159265Y-71101159D01*
X84199927Y-71050074D01*
X84238674Y-70963812D01*
X84258830Y-70865133D01*
X84260455Y-70762099D01*
X84243611Y-70662771D01*
X84208359Y-70575209D01*
X84154759Y-70507474D01*
X84138949Y-70494256D01*
X84091562Y-70462694D01*
X84035828Y-70438463D01*
X83966763Y-70420476D01*
X83879378Y-70407647D01*
X83768687Y-70398890D01*
X83629704Y-70393119D01*
X83519364Y-70390970D01*
X83351024Y-70393835D01*
X83211159Y-70405747D01*
X83097279Y-70427454D01*
X83006894Y-70459707D01*
X82937513Y-70503254D01*
X82886647Y-70558845D01*
X82851805Y-70627230D01*
X82849733Y-70633307D01*
X82838115Y-70693538D01*
X82832788Y-70772268D01*
X82301535Y-70772268D01*
X82315568Y-70630182D01*
X82355686Y-70483944D01*
X82418968Y-70354431D01*
X82504077Y-70246435D01*
X82529468Y-70222926D01*
X82624931Y-70154673D01*
X82742947Y-70092917D01*
X82875451Y-70041485D01*
X83014378Y-70004207D01*
X83087272Y-69991210D01*
X83228538Y-69974083D01*
X83385193Y-69962983D01*
X83546291Y-69958359D01*
X83700888Y-69960662D01*
X83838037Y-69970341D01*
X83962552Y-69986490D01*
X84148216Y-70023474D01*
X84306250Y-70073860D01*
X84438962Y-70138879D01*
X84548661Y-70219760D01*
X84637653Y-70317732D01*
X84708248Y-70434027D01*
X84716324Y-70450478D01*
X84740936Y-70504078D01*
X84757004Y-70550032D01*
X84766781Y-70598590D01*
X84772518Y-70660002D01*
X84776466Y-70744516D01*
X84777081Y-70762099D01*
X84777096Y-70762523D01*
G37*
G36*
X81546602Y-69962755D02*
G01*
X81631007Y-69989912D01*
X81703828Y-70039704D01*
X81758167Y-70111627D01*
X81764077Y-70126253D01*
X81779893Y-70172108D01*
X81803311Y-70244016D01*
X81833234Y-70338468D01*
X81868564Y-70451956D01*
X81908204Y-70580972D01*
X81951054Y-70722008D01*
X81996017Y-70871556D01*
X82027815Y-70977839D01*
X82070617Y-71120827D01*
X82110044Y-71252445D01*
X82145067Y-71369263D01*
X82174655Y-71467850D01*
X82197779Y-71544773D01*
X82213411Y-71596603D01*
X82220520Y-71619907D01*
X82232223Y-71656804D01*
X81969593Y-71652204D01*
X81706964Y-71647605D01*
X81642891Y-71414118D01*
X81635020Y-71385352D01*
X81605033Y-71274750D01*
X81571342Y-71149277D01*
X81537519Y-71022275D01*
X81507137Y-70907087D01*
X81435456Y-70633541D01*
X81299212Y-70890409D01*
X81265899Y-70952767D01*
X81187910Y-71095299D01*
X81113288Y-71227021D01*
X81043967Y-71344769D01*
X80981879Y-71445376D01*
X80928956Y-71525675D01*
X80887132Y-71582501D01*
X80858338Y-71612688D01*
X80833899Y-71627053D01*
X80777147Y-71644226D01*
X80695538Y-71653158D01*
X80630267Y-71654483D01*
X80553773Y-71645075D01*
X80493701Y-71619656D01*
X80441160Y-71575513D01*
X80435037Y-71568574D01*
X80403902Y-71526066D01*
X80361024Y-71460179D01*
X80309248Y-71375791D01*
X80251418Y-71277780D01*
X80190378Y-71171026D01*
X80128973Y-71060406D01*
X80070047Y-70950799D01*
X80016444Y-70847083D01*
X79907118Y-70630271D01*
X79886363Y-70705320D01*
X79877634Y-70737020D01*
X79860900Y-70797963D01*
X79838068Y-70881210D01*
X79810555Y-70981594D01*
X79779778Y-71093947D01*
X79747153Y-71213101D01*
X79746620Y-71215048D01*
X79715145Y-71329493D01*
X79686440Y-71432878D01*
X79661698Y-71520980D01*
X79642116Y-71589572D01*
X79628888Y-71634428D01*
X79623210Y-71651323D01*
X79616935Y-71652324D01*
X79582992Y-71653493D01*
X79524844Y-71653877D01*
X79448316Y-71653455D01*
X79359233Y-71652210D01*
X79100744Y-71647605D01*
X79319674Y-70897029D01*
X79359580Y-70761330D01*
X79403701Y-70613876D01*
X79445282Y-70477562D01*
X79483218Y-70355875D01*
X79516406Y-70252305D01*
X79543743Y-70170340D01*
X79564125Y-70113468D01*
X79576449Y-70085179D01*
X79617314Y-70034562D01*
X79689748Y-69984822D01*
X79774231Y-69959353D01*
X79863720Y-69958916D01*
X79951172Y-69984272D01*
X80029545Y-70036184D01*
X80038272Y-70045055D01*
X80074555Y-70091618D01*
X80125657Y-70167733D01*
X80191466Y-70273216D01*
X80271869Y-70407877D01*
X80366755Y-70571529D01*
X80476010Y-70763987D01*
X80599523Y-70985061D01*
X80657591Y-71089688D01*
X80929229Y-70609815D01*
X80968932Y-70539862D01*
X81034245Y-70425587D01*
X81094741Y-70320710D01*
X81148118Y-70229169D01*
X81192073Y-70154901D01*
X81224307Y-70101840D01*
X81242518Y-70073925D01*
X81292842Y-70022141D01*
X81370624Y-69978366D01*
X81457509Y-69958739D01*
X81546602Y-69962755D01*
G37*
G36*
X96703631Y-71297375D02*
G01*
X96703355Y-71412718D01*
X96702122Y-71518563D01*
X96699519Y-71602597D01*
X96695135Y-71670975D01*
X96688559Y-71729850D01*
X96679382Y-71785376D01*
X96667191Y-71843709D01*
X96643307Y-71942686D01*
X96551073Y-72235913D01*
X96431087Y-72512290D01*
X96284430Y-72770432D01*
X96112179Y-73008957D01*
X95915414Y-73226481D01*
X95695214Y-73421622D01*
X95452657Y-73592995D01*
X95188823Y-73739217D01*
X95137636Y-73763362D01*
X94872989Y-73867432D01*
X94590973Y-73945815D01*
X94296370Y-73997129D01*
X94284981Y-73998391D01*
X94210824Y-74002508D01*
X94113098Y-74003324D01*
X93999759Y-74001208D01*
X93878757Y-73996524D01*
X93758046Y-73989639D01*
X93645578Y-73980918D01*
X93549306Y-73970727D01*
X93477183Y-73959433D01*
X93229293Y-73896981D01*
X92950080Y-73796246D01*
X92686961Y-73667733D01*
X92441458Y-73512970D01*
X92215093Y-73333481D01*
X92009390Y-73130791D01*
X91825870Y-72906426D01*
X91666057Y-72661911D01*
X91531474Y-72398772D01*
X91423643Y-72118533D01*
X91344087Y-71822720D01*
X91341757Y-71811741D01*
X91328818Y-71744762D01*
X91319369Y-71680440D01*
X91312876Y-71611574D01*
X91308807Y-71530965D01*
X91306628Y-71431412D01*
X91306385Y-71394275D01*
X92149879Y-71394275D01*
X92179109Y-71634653D01*
X92240422Y-71870610D01*
X92333583Y-72100043D01*
X92458359Y-72320849D01*
X92500876Y-72378275D01*
X92565904Y-72454142D01*
X92644151Y-72537753D01*
X92728885Y-72622402D01*
X92813377Y-72701379D01*
X92890894Y-72767976D01*
X92954704Y-72815485D01*
X93060985Y-72880158D01*
X93276100Y-72985272D01*
X93498625Y-73062068D01*
X93722422Y-73108206D01*
X93788892Y-73118767D01*
X93863607Y-73137465D01*
X93905778Y-73159301D01*
X93916087Y-73166726D01*
X93969016Y-73183465D01*
X94049308Y-73188876D01*
X94153893Y-73182909D01*
X94279704Y-73165512D01*
X94409217Y-73138873D01*
X94646334Y-73065302D01*
X94868533Y-72963556D01*
X95073828Y-72835598D01*
X95260230Y-72683387D01*
X95425751Y-72508884D01*
X95568404Y-72314051D01*
X95686201Y-72100847D01*
X95777154Y-71871234D01*
X95839275Y-71627173D01*
X95848657Y-71567129D01*
X95860342Y-71423690D01*
X95861636Y-71265612D01*
X95852983Y-71104284D01*
X95834828Y-70951096D01*
X95807618Y-70817438D01*
X95803993Y-70803869D01*
X95723679Y-70570788D01*
X95613108Y-70349830D01*
X95474046Y-70144042D01*
X95308260Y-69956466D01*
X95137363Y-69803083D01*
X94956415Y-69675634D01*
X94761734Y-69573134D01*
X94546370Y-69491339D01*
X94534543Y-69487592D01*
X94378648Y-69445226D01*
X94227355Y-69418987D01*
X94068715Y-69407370D01*
X93890778Y-69408872D01*
X93702609Y-69425390D01*
X93459989Y-69474956D01*
X93229040Y-69555033D01*
X93011740Y-69664582D01*
X92810066Y-69802564D01*
X92625994Y-69967941D01*
X92461502Y-70159674D01*
X92406176Y-70235267D01*
X92352726Y-70316089D01*
X92319185Y-70379609D01*
X92303655Y-70429568D01*
X92304237Y-70469708D01*
X92305859Y-70490041D01*
X92296337Y-70550122D01*
X92270432Y-70630963D01*
X92257021Y-70667637D01*
X92188601Y-70908664D01*
X92152965Y-71151577D01*
X92149879Y-71394275D01*
X91306385Y-71394275D01*
X91305806Y-71305714D01*
X91305771Y-71286221D01*
X91306208Y-71164162D01*
X91308220Y-71067007D01*
X91312318Y-70987356D01*
X91319014Y-70917808D01*
X91328822Y-70850963D01*
X91342254Y-70779421D01*
X91397544Y-70552552D01*
X91495631Y-70268365D01*
X91621399Y-70000950D01*
X91773471Y-69751706D01*
X91950468Y-69522029D01*
X92151014Y-69313317D01*
X92373729Y-69126967D01*
X92617236Y-68964377D01*
X92880157Y-68826944D01*
X93161114Y-68716066D01*
X93458729Y-68633140D01*
X93510015Y-68622293D01*
X93565520Y-68612755D01*
X93623602Y-68605871D01*
X93690411Y-68601233D01*
X93772097Y-68598428D01*
X93874812Y-68597046D01*
X94004704Y-68596676D01*
X94119925Y-68596953D01*
X94226005Y-68598197D01*
X94310468Y-68600831D01*
X94379564Y-68605273D01*
X94439545Y-68611942D01*
X94496662Y-68621255D01*
X94557167Y-68633631D01*
X94750723Y-68682976D01*
X95034784Y-68782647D01*
X95302403Y-68910091D01*
X95552041Y-69063765D01*
X95782158Y-69242130D01*
X95991214Y-69443645D01*
X96177670Y-69666769D01*
X96339986Y-69909963D01*
X96476623Y-70171684D01*
X96586041Y-70450393D01*
X96666700Y-70744550D01*
X96677679Y-70797740D01*
X96687351Y-70854978D01*
X96694327Y-70914290D01*
X96699025Y-70981930D01*
X96701863Y-71064154D01*
X96703259Y-71167217D01*
X96703540Y-71265612D01*
X96703631Y-71297375D01*
G37*
G36*
X95674143Y-71212846D02*
G01*
X95672287Y-71325258D01*
X95670490Y-71434090D01*
X95647066Y-71592297D01*
X95637987Y-71653620D01*
X95585476Y-71837511D01*
X95576628Y-71868495D01*
X95486403Y-72075775D01*
X95367306Y-72272518D01*
X95219329Y-72455785D01*
X95086956Y-72582544D01*
X94915881Y-72710636D01*
X94729660Y-72817676D01*
X94534084Y-72900833D01*
X94334945Y-72957276D01*
X94138037Y-72984175D01*
X94135616Y-72984316D01*
X94031739Y-72993327D01*
X93958049Y-73006807D01*
X93911658Y-73025526D01*
X93889682Y-73050249D01*
X93874113Y-73062842D01*
X93830604Y-73068430D01*
X93765099Y-73063608D01*
X93682558Y-73049561D01*
X93587947Y-73027476D01*
X93486226Y-72998540D01*
X93382359Y-72963940D01*
X93281308Y-72924861D01*
X93188037Y-72882490D01*
X93049471Y-72805873D01*
X92852997Y-72666796D01*
X92678471Y-72504126D01*
X92527721Y-72320201D01*
X92402572Y-72117360D01*
X92391660Y-72092858D01*
X93376045Y-72092858D01*
X93382645Y-72182902D01*
X93412965Y-72268361D01*
X93467020Y-72343097D01*
X93544825Y-72400972D01*
X93603008Y-72425190D01*
X93703159Y-72439054D01*
X93750399Y-72435442D01*
X93819008Y-72418448D01*
X93876640Y-72390962D01*
X93919043Y-72356784D01*
X93941966Y-72319711D01*
X93941159Y-72283544D01*
X93912371Y-72252081D01*
X93901616Y-72247613D01*
X93869914Y-72252339D01*
X93822545Y-72279480D01*
X93759989Y-72311640D01*
X93685105Y-72320796D01*
X93606490Y-72297762D01*
X93605205Y-72297146D01*
X93546269Y-72252233D01*
X93510094Y-72190674D01*
X93496882Y-72120238D01*
X93506833Y-72048698D01*
X93540150Y-71983823D01*
X93597034Y-71933385D01*
X93600260Y-71931583D01*
X93615422Y-71925394D01*
X93637247Y-71920277D01*
X93668696Y-71916132D01*
X93712734Y-71912857D01*
X93772324Y-71910353D01*
X93850429Y-71908517D01*
X93950013Y-71907250D01*
X94074040Y-71906451D01*
X94225473Y-71906018D01*
X94407275Y-71905853D01*
X94539954Y-71905595D01*
X94688817Y-71904770D01*
X94824897Y-71903443D01*
X94944767Y-71901676D01*
X95045003Y-71899531D01*
X95122181Y-71897071D01*
X95172876Y-71894359D01*
X95193662Y-71891458D01*
X95206396Y-71873717D01*
X95210329Y-71837511D01*
X95204704Y-71797703D01*
X94412725Y-71793375D01*
X93620746Y-71789046D01*
X93546252Y-71826730D01*
X93498411Y-71856613D01*
X93433943Y-71923575D01*
X93393149Y-72004370D01*
X93376045Y-72092858D01*
X92391660Y-72092858D01*
X92304852Y-71897941D01*
X92236388Y-71664283D01*
X92222961Y-71589732D01*
X92209141Y-71449436D01*
X92205229Y-71296107D01*
X92211021Y-71141028D01*
X92226309Y-70995480D01*
X92239883Y-70926593D01*
X92797950Y-70926593D01*
X92821291Y-71077571D01*
X92825579Y-71093575D01*
X92865897Y-71207527D01*
X92922211Y-71305775D01*
X93002144Y-71401990D01*
X93004267Y-71404230D01*
X93102734Y-71494011D01*
X93207655Y-71559227D01*
X93331785Y-71607846D01*
X93345790Y-71612027D01*
X93370833Y-71618331D01*
X93399611Y-71623586D01*
X93435083Y-71627886D01*
X93480209Y-71631325D01*
X93537950Y-71634000D01*
X93611265Y-71636003D01*
X93703114Y-71637430D01*
X93816456Y-71638375D01*
X93954253Y-71638933D01*
X94119462Y-71639199D01*
X94315045Y-71639266D01*
X94365493Y-71639268D01*
X94555105Y-71639268D01*
X94714559Y-71639085D01*
X94846414Y-71638495D01*
X94953230Y-71637275D01*
X95037566Y-71635201D01*
X95101981Y-71632050D01*
X95149033Y-71627597D01*
X95181283Y-71621619D01*
X95201289Y-71613892D01*
X95211611Y-71604193D01*
X95214807Y-71592297D01*
X95213438Y-71577981D01*
X95210061Y-71561022D01*
X95209952Y-71560486D01*
X95207009Y-71554002D01*
X95199452Y-71548488D01*
X95184671Y-71543834D01*
X95160055Y-71539931D01*
X95122993Y-71536668D01*
X95070874Y-71533935D01*
X95001088Y-71531623D01*
X94911023Y-71529622D01*
X94798069Y-71527821D01*
X94659615Y-71526111D01*
X94493050Y-71524381D01*
X94295764Y-71522523D01*
X93387262Y-71514184D01*
X93277566Y-71460127D01*
X93253192Y-71447412D01*
X93137406Y-71366172D01*
X93039329Y-71262064D01*
X92966300Y-71142575D01*
X92965381Y-71140595D01*
X92943025Y-71086753D01*
X92929778Y-71036391D01*
X92928747Y-71026811D01*
X93081080Y-71026811D01*
X93103481Y-71129715D01*
X93104980Y-71133530D01*
X93145137Y-71202569D01*
X93204479Y-71268753D01*
X93272941Y-71322540D01*
X93340459Y-71354388D01*
X93345620Y-71355535D01*
X93387511Y-71359900D01*
X93461963Y-71363630D01*
X93568361Y-71366711D01*
X93706086Y-71369134D01*
X93874523Y-71370886D01*
X94073053Y-71371956D01*
X94301060Y-71372331D01*
X94374310Y-71372343D01*
X94562139Y-71372355D01*
X94720064Y-71372164D01*
X94850625Y-71371551D01*
X94956362Y-71370298D01*
X95039815Y-71368187D01*
X95103525Y-71364998D01*
X95150032Y-71360514D01*
X95181876Y-71354517D01*
X95201597Y-71346787D01*
X95211736Y-71337107D01*
X95214832Y-71325258D01*
X95213426Y-71311022D01*
X95210058Y-71294180D01*
X95209831Y-71293126D01*
X95206648Y-71286753D01*
X95198679Y-71281332D01*
X95183329Y-71276754D01*
X95158004Y-71272911D01*
X95120108Y-71269695D01*
X95067046Y-71266999D01*
X94996223Y-71264714D01*
X94905043Y-71262733D01*
X94790911Y-71260947D01*
X94651233Y-71259248D01*
X94483413Y-71257529D01*
X94284855Y-71255681D01*
X94164932Y-71254586D01*
X93984809Y-71252861D01*
X93833696Y-71251218D01*
X93708868Y-71249535D01*
X93607599Y-71247689D01*
X93527162Y-71245560D01*
X93464831Y-71243024D01*
X93417881Y-71239960D01*
X93383584Y-71236247D01*
X93359214Y-71231761D01*
X93342047Y-71226382D01*
X93329354Y-71219987D01*
X93318410Y-71212454D01*
X93309362Y-71205529D01*
X93242406Y-71134708D01*
X93205004Y-71053589D01*
X93198378Y-70966499D01*
X93223752Y-70877768D01*
X93232532Y-70861090D01*
X93259959Y-70829009D01*
X93796057Y-70829009D01*
X93807744Y-70913263D01*
X93848541Y-70992873D01*
X93918401Y-71062355D01*
X93918931Y-71062747D01*
X93932408Y-71071816D01*
X93948104Y-71079175D01*
X93969476Y-71085033D01*
X93999980Y-71089598D01*
X94043075Y-71093078D01*
X94102217Y-71095682D01*
X94180864Y-71097617D01*
X94282472Y-71099093D01*
X94410499Y-71100316D01*
X94568401Y-71101495D01*
X94702198Y-71102076D01*
X94831737Y-71101899D01*
X94947418Y-71100988D01*
X95045345Y-71099406D01*
X95121624Y-71097216D01*
X95172361Y-71094483D01*
X95193662Y-71091270D01*
X95206384Y-71073348D01*
X95210329Y-71036986D01*
X95204704Y-70997178D01*
X94599075Y-70988839D01*
X93993446Y-70980501D01*
X93953242Y-70933707D01*
X93920197Y-70874995D01*
X93917335Y-70811431D01*
X93946574Y-70750544D01*
X93956781Y-70738590D01*
X94010365Y-70702210D01*
X94073286Y-70697668D01*
X94144719Y-70725070D01*
X94165619Y-70736886D01*
X94198998Y-70752234D01*
X94219855Y-70751624D01*
X94239139Y-70736365D01*
X94252780Y-70718238D01*
X94256017Y-70680030D01*
X94227858Y-70641331D01*
X94169456Y-70604327D01*
X94158831Y-70599434D01*
X94072340Y-70576836D01*
X93988311Y-70583188D01*
X93914480Y-70618075D01*
X93860210Y-70668497D01*
X93813530Y-70745593D01*
X93796057Y-70829009D01*
X93259959Y-70829009D01*
X93286730Y-70797696D01*
X93358684Y-70755925D01*
X93440598Y-70737779D01*
X93524675Y-70745260D01*
X93603118Y-70780369D01*
X93620046Y-70791355D01*
X93676945Y-70817701D01*
X93716528Y-70815753D01*
X93739048Y-70785522D01*
X93740970Y-70775553D01*
X93728931Y-70736023D01*
X93690463Y-70695680D01*
X93630551Y-70658736D01*
X93554182Y-70629402D01*
X93533918Y-70624054D01*
X93426481Y-70614693D01*
X93323499Y-70638319D01*
X93225716Y-70694785D01*
X93181692Y-70735146D01*
X93122369Y-70821760D01*
X93088104Y-70921570D01*
X93081080Y-71026811D01*
X92928747Y-71026811D01*
X92923417Y-70977260D01*
X92921716Y-70897113D01*
X92921828Y-70864367D01*
X92924406Y-70796298D01*
X92932336Y-70743880D01*
X92948191Y-70694328D01*
X92974548Y-70634861D01*
X92976080Y-70631641D01*
X93053267Y-70507706D01*
X93154616Y-70404737D01*
X93276091Y-70326857D01*
X93309635Y-70311077D01*
X93353555Y-70294685D01*
X93399257Y-70285301D01*
X93457249Y-70281046D01*
X93538037Y-70280044D01*
X93579777Y-70280258D01*
X93650273Y-70282813D01*
X93702953Y-70289678D01*
X93748384Y-70302625D01*
X93797131Y-70323421D01*
X93835863Y-70343368D01*
X93899263Y-70381993D01*
X93949331Y-70419318D01*
X93975171Y-70440605D01*
X94021129Y-70466943D01*
X94055076Y-70465478D01*
X94080658Y-70436694D01*
X94082235Y-70433663D01*
X94088946Y-70408718D01*
X94078131Y-70383004D01*
X94045804Y-70346166D01*
X93988563Y-70298121D01*
X93906922Y-70246664D01*
X93816655Y-70202169D01*
X93730247Y-70171546D01*
X93682965Y-70162528D01*
X93611395Y-70155013D01*
X93538581Y-70152378D01*
X93501004Y-70153492D01*
X93350703Y-70176796D01*
X93213074Y-70227710D01*
X93090699Y-70302906D01*
X92986157Y-70399053D01*
X92902031Y-70512825D01*
X92840900Y-70640891D01*
X92805346Y-70779924D01*
X92797950Y-70926593D01*
X92239883Y-70926593D01*
X92250888Y-70870742D01*
X92251030Y-70870205D01*
X92285472Y-70748541D01*
X92317173Y-70656705D01*
X92347648Y-70591456D01*
X92378408Y-70549553D01*
X92410966Y-70527754D01*
X92441270Y-70507738D01*
X92489517Y-70454539D01*
X92549192Y-70370046D01*
X92567338Y-70342672D01*
X92681770Y-70189511D01*
X92806058Y-70057912D01*
X92949597Y-69937734D01*
X93135635Y-69815270D01*
X93343012Y-69715028D01*
X93558261Y-69644773D01*
X93778462Y-69604255D01*
X94000693Y-69593221D01*
X94222035Y-69611422D01*
X94439567Y-69658607D01*
X94650369Y-69734524D01*
X94851520Y-69838924D01*
X95040101Y-69971554D01*
X95213191Y-70132165D01*
X95259941Y-70183832D01*
X95400418Y-70369539D01*
X95512084Y-70568234D01*
X95594932Y-70776977D01*
X95648954Y-70992828D01*
X95654009Y-71036986D01*
X95674143Y-71212846D01*
G37*
D11*
%TO.C,J4*%
X83480000Y-96830000D02*
X92520000Y-96830000D01*
X83480000Y-97410000D02*
X83480000Y-96830000D01*
X83480000Y-100090000D02*
X83480000Y-99850000D01*
X84450000Y-100090000D02*
X83480000Y-100090000D01*
X92520000Y-96830000D02*
X92520000Y-97410000D01*
X92520000Y-99850000D02*
X92520000Y-100090000D01*
X92520000Y-100090000D02*
X91550000Y-100090000D01*
D10*
%TO.C,J1*%
X82500000Y-91750000D02*
X93500000Y-91750000D01*
X82500000Y-95250000D02*
X82500000Y-91750000D01*
X93500000Y-91750000D02*
X93500000Y-95250000D01*
X93500000Y-95250000D02*
X82500000Y-95250000D01*
D12*
%TO.C,D2*%
X84550000Y-89800000D02*
X84550000Y-84290000D01*
X87850000Y-84290000D02*
X84550000Y-84290000D01*
X87850000Y-89800000D02*
X87850000Y-84290000D01*
%TO.C,J3*%
X63590000Y-107540000D02*
X63590000Y-108790000D01*
X63690000Y-109300000D02*
X63690000Y-109600000D01*
X63690000Y-109600000D02*
X63890000Y-109600000D01*
X63790000Y-109300000D02*
X63790000Y-109600000D01*
X63890000Y-107840000D02*
X63890000Y-113960000D01*
X63890000Y-109300000D02*
X63690000Y-109300000D01*
X63890000Y-111400000D02*
X64500000Y-111400000D01*
X63890000Y-113960000D02*
X68610000Y-113960000D01*
X64500000Y-108450000D02*
X64500000Y-110400000D01*
X64500000Y-110400000D02*
X63890000Y-110400000D01*
X64500000Y-111400000D02*
X64500000Y-113350000D01*
X64500000Y-113350000D02*
X68000000Y-113350000D01*
X64840000Y-107540000D02*
X63590000Y-107540000D01*
X65200000Y-108450000D02*
X65200000Y-107840000D01*
X65200000Y-113350000D02*
X65200000Y-113960000D01*
X66500000Y-108450000D02*
X66500000Y-107840000D01*
X66500000Y-113350000D02*
X66500000Y-113960000D01*
X67500000Y-110800000D02*
X68000000Y-110800000D01*
X67500000Y-110900000D02*
X68000000Y-110900000D01*
X67500000Y-111000000D02*
X67500000Y-110800000D01*
X68000000Y-108450000D02*
X64500000Y-108450000D01*
X68000000Y-111000000D02*
X67500000Y-111000000D01*
X68000000Y-113350000D02*
X68000000Y-108450000D01*
X68610000Y-107840000D02*
X63890000Y-107840000D01*
X68610000Y-113960000D02*
X68610000Y-107840000D01*
D13*
%TO.C,G\u002A\u002A\u002A*%
G36*
X88071650Y-66525294D02*
G01*
X88071650Y-66614857D01*
X87994029Y-66614857D01*
X87916408Y-66614857D01*
X87916408Y-66525294D01*
X87916408Y-66435732D01*
X87994029Y-66435732D01*
X88071650Y-66435732D01*
X88071650Y-66525294D01*
G37*
G36*
X88071650Y-67235826D02*
G01*
X88071650Y-67689610D01*
X87994029Y-67689610D01*
X87916408Y-67689610D01*
X87916408Y-67235826D01*
X87916408Y-66782041D01*
X87994029Y-66782041D01*
X88071650Y-66782041D01*
X88071650Y-67235826D01*
G37*
G36*
X87534274Y-66644711D02*
G01*
X87534274Y-66782041D01*
X87611895Y-66782041D01*
X87689516Y-66782041D01*
X87689516Y-66847720D01*
X87689516Y-66913400D01*
X87611895Y-66913400D01*
X87534274Y-66913400D01*
X87534274Y-67248360D01*
X87534250Y-67292946D01*
X87533821Y-67391602D01*
X87532493Y-67470018D01*
X87529800Y-67530811D01*
X87525274Y-67576599D01*
X87518451Y-67610003D01*
X87508865Y-67633639D01*
X87496049Y-67650127D01*
X87479538Y-67662085D01*
X87458865Y-67672132D01*
X87458765Y-67672175D01*
X87425518Y-67680848D01*
X87375655Y-67686789D01*
X87316338Y-67689143D01*
X87211848Y-67689610D01*
X87211848Y-67623931D01*
X87211848Y-67558252D01*
X87279572Y-67558252D01*
X87297924Y-67558280D01*
X87326387Y-67557470D01*
X87348364Y-67553359D01*
X87364694Y-67543375D01*
X87376214Y-67524945D01*
X87383761Y-67495497D01*
X87388172Y-67452457D01*
X87390287Y-67393253D01*
X87390941Y-67315313D01*
X87390973Y-67216062D01*
X87390973Y-66913400D01*
X87301410Y-66913400D01*
X87211848Y-66913400D01*
X87211848Y-66847720D01*
X87211848Y-66782041D01*
X87301410Y-66782041D01*
X87390973Y-66782041D01*
X87390973Y-66644711D01*
X87390973Y-66507382D01*
X87462623Y-66507382D01*
X87534274Y-66507382D01*
X87534274Y-66644711D01*
G37*
G36*
X86949130Y-67062671D02*
G01*
X86949130Y-67689610D01*
X86877480Y-67689610D01*
X86805830Y-67689610D01*
X86805830Y-67410878D01*
X86805568Y-67330390D01*
X86804193Y-67243191D01*
X86801226Y-67174098D01*
X86796212Y-67119837D01*
X86788692Y-67077135D01*
X86778212Y-67042718D01*
X86764315Y-67013312D01*
X86746545Y-66985644D01*
X86738629Y-66975508D01*
X86691173Y-66935850D01*
X86628322Y-66907544D01*
X86555919Y-66893415D01*
X86543614Y-66892654D01*
X86476548Y-66899150D01*
X86422271Y-66925319D01*
X86379152Y-66971889D01*
X86378851Y-66972340D01*
X86371007Y-66984814D01*
X86364864Y-66997902D01*
X86360216Y-67014513D01*
X86356853Y-67037555D01*
X86354567Y-67069937D01*
X86353152Y-67114568D01*
X86352398Y-67174355D01*
X86352099Y-67252209D01*
X86352045Y-67351038D01*
X86352045Y-67689610D01*
X86274424Y-67689610D01*
X86196803Y-67689610D01*
X86196803Y-67363722D01*
X86196882Y-67306155D01*
X86197534Y-67211311D01*
X86198962Y-67135799D01*
X86201306Y-67076621D01*
X86204704Y-67030781D01*
X86209296Y-66995282D01*
X86215220Y-66967126D01*
X86217178Y-66959842D01*
X86246181Y-66886155D01*
X86288064Y-66830921D01*
X86344457Y-66793010D01*
X86416988Y-66771293D01*
X86507287Y-66764641D01*
X86564820Y-66767400D01*
X86644019Y-66782926D01*
X86709583Y-66813465D01*
X86765650Y-66860556D01*
X86805830Y-66903158D01*
X86805830Y-66669445D01*
X86805830Y-66435732D01*
X86877480Y-66435732D01*
X86949130Y-66435732D01*
X86949130Y-67062671D01*
G37*
G36*
X82984485Y-67689610D02*
G01*
X82912835Y-67689610D01*
X82841185Y-67689610D01*
X82841185Y-67635873D01*
X82839833Y-67611114D01*
X82833709Y-67587353D01*
X82824427Y-67581878D01*
X82813968Y-67597481D01*
X82808374Y-67606714D01*
X82782595Y-67630185D01*
X82743368Y-67655270D01*
X82697080Y-67678165D01*
X82650118Y-67695066D01*
X82589051Y-67706445D01*
X82503349Y-67708150D01*
X82421933Y-67695317D01*
X82335745Y-67661694D01*
X82262732Y-67609458D01*
X82204005Y-67539979D01*
X82160679Y-67454628D01*
X82133867Y-67354777D01*
X82127346Y-67274558D01*
X82282735Y-67274558D01*
X82295114Y-67355830D01*
X82320836Y-67430500D01*
X82359718Y-67494048D01*
X82411579Y-67541952D01*
X82463103Y-67565168D01*
X82527751Y-67577775D01*
X82594804Y-67578137D01*
X82654598Y-67565324D01*
X82679456Y-67554541D01*
X82741367Y-67510785D01*
X82789155Y-67449167D01*
X82821651Y-67371505D01*
X82837692Y-67279620D01*
X82838380Y-67269482D01*
X82836099Y-67169260D01*
X82817105Y-67081982D01*
X82782392Y-67009216D01*
X82732950Y-66952532D01*
X82669772Y-66913500D01*
X82593849Y-66893691D01*
X82524368Y-66893880D01*
X82451260Y-66914521D01*
X82388151Y-66955938D01*
X82370244Y-66973869D01*
X82327451Y-67036340D01*
X82298722Y-67110292D01*
X82283877Y-67191205D01*
X82282735Y-67274558D01*
X82127346Y-67274558D01*
X82124683Y-67241796D01*
X82130273Y-67154322D01*
X82153478Y-67050831D01*
X82193094Y-66960732D01*
X82247382Y-66885473D01*
X82314601Y-66826495D01*
X82393012Y-66785245D01*
X82480877Y-66763167D01*
X82576455Y-66761704D01*
X82678007Y-66782302D01*
X82680515Y-66783081D01*
X82730458Y-66801734D01*
X82766644Y-66824116D01*
X82798682Y-66856102D01*
X82841185Y-66905757D01*
X82841185Y-66670744D01*
X82841185Y-66435732D01*
X82912835Y-66435732D01*
X82984485Y-66435732D01*
X82984485Y-67062671D01*
X82984485Y-67269482D01*
X82984485Y-67689610D01*
G37*
G36*
X81777488Y-67226093D02*
G01*
X81764115Y-67259532D01*
X81726062Y-67355189D01*
X81691262Y-67443411D01*
X81660665Y-67521747D01*
X81635217Y-67587744D01*
X81615866Y-67638951D01*
X81603560Y-67672915D01*
X81599248Y-67687184D01*
X81599565Y-67690030D01*
X81606044Y-67712694D01*
X81619165Y-67749184D01*
X81636663Y-67793087D01*
X81642083Y-67805772D01*
X81673569Y-67865512D01*
X81707158Y-67903800D01*
X81745268Y-67922701D01*
X81790315Y-67924277D01*
X81792006Y-67924053D01*
X81826998Y-67917714D01*
X81853650Y-67910185D01*
X81863752Y-67907441D01*
X81870752Y-67912858D01*
X81872889Y-67932524D01*
X81871563Y-67971212D01*
X81869493Y-68001839D01*
X81864676Y-68028391D01*
X81855120Y-68042038D01*
X81838082Y-68049167D01*
X81807481Y-68055489D01*
X81737046Y-68056092D01*
X81669930Y-68039295D01*
X81613996Y-68006594D01*
X81601201Y-67994068D01*
X81573765Y-67959580D01*
X81549272Y-67920476D01*
X81543161Y-67907311D01*
X81528696Y-67873069D01*
X81507813Y-67821909D01*
X81481529Y-67756439D01*
X81450855Y-67679267D01*
X81416808Y-67593001D01*
X81380400Y-67500251D01*
X81342647Y-67403623D01*
X81304562Y-67305726D01*
X81267159Y-67209169D01*
X81231453Y-67116558D01*
X81198457Y-67030504D01*
X81169187Y-66953613D01*
X81144655Y-66888494D01*
X81125877Y-66837756D01*
X81113867Y-66804005D01*
X81109638Y-66789852D01*
X81119144Y-66786081D01*
X81146570Y-66783159D01*
X81185637Y-66782041D01*
X81261637Y-66782041D01*
X81384330Y-67143277D01*
X81401014Y-67192267D01*
X81430084Y-67276982D01*
X81456421Y-67352916D01*
X81479047Y-67417300D01*
X81496984Y-67467361D01*
X81509255Y-67500328D01*
X81514884Y-67513432D01*
X81517767Y-67510234D01*
X81528085Y-67488336D01*
X81544655Y-67448115D01*
X81566485Y-67392129D01*
X81592585Y-67322939D01*
X81621964Y-67243103D01*
X81653630Y-67155181D01*
X81784516Y-66788012D01*
X81870123Y-66784521D01*
X81955729Y-66781030D01*
X81777488Y-67226093D01*
G37*
G36*
X92297532Y-67263013D02*
G01*
X92284943Y-67365579D01*
X92256820Y-67460093D01*
X92214106Y-67542497D01*
X92157742Y-67608734D01*
X92121973Y-67639436D01*
X92087696Y-67662684D01*
X92049701Y-67679626D01*
X91998113Y-67695638D01*
X91926724Y-67708506D01*
X91841756Y-67708060D01*
X91759461Y-67692508D01*
X91685939Y-67663077D01*
X91627292Y-67620995D01*
X91582511Y-67577288D01*
X91582511Y-67633449D01*
X91582511Y-67689610D01*
X91510860Y-67689610D01*
X91439210Y-67689610D01*
X91439210Y-67215726D01*
X91581281Y-67215726D01*
X91585723Y-67303862D01*
X91605329Y-67385491D01*
X91638955Y-67456887D01*
X91685457Y-67514326D01*
X91743691Y-67554081D01*
X91759863Y-67561028D01*
X91835685Y-67579490D01*
X91911220Y-67576651D01*
X91981853Y-67553195D01*
X92042968Y-67509805D01*
X92077344Y-67468591D01*
X92111937Y-67401516D01*
X92133059Y-67325441D01*
X92141053Y-67244675D01*
X92136261Y-67163528D01*
X92119028Y-67086308D01*
X92089696Y-67017325D01*
X92048608Y-66960886D01*
X91996108Y-66921302D01*
X91964074Y-66907349D01*
X91889069Y-66891511D01*
X91814663Y-66896567D01*
X91744790Y-66920815D01*
X91683389Y-66962556D01*
X91634396Y-67020087D01*
X91601748Y-67091707D01*
X91593145Y-67124807D01*
X91581281Y-67215726D01*
X91439210Y-67215726D01*
X91439210Y-67062671D01*
X91439210Y-66435732D01*
X91510860Y-66435732D01*
X91582511Y-66435732D01*
X91582511Y-66662624D01*
X91582722Y-66714451D01*
X91584035Y-66788811D01*
X91586480Y-66843766D01*
X91589978Y-66877831D01*
X91594452Y-66889516D01*
X91597289Y-66889190D01*
X91606394Y-66878148D01*
X91607117Y-66874747D01*
X91622169Y-66857189D01*
X91652507Y-66835192D01*
X91692562Y-66812054D01*
X91736767Y-66791076D01*
X91779555Y-66775554D01*
X91826566Y-66765094D01*
X91917731Y-66761176D01*
X92007172Y-66777042D01*
X92089588Y-66811470D01*
X92159678Y-66863237D01*
X92205158Y-66914022D01*
X92250387Y-66990110D01*
X92280403Y-67080745D01*
X92293645Y-67156450D01*
X92296863Y-67244675D01*
X92297532Y-67263013D01*
G37*
G36*
X85056082Y-66363191D02*
G01*
X85151579Y-66383606D01*
X85231820Y-66422070D01*
X85296471Y-66478398D01*
X85345198Y-66552407D01*
X85356591Y-66576638D01*
X85368327Y-66608110D01*
X85375042Y-66640847D01*
X85378082Y-66682381D01*
X85378796Y-66740245D01*
X85378284Y-66793692D01*
X85375603Y-66835686D01*
X85369167Y-66869264D01*
X85357390Y-66902446D01*
X85338690Y-66943254D01*
X85328135Y-66964142D01*
X85314278Y-66987818D01*
X85296942Y-67012743D01*
X85274169Y-67041110D01*
X85244004Y-67075112D01*
X85204490Y-67116940D01*
X85153671Y-67168788D01*
X85089591Y-67232847D01*
X85010293Y-67311312D01*
X84963552Y-67357292D01*
X84895073Y-67424148D01*
X84831625Y-67485505D01*
X84775587Y-67539093D01*
X84729337Y-67582642D01*
X84695255Y-67613881D01*
X84675721Y-67630541D01*
X84656899Y-67644344D01*
X84635116Y-67656675D01*
X84618358Y-67656881D01*
X84598100Y-67646743D01*
X84584742Y-67636180D01*
X84555703Y-67610280D01*
X84513802Y-67571442D01*
X84461195Y-67521705D01*
X84400039Y-67463112D01*
X84332490Y-67397701D01*
X84260706Y-67327513D01*
X84246354Y-67313410D01*
X84167087Y-67235268D01*
X84102820Y-67171271D01*
X84051667Y-67119325D01*
X84011738Y-67077337D01*
X83981147Y-67043214D01*
X83958005Y-67014863D01*
X83940424Y-66990190D01*
X83926517Y-66967102D01*
X83914396Y-66943505D01*
X83896421Y-66904709D01*
X83884303Y-66871564D01*
X83877604Y-66838461D01*
X83874744Y-66797429D01*
X83874142Y-66740496D01*
X83874143Y-66738398D01*
X83875270Y-66677308D01*
X83879236Y-66632790D01*
X83887071Y-66597804D01*
X83899807Y-66565309D01*
X83930807Y-66511098D01*
X83989793Y-66446729D01*
X84064462Y-66399603D01*
X84153671Y-66370380D01*
X84256276Y-66359718D01*
X84270379Y-66359725D01*
X84344415Y-66366457D01*
X84411805Y-66386364D01*
X84478822Y-66421903D01*
X84551737Y-66475533D01*
X84556715Y-66479574D01*
X84589874Y-66505769D01*
X84614817Y-66524261D01*
X84626469Y-66531265D01*
X84627106Y-66531119D01*
X84640911Y-66522290D01*
X84667301Y-66502500D01*
X84701201Y-66475533D01*
X84714659Y-66464737D01*
X84786090Y-66414449D01*
X84852719Y-66381822D01*
X84920819Y-66364398D01*
X84996662Y-66359718D01*
X85056082Y-66363191D01*
G37*
G36*
X91161058Y-67194030D02*
G01*
X91159072Y-67301532D01*
X91139283Y-67406574D01*
X91102659Y-67501073D01*
X91050417Y-67580775D01*
X91040453Y-67591772D01*
X90987363Y-67635098D01*
X90920893Y-67671940D01*
X90849487Y-67697397D01*
X90791690Y-67706729D01*
X90710278Y-67707829D01*
X90627409Y-67698120D01*
X90553653Y-67678282D01*
X90493183Y-67647461D01*
X90429332Y-67592079D01*
X90380167Y-67520526D01*
X90348272Y-67435849D01*
X90340119Y-67403009D01*
X90411437Y-67403009D01*
X90482756Y-67403009D01*
X90505465Y-67453762D01*
X90532140Y-67501448D01*
X90570242Y-67538848D01*
X90623398Y-67564834D01*
X90644237Y-67571357D01*
X90719342Y-67581329D01*
X90793467Y-67572434D01*
X90862368Y-67546683D01*
X90921801Y-67506091D01*
X90967520Y-67452670D01*
X90995281Y-67388434D01*
X90997400Y-67380235D01*
X91005220Y-67351710D01*
X91010252Y-67329383D01*
X91010154Y-67312502D01*
X91002581Y-67300315D01*
X90985191Y-67292069D01*
X90955641Y-67287010D01*
X90911586Y-67284385D01*
X90850686Y-67283443D01*
X90770595Y-67283430D01*
X90668970Y-67283592D01*
X90328632Y-67283592D01*
X90328632Y-67220422D01*
X90328987Y-67204779D01*
X90337501Y-67136448D01*
X90483874Y-67136448D01*
X90484215Y-67138116D01*
X90491428Y-67143059D01*
X90509925Y-67146765D01*
X90542225Y-67149384D01*
X90590847Y-67151068D01*
X90658310Y-67151967D01*
X90747133Y-67152234D01*
X91010391Y-67152234D01*
X91002283Y-67107452D01*
X90986628Y-67052849D01*
X90950269Y-66989652D01*
X90900098Y-66941115D01*
X90839862Y-66908505D01*
X90773309Y-66893086D01*
X90704189Y-66896123D01*
X90636248Y-66918882D01*
X90573235Y-66962627D01*
X90547491Y-66990672D01*
X90515124Y-67039772D01*
X90492431Y-67091259D01*
X90483874Y-67136448D01*
X90337501Y-67136448D01*
X90338809Y-67125947D01*
X90359784Y-67044144D01*
X90388801Y-66972206D01*
X90439320Y-66895391D01*
X90506164Y-66832638D01*
X90584850Y-66788870D01*
X90672867Y-66765087D01*
X90767708Y-66762290D01*
X90866862Y-66781481D01*
X90871346Y-66782851D01*
X90917220Y-66798781D01*
X90952811Y-66816983D01*
X90986674Y-66842790D01*
X91027363Y-66881536D01*
X91028187Y-66882362D01*
X91085351Y-66949145D01*
X91124797Y-67019252D01*
X91149156Y-67098831D01*
X91155833Y-67152234D01*
X91161058Y-67194030D01*
G37*
G36*
X94543644Y-66775374D02*
G01*
X94614420Y-66804978D01*
X94676671Y-66850054D01*
X94735120Y-66904726D01*
X94735120Y-66843384D01*
X94735120Y-66782041D01*
X94806770Y-66782041D01*
X94878420Y-66782041D01*
X94878420Y-67235826D01*
X94878420Y-67689610D01*
X94807504Y-67689610D01*
X94736588Y-67689610D01*
X94732868Y-67382111D01*
X94732100Y-67320121D01*
X94730909Y-67239893D01*
X94729483Y-67178319D01*
X94727522Y-67132199D01*
X94724731Y-67098332D01*
X94720810Y-67073519D01*
X94715463Y-67054560D01*
X94708390Y-67038255D01*
X94699295Y-67021405D01*
X94685382Y-66999365D01*
X94640674Y-66950908D01*
X94587377Y-66916424D01*
X94529662Y-66896469D01*
X94471701Y-66891602D01*
X94417669Y-66902381D01*
X94371736Y-66929364D01*
X94338077Y-66973108D01*
X94332093Y-66987216D01*
X94327181Y-67005449D01*
X94323464Y-67030149D01*
X94320779Y-67064220D01*
X94318969Y-67110564D01*
X94317872Y-67172084D01*
X94317329Y-67251680D01*
X94317179Y-67352257D01*
X94317160Y-67689610D01*
X94239539Y-67689610D01*
X94161918Y-67689610D01*
X94161918Y-67372679D01*
X94161791Y-67277381D01*
X94161277Y-67201357D01*
X94160184Y-67143123D01*
X94158319Y-67099614D01*
X94155491Y-67067759D01*
X94151508Y-67044491D01*
X94146176Y-67026741D01*
X94139305Y-67011443D01*
X94116151Y-66973087D01*
X94076377Y-66933619D01*
X94022394Y-66906817D01*
X93999806Y-66899778D01*
X93932203Y-66890504D01*
X93869997Y-66898735D01*
X93817766Y-66923401D01*
X93780090Y-66963433D01*
X93775045Y-66972237D01*
X93769096Y-66985847D01*
X93764529Y-67003162D01*
X93761161Y-67027065D01*
X93758810Y-67060438D01*
X93757295Y-67106164D01*
X93756433Y-67167126D01*
X93756044Y-67246206D01*
X93755945Y-67346286D01*
X93755900Y-67689610D01*
X93678279Y-67689610D01*
X93600658Y-67689610D01*
X93600725Y-67334345D01*
X93600863Y-67274132D01*
X93601837Y-67168460D01*
X93603693Y-67079604D01*
X93606374Y-67009329D01*
X93609822Y-66959400D01*
X93613978Y-66931581D01*
X93619546Y-66914821D01*
X93653027Y-66859176D01*
X93704225Y-66813947D01*
X93769317Y-66781217D01*
X93844479Y-66763070D01*
X93925886Y-66761591D01*
X93985185Y-66772519D01*
X94052509Y-66796626D01*
X94112094Y-66829605D01*
X94155890Y-66867742D01*
X94163092Y-66876073D01*
X94181260Y-66894696D01*
X94190160Y-66899972D01*
X94191393Y-66898267D01*
X94202617Y-66882247D01*
X94220529Y-66856406D01*
X94265620Y-66810412D01*
X94325329Y-66778760D01*
X94394581Y-66762328D01*
X94468858Y-66761178D01*
X94543644Y-66775374D01*
G37*
G36*
X89037582Y-66826822D02*
G01*
X89037800Y-66827672D01*
X89043966Y-66852274D01*
X89054884Y-66896358D01*
X89069696Y-66956433D01*
X89087543Y-67029010D01*
X89107564Y-67110599D01*
X89128900Y-67197710D01*
X89132455Y-67212213D01*
X89152971Y-67295065D01*
X89171654Y-67369104D01*
X89187752Y-67431450D01*
X89200512Y-67479221D01*
X89209180Y-67509537D01*
X89213004Y-67519515D01*
X89213333Y-67518888D01*
X89218594Y-67502685D01*
X89229166Y-67466944D01*
X89244208Y-67414608D01*
X89262883Y-67348618D01*
X89284350Y-67271914D01*
X89307770Y-67187438D01*
X89310621Y-67177110D01*
X89334458Y-67090991D01*
X89356682Y-67011085D01*
X89376348Y-66940754D01*
X89392515Y-66883363D01*
X89404238Y-66842274D01*
X89410574Y-66820851D01*
X89414386Y-66809232D01*
X89422303Y-66793529D01*
X89435795Y-66785455D01*
X89460964Y-66782471D01*
X89503913Y-66782041D01*
X89584910Y-66782041D01*
X89443975Y-67219426D01*
X89438294Y-67237053D01*
X89406994Y-67334081D01*
X89377981Y-67423866D01*
X89352091Y-67503825D01*
X89330164Y-67571375D01*
X89313037Y-67623936D01*
X89301549Y-67658925D01*
X89296536Y-67673760D01*
X89295624Y-67675701D01*
X89283361Y-67684219D01*
X89256294Y-67687816D01*
X89210017Y-67687174D01*
X89130002Y-67683639D01*
X89038713Y-67326254D01*
X89027770Y-67283659D01*
X89005795Y-67199665D01*
X88985849Y-67125450D01*
X88968686Y-67063692D01*
X88955057Y-67017069D01*
X88945715Y-66988261D01*
X88941412Y-66979944D01*
X88940486Y-66982438D01*
X88934249Y-67003985D01*
X88923242Y-67044697D01*
X88908238Y-67101631D01*
X88890007Y-67171841D01*
X88869322Y-67252384D01*
X88846954Y-67340315D01*
X88758508Y-67689610D01*
X88678722Y-67689610D01*
X88656464Y-67689564D01*
X88622857Y-67688219D01*
X88604129Y-67683041D01*
X88594121Y-67671434D01*
X88586673Y-67650800D01*
X88571940Y-67604272D01*
X88551025Y-67538425D01*
X88526802Y-67462317D01*
X88500230Y-67378950D01*
X88472270Y-67291324D01*
X88443880Y-67202442D01*
X88416021Y-67115305D01*
X88389653Y-67032915D01*
X88365734Y-66958274D01*
X88345226Y-66894383D01*
X88329087Y-66844244D01*
X88318277Y-66810858D01*
X88313757Y-66797228D01*
X88313220Y-66795238D01*
X88319377Y-66787457D01*
X88342833Y-66783283D01*
X88386828Y-66782041D01*
X88426256Y-66782638D01*
X88454822Y-66784233D01*
X88465726Y-66786475D01*
X88466249Y-66789104D01*
X88471635Y-66810292D01*
X88482100Y-66849692D01*
X88496707Y-66903896D01*
X88514520Y-66969496D01*
X88534602Y-67043084D01*
X88556019Y-67121254D01*
X88577833Y-67200598D01*
X88599109Y-67277708D01*
X88618909Y-67349176D01*
X88636299Y-67411595D01*
X88650342Y-67461558D01*
X88660101Y-67495657D01*
X88664640Y-67510485D01*
X88665942Y-67513314D01*
X88673100Y-67514521D01*
X88681365Y-67492572D01*
X88681989Y-67490217D01*
X88688426Y-67465442D01*
X88699755Y-67421469D01*
X88715133Y-67361588D01*
X88733715Y-67289089D01*
X88754658Y-67207261D01*
X88777117Y-67119394D01*
X88863290Y-66782041D01*
X88944678Y-66782041D01*
X89026066Y-66782041D01*
X89037582Y-66826822D01*
G37*
G36*
X93337359Y-67455702D02*
G01*
X93325474Y-67536983D01*
X93312766Y-67571363D01*
X93273036Y-67628564D01*
X93214474Y-67672208D01*
X93138305Y-67701217D01*
X93112949Y-67705688D01*
X93055173Y-67708521D01*
X92989255Y-67705322D01*
X92924603Y-67696720D01*
X92870621Y-67683343D01*
X92852584Y-67676101D01*
X92806831Y-67651445D01*
X92766118Y-67622341D01*
X92747708Y-67606908D01*
X92727022Y-67592268D01*
X92716160Y-67591242D01*
X92710333Y-67602091D01*
X92690031Y-67652038D01*
X92658654Y-67689436D01*
X92615786Y-67707595D01*
X92558460Y-67708597D01*
X92540353Y-67706404D01*
X92507873Y-67700849D01*
X92489795Y-67695405D01*
X92486056Y-67690050D01*
X92480375Y-67665914D01*
X92478138Y-67630853D01*
X92478424Y-67605093D01*
X92481500Y-67583996D01*
X92490826Y-67577351D01*
X92509859Y-67579569D01*
X92525107Y-67581720D01*
X92540237Y-67580205D01*
X92551861Y-67571833D01*
X92560437Y-67554170D01*
X92566426Y-67524786D01*
X92570284Y-67481248D01*
X92572472Y-67421125D01*
X92573448Y-67341983D01*
X92573462Y-67335522D01*
X92728914Y-67335522D01*
X92729201Y-67377313D01*
X92731330Y-67413687D01*
X92737087Y-67438506D01*
X92748249Y-67458629D01*
X92766594Y-67480918D01*
X92775591Y-67490529D01*
X92812196Y-67522530D01*
X92848775Y-67546536D01*
X92868459Y-67554790D01*
X92920691Y-67568075D01*
X92980576Y-67575635D01*
X93038144Y-67576489D01*
X93083428Y-67569654D01*
X93088938Y-67567839D01*
X93133574Y-67540651D01*
X93161256Y-67497389D01*
X93170757Y-67439881D01*
X93170541Y-67428128D01*
X93164286Y-67385355D01*
X93147409Y-67351593D01*
X93117258Y-67325049D01*
X93071180Y-67303931D01*
X93006524Y-67286444D01*
X92920637Y-67270797D01*
X92869720Y-67262534D01*
X92817965Y-67253586D01*
X92778018Y-67246073D01*
X92755783Y-67241061D01*
X92742948Y-67238195D01*
X92734962Y-67241848D01*
X92730781Y-67256401D01*
X92729176Y-67286183D01*
X92728914Y-67335522D01*
X92573462Y-67335522D01*
X92573672Y-67241392D01*
X92573680Y-67201681D01*
X92573858Y-67117643D01*
X92574465Y-67052935D01*
X92575757Y-67004304D01*
X92577990Y-66968494D01*
X92581421Y-66942254D01*
X92586306Y-66922328D01*
X92592900Y-66905465D01*
X92601460Y-66888409D01*
X92622985Y-66855013D01*
X92653384Y-66826889D01*
X92698940Y-66800053D01*
X92707942Y-66795476D01*
X92738834Y-66781115D01*
X92766918Y-66771993D01*
X92798863Y-66766926D01*
X92841343Y-66764732D01*
X92901030Y-66764228D01*
X92902558Y-66764228D01*
X93013648Y-66770959D01*
X93105543Y-66791318D01*
X93178978Y-66825778D01*
X93234687Y-66874811D01*
X93273405Y-66938891D01*
X93295865Y-67018489D01*
X93304418Y-67069841D01*
X93229076Y-67066256D01*
X93153735Y-67062671D01*
X93145266Y-67021047D01*
X93140833Y-67005576D01*
X93113440Y-66961331D01*
X93069099Y-66924806D01*
X93012997Y-66900716D01*
X92964155Y-66892939D01*
X92900671Y-66893075D01*
X92838991Y-66901999D01*
X92789618Y-66918856D01*
X92785554Y-66921104D01*
X92751158Y-66952823D01*
X92726445Y-66997444D01*
X92716972Y-67045293D01*
X92716975Y-67045735D01*
X92727486Y-67075379D01*
X92753689Y-67106054D01*
X92788700Y-67131434D01*
X92825636Y-67145191D01*
X92834243Y-67146603D01*
X92871058Y-67152657D01*
X92920286Y-67160763D01*
X92973719Y-67169569D01*
X93001589Y-67174286D01*
X93081520Y-67189888D01*
X93143196Y-67206267D01*
X93190932Y-67225016D01*
X93229041Y-67247728D01*
X93261838Y-67275997D01*
X93293203Y-67313194D01*
X93326510Y-67380729D01*
X93335070Y-67439881D01*
X93337359Y-67455702D01*
G37*
%TD*%
%LPC*%
D14*
%TO.C,J4*%
X85763500Y-100483500D02*
X84736500Y-100483500D01*
X84736500Y-98366500D01*
X85763500Y-98366500D01*
X85763500Y-100483500D01*
G36*
X85763500Y-100483500D02*
G01*
X84736500Y-100483500D01*
X84736500Y-98366500D01*
X85763500Y-98366500D01*
X85763500Y-100483500D01*
G37*
X86943500Y-100483500D02*
X86016500Y-100483500D01*
X86016500Y-98366500D01*
X86943500Y-98366500D01*
X86943500Y-100483500D01*
G36*
X86943500Y-100483500D02*
G01*
X86016500Y-100483500D01*
X86016500Y-98366500D01*
X86943500Y-98366500D01*
X86943500Y-100483500D01*
G37*
X87913500Y-100483500D02*
X87086500Y-100483500D01*
X87086500Y-98366500D01*
X87913500Y-98366500D01*
X87913500Y-100483500D01*
G36*
X87913500Y-100483500D02*
G01*
X87086500Y-100483500D01*
X87086500Y-98366500D01*
X87913500Y-98366500D01*
X87913500Y-100483500D01*
G37*
X88913500Y-100483500D02*
X88086500Y-100483500D01*
X88086500Y-98366500D01*
X88913500Y-98366500D01*
X88913500Y-100483500D01*
G36*
X88913500Y-100483500D02*
G01*
X88086500Y-100483500D01*
X88086500Y-98366500D01*
X88913500Y-98366500D01*
X88913500Y-100483500D01*
G37*
X89983500Y-100483500D02*
X89056500Y-100483500D01*
X89056500Y-98366500D01*
X89983500Y-98366500D01*
X89983500Y-100483500D01*
G36*
X89983500Y-100483500D02*
G01*
X89056500Y-100483500D01*
X89056500Y-98366500D01*
X89983500Y-98366500D01*
X89983500Y-100483500D01*
G37*
X91263500Y-100483500D02*
X90236500Y-100483500D01*
X90236500Y-98366500D01*
X91263500Y-98366500D01*
X91263500Y-100483500D01*
G36*
X91263500Y-100483500D02*
G01*
X90236500Y-100483500D01*
X90236500Y-98366500D01*
X91263500Y-98366500D01*
X91263500Y-100483500D01*
G37*
%TD*%
D15*
%TO.C,JP1*%
X89400000Y-88450000D03*
D16*
X89400000Y-87150000D03*
%TD*%
D17*
%TO.C,J2*%
X65600000Y-123900000D03*
D18*
X65600000Y-126440000D03*
X65600000Y-128980000D03*
X65600000Y-131520000D03*
X65600000Y-134060000D03*
X65600000Y-136600000D03*
%TD*%
D19*
%TO.C,J4*%
X83680000Y-98630000D03*
X92320000Y-98630000D03*
%TD*%
D20*
%TO.C,J1*%
X88600000Y-93750000D03*
X86200000Y-93750000D03*
X85000000Y-93750000D03*
X87400000Y-93750000D03*
X89800000Y-93750000D03*
X91000000Y-93750000D03*
D21*
X92330000Y-93520000D03*
X83670000Y-93520000D03*
%TD*%
D22*
%TO.C,D2*%
X86200000Y-85800000D03*
X86200000Y-89800000D03*
%TD*%
D23*
%TO.C,U1*%
X67680014Y-78849581D03*
X67680014Y-76309581D03*
X67680014Y-73769581D03*
X67680014Y-71229581D03*
X67680014Y-68689581D03*
X67680014Y-66149581D03*
X67680014Y-63609581D03*
X67680014Y-61069581D03*
X67680014Y-58529581D03*
X67680014Y-55989581D03*
X67680014Y-53449581D03*
X67680014Y-50909581D03*
X67680014Y-48369581D03*
X67680014Y-45829581D03*
X67680014Y-43289581D03*
X70220014Y-78849581D03*
X70220014Y-76309581D03*
X70220014Y-73769581D03*
X70220014Y-71229581D03*
X70220014Y-68689581D03*
X70220014Y-66149581D03*
X70220014Y-63609581D03*
X70220014Y-61069581D03*
X70220014Y-58529581D03*
X70220014Y-55989581D03*
X70220014Y-53449581D03*
X70220014Y-50909581D03*
X70220014Y-48369581D03*
X70220014Y-45829581D03*
X70220014Y-43289581D03*
%TD*%
D24*
%TO.C,J3*%
X65700000Y-109900000D03*
D25*
X65700000Y-111900000D03*
%TD*%
%LPD*%
M02*
