%TF.GenerationSoftware,KiCad,Pcbnew,8.0.5*%
%TF.CreationDate,2024-09-26T19:22:18+05:30*%
%TF.ProjectId,AirOwl_v1,4169724f-776c-45f7-9631-2e6b69636164,rev?*%
%TF.SameCoordinates,Original*%
%TF.FileFunction,Legend,Top*%
%TF.FilePolarity,Positive*%
%FSLAX46Y46*%
G04 Gerber Fmt 4.6, Leading zero omitted, Abs format (unit mm)*
G04 Created by KiCad (PCBNEW 8.0.5) date 2024-09-26 19:22:18*
%MOMM*%
%LPD*%
G01*
G04 APERTURE LIST*
G04 Aperture macros list*
%AMRoundRect*
0 Rectangle with rounded corners*
0 $1 Rounding radius*
0 $2 $3 $4 $5 $6 $7 $8 $9 X,Y pos of 4 corners*
0 Add a 4 corners polygon primitive as box body*
4,1,4,$2,$3,$4,$5,$6,$7,$8,$9,$2,$3,0*
0 Add four circle primitives for the rounded corners*
1,1,$1+$1,$2,$3*
1,1,$1+$1,$4,$5*
1,1,$1+$1,$6,$7*
1,1,$1+$1,$8,$9*
0 Add four rect primitives between the rounded corners*
20,1,$1+$1,$2,$3,$4,$5,0*
20,1,$1+$1,$4,$5,$6,$7,0*
20,1,$1+$1,$6,$7,$8,$9,0*
20,1,$1+$1,$8,$9,$2,$3,0*%
G04 Aperture macros list end*
%ADD10C,0.100000*%
%ADD11C,0.150000*%
%ADD12C,0.000000*%
%ADD13C,0.120000*%
%ADD14C,0.200000*%
%ADD15RoundRect,0.250000X0.350000X0.450000X-0.350000X0.450000X-0.350000X-0.450000X0.350000X-0.450000X0*%
%ADD16R,1.700000X1.700000*%
%ADD17O,1.700000X1.700000*%
%ADD18O,1.152400X1.852400*%
%ADD19O,0.750000X0.750000*%
%ADD20O,1.500000X2.800000*%
%ADD21C,1.800000*%
%ADD22RoundRect,0.250000X-0.625000X0.350000X-0.625000X-0.350000X0.625000X-0.350000X0.625000X0.350000X0*%
%ADD23O,1.750000X1.200000*%
G04 APERTURE END LIST*
D10*
G36*
X70294522Y-134733530D02*
G01*
X67595154Y-134733530D01*
X67595154Y-133762895D01*
X67706265Y-133762895D01*
X67706265Y-133858133D01*
X67706753Y-133860589D01*
X67706391Y-133861678D01*
X67708507Y-133869405D01*
X67710071Y-133877267D01*
X67710882Y-133878078D01*
X67711544Y-133880494D01*
X67759162Y-133975731D01*
X67764077Y-133982064D01*
X67768529Y-133988726D01*
X67816147Y-134036345D01*
X67822813Y-134040799D01*
X67829142Y-134045711D01*
X67924380Y-134093330D01*
X67929661Y-134094776D01*
X67934614Y-134097116D01*
X68119766Y-134143404D01*
X68202837Y-134184939D01*
X68238981Y-134221084D01*
X68277693Y-134298507D01*
X68277693Y-134370138D01*
X68238981Y-134447561D01*
X68202835Y-134483708D01*
X68125414Y-134522419D01*
X67907235Y-134522419D01*
X67772076Y-134477366D01*
X67752721Y-134474926D01*
X67718492Y-134492040D01*
X67706391Y-134528344D01*
X67723505Y-134562573D01*
X67740454Y-134572234D01*
X67883310Y-134619853D01*
X67891260Y-134620855D01*
X67899122Y-134622419D01*
X68137217Y-134622419D01*
X68139673Y-134621930D01*
X68140762Y-134622293D01*
X68148489Y-134620176D01*
X68156351Y-134618613D01*
X68157162Y-134617801D01*
X68159578Y-134617140D01*
X68254815Y-134569522D01*
X68261142Y-134564611D01*
X68267811Y-134560155D01*
X68315430Y-134512535D01*
X68319883Y-134505869D01*
X68324795Y-134499541D01*
X68372414Y-134404303D01*
X68373075Y-134401887D01*
X68373887Y-134401076D01*
X68375450Y-134393214D01*
X68377567Y-134385487D01*
X68377204Y-134384398D01*
X68377693Y-134381942D01*
X68377693Y-134286704D01*
X68377204Y-134284247D01*
X68377567Y-134283159D01*
X68375450Y-134275431D01*
X68373887Y-134267570D01*
X68373075Y-134266758D01*
X68372414Y-134264343D01*
X68324795Y-134169105D01*
X68319883Y-134162776D01*
X68315429Y-134156110D01*
X68267810Y-134108492D01*
X68261148Y-134104040D01*
X68254815Y-134099125D01*
X68159578Y-134051507D01*
X68154296Y-134050060D01*
X68149344Y-134047721D01*
X67964193Y-134001433D01*
X67881121Y-133959897D01*
X67844976Y-133923753D01*
X67806265Y-133846330D01*
X67806265Y-133774698D01*
X67844976Y-133697274D01*
X67881121Y-133661130D01*
X67958545Y-133622419D01*
X68176723Y-133622419D01*
X68311881Y-133667472D01*
X68331237Y-133669912D01*
X68365465Y-133652798D01*
X68377567Y-133616494D01*
X68360452Y-133582265D01*
X68343504Y-133572604D01*
X68342949Y-133572419D01*
X68706265Y-133572419D01*
X68706265Y-134572419D01*
X68710071Y-134591553D01*
X68737131Y-134618613D01*
X68756265Y-134622419D01*
X69232455Y-134622419D01*
X69251589Y-134618613D01*
X69278649Y-134591553D01*
X69278649Y-134553285D01*
X69251589Y-134526225D01*
X69232455Y-134522419D01*
X68806265Y-134522419D01*
X68806265Y-134098609D01*
X69089598Y-134098609D01*
X69108732Y-134094803D01*
X69135792Y-134067743D01*
X69135792Y-134029475D01*
X69108732Y-134002415D01*
X69089598Y-133998609D01*
X68806265Y-133998609D01*
X68806265Y-133622419D01*
X69232455Y-133622419D01*
X69251589Y-133618613D01*
X69278649Y-133591553D01*
X69278649Y-133572419D01*
X69611027Y-133572419D01*
X69611027Y-134572419D01*
X69614833Y-134591553D01*
X69641893Y-134618613D01*
X69661027Y-134622419D01*
X70137217Y-134622419D01*
X70156351Y-134618613D01*
X70183411Y-134591553D01*
X70183411Y-134553285D01*
X70156351Y-134526225D01*
X70137217Y-134522419D01*
X69711027Y-134522419D01*
X69711027Y-133572419D01*
X69707221Y-133553285D01*
X69680161Y-133526225D01*
X69641893Y-133526225D01*
X69614833Y-133553285D01*
X69611027Y-133572419D01*
X69278649Y-133572419D01*
X69278649Y-133553285D01*
X69251589Y-133526225D01*
X69232455Y-133522419D01*
X68756265Y-133522419D01*
X68737131Y-133526225D01*
X68710071Y-133553285D01*
X68706265Y-133572419D01*
X68342949Y-133572419D01*
X68200647Y-133524985D01*
X68192698Y-133523982D01*
X68184836Y-133522419D01*
X67946741Y-133522419D01*
X67944284Y-133522907D01*
X67943196Y-133522545D01*
X67935468Y-133524661D01*
X67927607Y-133526225D01*
X67926795Y-133527036D01*
X67924380Y-133527698D01*
X67829142Y-133575317D01*
X67822813Y-133580228D01*
X67816147Y-133584683D01*
X67768529Y-133632302D01*
X67764077Y-133638963D01*
X67759162Y-133645297D01*
X67711544Y-133740534D01*
X67710882Y-133742949D01*
X67710071Y-133743761D01*
X67708507Y-133751622D01*
X67706391Y-133759350D01*
X67706753Y-133760438D01*
X67706265Y-133762895D01*
X67595154Y-133762895D01*
X67595154Y-133411308D01*
X70294522Y-133411308D01*
X70294522Y-134733530D01*
G37*
G36*
X70205446Y-126063739D02*
G01*
X70286599Y-126144892D01*
X70328136Y-126227966D01*
X70372931Y-126407145D01*
X70372931Y-126537692D01*
X70328136Y-126716870D01*
X70286599Y-126799944D01*
X70205445Y-126881098D01*
X70081485Y-126922419D01*
X69901503Y-126922419D01*
X69901503Y-126022419D01*
X70081485Y-126022419D01*
X70205446Y-126063739D01*
G37*
G36*
X70584042Y-127133530D02*
G01*
X67595154Y-127133530D01*
X67595154Y-126400990D01*
X67706265Y-126400990D01*
X67706265Y-126543847D01*
X67707460Y-126549856D01*
X67707758Y-126555974D01*
X67755377Y-126746450D01*
X67757716Y-126751402D01*
X67759163Y-126756684D01*
X67806781Y-126851921D01*
X67811692Y-126858249D01*
X67816147Y-126864916D01*
X67911386Y-126960155D01*
X67913467Y-126961545D01*
X67913981Y-126962573D01*
X67920946Y-126966543D01*
X67927607Y-126970994D01*
X67928755Y-126970994D01*
X67930930Y-126972234D01*
X68073786Y-127019853D01*
X68081736Y-127020855D01*
X68089598Y-127022419D01*
X68184836Y-127022419D01*
X68192698Y-127020855D01*
X68200647Y-127019853D01*
X68343504Y-126972234D01*
X68345679Y-126970994D01*
X68346828Y-126970994D01*
X68353498Y-126966536D01*
X68360452Y-126962573D01*
X68360964Y-126961547D01*
X68363049Y-126960155D01*
X68410668Y-126912535D01*
X68421506Y-126896314D01*
X68425312Y-126877180D01*
X68425312Y-126543847D01*
X68421506Y-126524713D01*
X68394446Y-126497653D01*
X68375312Y-126493847D01*
X68184836Y-126493847D01*
X68165702Y-126497653D01*
X68138642Y-126524713D01*
X68138642Y-126562981D01*
X68165702Y-126590041D01*
X68184836Y-126593847D01*
X68325312Y-126593847D01*
X68325312Y-126856469D01*
X68300683Y-126881098D01*
X68176723Y-126922419D01*
X68097711Y-126922419D01*
X67973751Y-126881099D01*
X67892595Y-126799942D01*
X67851060Y-126716872D01*
X67806265Y-126537692D01*
X67806265Y-126407145D01*
X67851060Y-126227965D01*
X67892596Y-126144893D01*
X67973749Y-126063739D01*
X68097711Y-126022419D01*
X68220652Y-126022419D01*
X68305332Y-126064759D01*
X68324148Y-126069912D01*
X68360453Y-126057810D01*
X68377567Y-126023582D01*
X68365465Y-125987278D01*
X68350053Y-125975316D01*
X68344259Y-125972419D01*
X68753884Y-125972419D01*
X68753884Y-126972419D01*
X68757690Y-126991553D01*
X68784750Y-127018613D01*
X68823018Y-127018613D01*
X68850078Y-126991553D01*
X68853884Y-126972419D01*
X68853884Y-126160697D01*
X69331900Y-126997226D01*
X69344698Y-127011951D01*
X69351322Y-127013757D01*
X69356178Y-127018613D01*
X69369126Y-127018613D01*
X69381618Y-127022020D01*
X69387580Y-127018613D01*
X69394446Y-127018613D01*
X69403599Y-127009459D01*
X69414844Y-127003034D01*
X69416651Y-126996407D01*
X69421506Y-126991553D01*
X69425312Y-126972419D01*
X69425312Y-125972419D01*
X69801503Y-125972419D01*
X69801503Y-126972419D01*
X69805309Y-126991553D01*
X69832369Y-127018613D01*
X69851503Y-127022419D01*
X70089598Y-127022419D01*
X70097460Y-127020855D01*
X70105409Y-127019853D01*
X70248266Y-126972234D01*
X70250441Y-126970994D01*
X70251590Y-126970994D01*
X70258260Y-126966536D01*
X70265214Y-126962573D01*
X70265726Y-126961547D01*
X70267811Y-126960155D01*
X70363049Y-126864916D01*
X70367502Y-126858250D01*
X70372414Y-126851922D01*
X70420033Y-126756684D01*
X70421479Y-126751402D01*
X70423819Y-126746450D01*
X70471438Y-126555974D01*
X70471735Y-126549856D01*
X70472931Y-126543847D01*
X70472931Y-126400990D01*
X70471735Y-126394980D01*
X70471438Y-126388863D01*
X70423819Y-126198387D01*
X70421479Y-126193434D01*
X70420033Y-126188153D01*
X70372414Y-126092915D01*
X70367498Y-126086580D01*
X70363048Y-126079921D01*
X70267810Y-125984683D01*
X70265727Y-125983291D01*
X70265214Y-125982265D01*
X70258253Y-125978297D01*
X70251589Y-125973844D01*
X70250441Y-125973844D01*
X70248266Y-125972604D01*
X70105409Y-125924985D01*
X70097460Y-125923982D01*
X70089598Y-125922419D01*
X69851503Y-125922419D01*
X69832369Y-125926225D01*
X69805309Y-125953285D01*
X69801503Y-125972419D01*
X69425312Y-125972419D01*
X69421506Y-125953285D01*
X69394446Y-125926225D01*
X69356178Y-125926225D01*
X69329118Y-125953285D01*
X69325312Y-125972419D01*
X69325312Y-126784140D01*
X68847296Y-125947612D01*
X68834499Y-125932887D01*
X68827872Y-125931079D01*
X68823018Y-125926225D01*
X68810071Y-125926225D01*
X68797578Y-125922818D01*
X68791616Y-125926225D01*
X68784750Y-125926225D01*
X68775596Y-125935378D01*
X68764352Y-125941804D01*
X68762544Y-125948430D01*
X68757690Y-125953285D01*
X68753884Y-125972419D01*
X68344259Y-125972419D01*
X68254816Y-125927698D01*
X68252400Y-125927036D01*
X68251589Y-125926225D01*
X68243727Y-125924661D01*
X68236000Y-125922545D01*
X68234911Y-125922907D01*
X68232455Y-125922419D01*
X68089598Y-125922419D01*
X68081736Y-125923982D01*
X68073786Y-125924985D01*
X67930930Y-125972604D01*
X67928755Y-125973844D01*
X67927607Y-125973844D01*
X67920946Y-125978294D01*
X67913981Y-125982265D01*
X67913467Y-125983292D01*
X67911386Y-125984683D01*
X67816148Y-126079921D01*
X67811696Y-126086582D01*
X67806781Y-126092916D01*
X67759163Y-126188153D01*
X67757716Y-126193434D01*
X67755377Y-126198387D01*
X67707758Y-126388863D01*
X67707460Y-126394980D01*
X67706265Y-126400990D01*
X67595154Y-126400990D01*
X67595154Y-125811308D01*
X70584042Y-125811308D01*
X70584042Y-127133530D01*
G37*
G36*
X70389760Y-132233530D02*
G01*
X67595154Y-132233530D01*
X67595154Y-131262895D01*
X67706265Y-131262895D01*
X67706265Y-131358133D01*
X67706753Y-131360589D01*
X67706391Y-131361678D01*
X67708507Y-131369405D01*
X67710071Y-131377267D01*
X67710882Y-131378078D01*
X67711544Y-131380494D01*
X67759162Y-131475731D01*
X67764077Y-131482064D01*
X67768529Y-131488726D01*
X67816147Y-131536345D01*
X67822813Y-131540799D01*
X67829142Y-131545711D01*
X67924380Y-131593330D01*
X67929661Y-131594776D01*
X67934614Y-131597116D01*
X68119766Y-131643404D01*
X68202837Y-131684939D01*
X68238981Y-131721084D01*
X68277693Y-131798507D01*
X68277693Y-131870138D01*
X68238981Y-131947561D01*
X68202835Y-131983708D01*
X68125414Y-132022419D01*
X67907235Y-132022419D01*
X67772076Y-131977366D01*
X67752721Y-131974926D01*
X67718492Y-131992040D01*
X67706391Y-132028344D01*
X67723505Y-132062573D01*
X67740454Y-132072234D01*
X67883310Y-132119853D01*
X67891260Y-132120855D01*
X67899122Y-132122419D01*
X68137217Y-132122419D01*
X68139673Y-132121930D01*
X68140762Y-132122293D01*
X68148489Y-132120176D01*
X68156351Y-132118613D01*
X68157162Y-132117801D01*
X68159578Y-132117140D01*
X68254815Y-132069522D01*
X68261142Y-132064611D01*
X68267811Y-132060155D01*
X68315430Y-132012535D01*
X68319883Y-132005869D01*
X68324795Y-131999541D01*
X68372414Y-131904303D01*
X68373075Y-131901887D01*
X68373887Y-131901076D01*
X68375450Y-131893214D01*
X68377567Y-131885487D01*
X68377204Y-131884398D01*
X68377693Y-131881942D01*
X68377693Y-131786704D01*
X68377204Y-131784247D01*
X68377567Y-131783159D01*
X68375450Y-131775431D01*
X68373887Y-131767570D01*
X68373075Y-131766758D01*
X68372414Y-131764343D01*
X68324795Y-131669105D01*
X68319883Y-131662776D01*
X68315429Y-131656110D01*
X68267810Y-131608492D01*
X68261148Y-131604040D01*
X68254815Y-131599125D01*
X68159578Y-131551507D01*
X68154296Y-131550060D01*
X68149344Y-131547721D01*
X67964193Y-131501433D01*
X67963307Y-131500990D01*
X68658646Y-131500990D01*
X68658646Y-131643847D01*
X68659841Y-131649856D01*
X68660139Y-131655974D01*
X68707758Y-131846450D01*
X68710097Y-131851402D01*
X68711544Y-131856684D01*
X68759162Y-131951921D01*
X68764073Y-131958249D01*
X68768528Y-131964916D01*
X68863767Y-132060155D01*
X68865848Y-132061545D01*
X68866362Y-132062573D01*
X68873327Y-132066543D01*
X68879988Y-132070994D01*
X68881136Y-132070994D01*
X68883311Y-132072234D01*
X69026167Y-132119853D01*
X69034117Y-132120855D01*
X69041979Y-132122419D01*
X69137217Y-132122419D01*
X69145079Y-132120855D01*
X69153028Y-132119853D01*
X69295885Y-132072234D01*
X69298060Y-132070994D01*
X69299209Y-132070994D01*
X69305879Y-132066536D01*
X69312833Y-132062573D01*
X69313345Y-132061547D01*
X69315430Y-132060155D01*
X69363049Y-132012535D01*
X69373887Y-131996314D01*
X69373887Y-131958045D01*
X69346827Y-131930986D01*
X69308558Y-131930986D01*
X69292337Y-131941825D01*
X69253064Y-131981098D01*
X69129104Y-132022419D01*
X69050092Y-132022419D01*
X68926132Y-131981099D01*
X68844976Y-131899942D01*
X68803441Y-131816872D01*
X68758646Y-131637692D01*
X68758646Y-131507145D01*
X68803441Y-131327965D01*
X68844977Y-131244893D01*
X68926130Y-131163739D01*
X69050092Y-131122419D01*
X69129104Y-131122419D01*
X69253065Y-131163739D01*
X69292337Y-131203012D01*
X69308558Y-131213851D01*
X69346827Y-131213851D01*
X69373887Y-131186791D01*
X69373887Y-131148522D01*
X69363048Y-131132301D01*
X69315429Y-131084683D01*
X69313346Y-131083291D01*
X69312833Y-131082265D01*
X69305872Y-131078297D01*
X69299208Y-131073844D01*
X69298060Y-131073844D01*
X69295885Y-131072604D01*
X69295330Y-131072419D01*
X69706265Y-131072419D01*
X69706265Y-132072419D01*
X69710071Y-132091553D01*
X69737131Y-132118613D01*
X69756265Y-132122419D01*
X70232455Y-132122419D01*
X70251589Y-132118613D01*
X70278649Y-132091553D01*
X70278649Y-132053285D01*
X70251589Y-132026225D01*
X70232455Y-132022419D01*
X69806265Y-132022419D01*
X69806265Y-131072419D01*
X69802459Y-131053285D01*
X69775399Y-131026225D01*
X69737131Y-131026225D01*
X69710071Y-131053285D01*
X69706265Y-131072419D01*
X69295330Y-131072419D01*
X69153028Y-131024985D01*
X69145079Y-131023982D01*
X69137217Y-131022419D01*
X69041979Y-131022419D01*
X69034117Y-131023982D01*
X69026167Y-131024985D01*
X68883311Y-131072604D01*
X68881136Y-131073844D01*
X68879988Y-131073844D01*
X68873327Y-131078294D01*
X68866362Y-131082265D01*
X68865848Y-131083292D01*
X68863767Y-131084683D01*
X68768529Y-131179921D01*
X68764077Y-131186582D01*
X68759162Y-131192916D01*
X68711544Y-131288153D01*
X68710097Y-131293434D01*
X68707758Y-131298387D01*
X68660139Y-131488863D01*
X68659841Y-131494980D01*
X68658646Y-131500990D01*
X67963307Y-131500990D01*
X67881121Y-131459897D01*
X67844976Y-131423753D01*
X67806265Y-131346330D01*
X67806265Y-131274698D01*
X67844976Y-131197274D01*
X67881121Y-131161130D01*
X67958545Y-131122419D01*
X68176723Y-131122419D01*
X68311881Y-131167472D01*
X68331237Y-131169912D01*
X68365465Y-131152798D01*
X68377567Y-131116494D01*
X68360452Y-131082265D01*
X68343504Y-131072604D01*
X68200647Y-131024985D01*
X68192698Y-131023982D01*
X68184836Y-131022419D01*
X67946741Y-131022419D01*
X67944284Y-131022907D01*
X67943196Y-131022545D01*
X67935468Y-131024661D01*
X67927607Y-131026225D01*
X67926795Y-131027036D01*
X67924380Y-131027698D01*
X67829142Y-131075317D01*
X67822813Y-131080228D01*
X67816147Y-131084683D01*
X67768529Y-131132302D01*
X67764077Y-131138963D01*
X67759162Y-131145297D01*
X67711544Y-131240534D01*
X67710882Y-131242949D01*
X67710071Y-131243761D01*
X67708507Y-131251622D01*
X67706391Y-131259350D01*
X67706753Y-131260438D01*
X67706265Y-131262895D01*
X67595154Y-131262895D01*
X67595154Y-130911308D01*
X70389760Y-130911308D01*
X70389760Y-132233530D01*
G37*
G36*
X68535472Y-137332579D02*
G01*
X67548486Y-137332579D01*
X67548486Y-136182122D01*
X67659597Y-136182122D01*
X67667043Y-136200154D01*
X67981886Y-136672419D01*
X67667043Y-137144684D01*
X67659597Y-137162716D01*
X67667102Y-137200241D01*
X67698943Y-137221468D01*
X67736468Y-137213963D01*
X67750249Y-137200154D01*
X68041978Y-136762558D01*
X68333709Y-137200154D01*
X68347490Y-137213963D01*
X68385015Y-137221468D01*
X68416856Y-137200241D01*
X68424361Y-137162716D01*
X68416914Y-137144684D01*
X68102071Y-136672419D01*
X68416914Y-136200154D01*
X68424361Y-136182122D01*
X68416856Y-136144597D01*
X68385015Y-136123370D01*
X68347490Y-136130875D01*
X68333709Y-136144684D01*
X68041978Y-136582279D01*
X67750249Y-136144684D01*
X67736468Y-136130875D01*
X67698943Y-136123370D01*
X67667102Y-136144597D01*
X67659597Y-136182122D01*
X67548486Y-136182122D01*
X67548486Y-136012259D01*
X68535472Y-136012259D01*
X68535472Y-137332579D01*
G37*
G36*
X69441059Y-124633530D02*
G01*
X67595402Y-124633530D01*
X67595402Y-123943634D01*
X67706513Y-123943634D01*
X67708396Y-123963052D01*
X67710071Y-123965099D01*
X67710071Y-123967743D01*
X67721968Y-123979640D01*
X67732629Y-123992670D01*
X67735261Y-123992933D01*
X67737131Y-123994803D01*
X67753958Y-123994803D01*
X67770708Y-123996478D01*
X67772755Y-123994803D01*
X67775399Y-123994803D01*
X67791620Y-123983964D01*
X67833502Y-123942082D01*
X67910926Y-123903371D01*
X68125414Y-123903371D01*
X68202837Y-123942082D01*
X68238981Y-123978227D01*
X68277693Y-124055650D01*
X68277693Y-124270138D01*
X68238981Y-124347561D01*
X68202835Y-124383708D01*
X68125414Y-124422419D01*
X67910926Y-124422419D01*
X67833503Y-124383708D01*
X67791621Y-124341825D01*
X67775400Y-124330986D01*
X67737131Y-124330986D01*
X67710071Y-124358045D01*
X67710071Y-124396314D01*
X67720909Y-124412535D01*
X67768528Y-124460155D01*
X67775194Y-124464609D01*
X67781523Y-124469521D01*
X67876761Y-124517140D01*
X67879176Y-124517801D01*
X67879988Y-124518613D01*
X67887849Y-124520176D01*
X67895577Y-124522293D01*
X67896665Y-124521930D01*
X67899122Y-124522419D01*
X68137217Y-124522419D01*
X68139673Y-124521930D01*
X68140762Y-124522293D01*
X68148489Y-124520176D01*
X68156351Y-124518613D01*
X68157162Y-124517801D01*
X68159578Y-124517140D01*
X68254815Y-124469522D01*
X68261142Y-124464611D01*
X68267811Y-124460155D01*
X68315430Y-124412535D01*
X68319883Y-124405869D01*
X68324795Y-124399541D01*
X68372414Y-124304303D01*
X68373075Y-124301887D01*
X68373887Y-124301076D01*
X68375450Y-124293214D01*
X68377567Y-124285487D01*
X68377204Y-124284398D01*
X68377693Y-124281942D01*
X68377693Y-124043847D01*
X68377204Y-124041390D01*
X68377567Y-124040302D01*
X68375450Y-124032574D01*
X68373887Y-124024713D01*
X68373075Y-124023901D01*
X68372414Y-124021486D01*
X68324795Y-123926248D01*
X68319883Y-123919919D01*
X68315429Y-123913253D01*
X68267810Y-123865635D01*
X68261148Y-123861183D01*
X68254815Y-123856268D01*
X68159578Y-123808650D01*
X68157162Y-123807988D01*
X68156351Y-123807177D01*
X68148489Y-123805613D01*
X68140762Y-123803497D01*
X68139673Y-123803859D01*
X68137217Y-123803371D01*
X67899122Y-123803371D01*
X67896665Y-123803859D01*
X67895577Y-123803497D01*
X67887849Y-123805613D01*
X67879988Y-123807177D01*
X67879176Y-123807988D01*
X67876761Y-123808650D01*
X67817549Y-123838255D01*
X67849133Y-123522419D01*
X68280074Y-123522419D01*
X68299208Y-123518613D01*
X68326268Y-123491553D01*
X68326268Y-123468875D01*
X68563534Y-123468875D01*
X68565974Y-123488230D01*
X68899307Y-124488230D01*
X68908968Y-124505178D01*
X68912309Y-124506848D01*
X68913981Y-124510192D01*
X68929023Y-124515205D01*
X68943197Y-124522293D01*
X68946740Y-124521111D01*
X68950285Y-124522293D01*
X68964464Y-124515203D01*
X68979501Y-124510191D01*
X68981171Y-124506850D01*
X68984514Y-124505179D01*
X68994175Y-124488230D01*
X69327508Y-123488231D01*
X69329948Y-123468875D01*
X69312834Y-123434647D01*
X69276530Y-123422545D01*
X69242301Y-123439660D01*
X69232640Y-123456608D01*
X68946741Y-124314305D01*
X68660842Y-123456608D01*
X68651181Y-123439659D01*
X68616952Y-123422545D01*
X68580648Y-123434646D01*
X68563534Y-123468875D01*
X68326268Y-123468875D01*
X68326268Y-123453285D01*
X68299208Y-123426225D01*
X68280074Y-123422419D01*
X67803884Y-123422419D01*
X67791922Y-123424798D01*
X67789441Y-123424550D01*
X67788243Y-123425530D01*
X67784750Y-123426225D01*
X67772849Y-123438125D01*
X67759823Y-123448784D01*
X67758783Y-123452191D01*
X67757690Y-123453285D01*
X67757690Y-123455777D01*
X67754132Y-123467444D01*
X67706513Y-123943634D01*
X67595402Y-123943634D01*
X67595402Y-123311308D01*
X69441059Y-123311308D01*
X69441059Y-124633530D01*
G37*
G36*
X69110208Y-128563739D02*
G01*
X69191361Y-128644892D01*
X69232898Y-128727966D01*
X69277693Y-128907145D01*
X69277693Y-129037692D01*
X69232898Y-129216870D01*
X69191361Y-129299944D01*
X69110207Y-129381098D01*
X68986247Y-129422419D01*
X68806265Y-129422419D01*
X68806265Y-128522419D01*
X68986247Y-128522419D01*
X69110208Y-128563739D01*
G37*
G36*
X70115465Y-129136704D02*
G01*
X69778017Y-129136704D01*
X69946741Y-128630532D01*
X70115465Y-129136704D01*
G37*
G36*
X70441059Y-129633530D02*
G01*
X67595154Y-129633530D01*
X67595154Y-128662895D01*
X67706265Y-128662895D01*
X67706265Y-128758133D01*
X67706753Y-128760589D01*
X67706391Y-128761678D01*
X67708507Y-128769405D01*
X67710071Y-128777267D01*
X67710882Y-128778078D01*
X67711544Y-128780494D01*
X67759162Y-128875731D01*
X67764077Y-128882064D01*
X67768529Y-128888726D01*
X67816147Y-128936345D01*
X67822813Y-128940799D01*
X67829142Y-128945711D01*
X67924380Y-128993330D01*
X67929661Y-128994776D01*
X67934614Y-128997116D01*
X68119766Y-129043404D01*
X68202837Y-129084939D01*
X68238981Y-129121084D01*
X68277693Y-129198507D01*
X68277693Y-129270138D01*
X68238981Y-129347561D01*
X68202835Y-129383708D01*
X68125414Y-129422419D01*
X67907235Y-129422419D01*
X67772076Y-129377366D01*
X67752721Y-129374926D01*
X67718492Y-129392040D01*
X67706391Y-129428344D01*
X67723505Y-129462573D01*
X67740454Y-129472234D01*
X67883310Y-129519853D01*
X67891260Y-129520855D01*
X67899122Y-129522419D01*
X68137217Y-129522419D01*
X68139673Y-129521930D01*
X68140762Y-129522293D01*
X68148489Y-129520176D01*
X68156351Y-129518613D01*
X68157162Y-129517801D01*
X68159578Y-129517140D01*
X68254815Y-129469522D01*
X68261142Y-129464611D01*
X68267811Y-129460155D01*
X68315430Y-129412535D01*
X68319883Y-129405869D01*
X68324795Y-129399541D01*
X68372414Y-129304303D01*
X68373075Y-129301887D01*
X68373887Y-129301076D01*
X68375450Y-129293214D01*
X68377567Y-129285487D01*
X68377204Y-129284398D01*
X68377693Y-129281942D01*
X68377693Y-129186704D01*
X68377204Y-129184247D01*
X68377567Y-129183159D01*
X68375450Y-129175431D01*
X68373887Y-129167570D01*
X68373075Y-129166758D01*
X68372414Y-129164343D01*
X68324795Y-129069105D01*
X68319883Y-129062776D01*
X68315429Y-129056110D01*
X68267810Y-129008492D01*
X68261148Y-129004040D01*
X68254815Y-128999125D01*
X68159578Y-128951507D01*
X68154296Y-128950060D01*
X68149344Y-128947721D01*
X67964193Y-128901433D01*
X67881121Y-128859897D01*
X67844976Y-128823753D01*
X67806265Y-128746330D01*
X67806265Y-128674698D01*
X67844976Y-128597274D01*
X67881121Y-128561130D01*
X67958545Y-128522419D01*
X68176723Y-128522419D01*
X68311881Y-128567472D01*
X68331237Y-128569912D01*
X68365465Y-128552798D01*
X68377567Y-128516494D01*
X68360452Y-128482265D01*
X68343504Y-128472604D01*
X68342949Y-128472419D01*
X68706265Y-128472419D01*
X68706265Y-129472419D01*
X68710071Y-129491553D01*
X68737131Y-129518613D01*
X68756265Y-129522419D01*
X68994360Y-129522419D01*
X69002222Y-129520855D01*
X69010171Y-129519853D01*
X69141841Y-129475963D01*
X69563534Y-129475963D01*
X69580648Y-129510192D01*
X69616952Y-129522293D01*
X69651181Y-129505179D01*
X69660842Y-129488230D01*
X69744684Y-129236704D01*
X70148798Y-129236704D01*
X70232640Y-129488230D01*
X70242301Y-129505178D01*
X70276530Y-129522293D01*
X70312834Y-129510191D01*
X70329948Y-129475963D01*
X70327508Y-129456607D01*
X69994175Y-128456608D01*
X69984514Y-128439659D01*
X69981171Y-128437987D01*
X69979501Y-128434647D01*
X69964464Y-128429634D01*
X69950285Y-128422545D01*
X69946740Y-128423726D01*
X69943197Y-128422545D01*
X69929023Y-128429632D01*
X69913981Y-128434646D01*
X69912309Y-128437989D01*
X69908968Y-128439660D01*
X69899307Y-128456608D01*
X69565974Y-129456608D01*
X69563534Y-129475963D01*
X69141841Y-129475963D01*
X69153028Y-129472234D01*
X69155203Y-129470994D01*
X69156352Y-129470994D01*
X69163022Y-129466536D01*
X69169976Y-129462573D01*
X69170488Y-129461547D01*
X69172573Y-129460155D01*
X69267811Y-129364916D01*
X69272264Y-129358250D01*
X69277176Y-129351922D01*
X69324795Y-129256684D01*
X69326241Y-129251402D01*
X69328581Y-129246450D01*
X69376200Y-129055974D01*
X69376497Y-129049856D01*
X69377693Y-129043847D01*
X69377693Y-128900990D01*
X69376497Y-128894980D01*
X69376200Y-128888863D01*
X69328581Y-128698387D01*
X69326241Y-128693434D01*
X69324795Y-128688153D01*
X69277176Y-128592915D01*
X69272260Y-128586580D01*
X69267810Y-128579921D01*
X69172572Y-128484683D01*
X69170489Y-128483291D01*
X69169976Y-128482265D01*
X69163015Y-128478297D01*
X69156351Y-128473844D01*
X69155203Y-128473844D01*
X69153028Y-128472604D01*
X69010171Y-128424985D01*
X69002222Y-128423982D01*
X68994360Y-128422419D01*
X68756265Y-128422419D01*
X68737131Y-128426225D01*
X68710071Y-128453285D01*
X68706265Y-128472419D01*
X68342949Y-128472419D01*
X68200647Y-128424985D01*
X68192698Y-128423982D01*
X68184836Y-128422419D01*
X67946741Y-128422419D01*
X67944284Y-128422907D01*
X67943196Y-128422545D01*
X67935468Y-128424661D01*
X67927607Y-128426225D01*
X67926795Y-128427036D01*
X67924380Y-128427698D01*
X67829142Y-128475317D01*
X67822813Y-128480228D01*
X67816147Y-128484683D01*
X67768529Y-128532302D01*
X67764077Y-128538963D01*
X67759162Y-128545297D01*
X67711544Y-128640534D01*
X67710882Y-128642949D01*
X67710071Y-128643761D01*
X67708507Y-128651622D01*
X67706391Y-128659350D01*
X67706753Y-128660438D01*
X67706265Y-128662895D01*
X67595154Y-128662895D01*
X67595154Y-128311308D01*
X70441059Y-128311308D01*
X70441059Y-129633530D01*
G37*
D11*
X68333333Y-117954819D02*
X68000000Y-117478628D01*
X67761905Y-117954819D02*
X67761905Y-116954819D01*
X67761905Y-116954819D02*
X68142857Y-116954819D01*
X68142857Y-116954819D02*
X68238095Y-117002438D01*
X68238095Y-117002438D02*
X68285714Y-117050057D01*
X68285714Y-117050057D02*
X68333333Y-117145295D01*
X68333333Y-117145295D02*
X68333333Y-117288152D01*
X68333333Y-117288152D02*
X68285714Y-117383390D01*
X68285714Y-117383390D02*
X68238095Y-117431009D01*
X68238095Y-117431009D02*
X68142857Y-117478628D01*
X68142857Y-117478628D02*
X67761905Y-117478628D01*
X68714286Y-117050057D02*
X68761905Y-117002438D01*
X68761905Y-117002438D02*
X68857143Y-116954819D01*
X68857143Y-116954819D02*
X69095238Y-116954819D01*
X69095238Y-116954819D02*
X69190476Y-117002438D01*
X69190476Y-117002438D02*
X69238095Y-117050057D01*
X69238095Y-117050057D02*
X69285714Y-117145295D01*
X69285714Y-117145295D02*
X69285714Y-117240533D01*
X69285714Y-117240533D02*
X69238095Y-117383390D01*
X69238095Y-117383390D02*
X68666667Y-117954819D01*
X68666667Y-117954819D02*
X69285714Y-117954819D01*
X68433333Y-120154819D02*
X68100000Y-119678628D01*
X67861905Y-120154819D02*
X67861905Y-119154819D01*
X67861905Y-119154819D02*
X68242857Y-119154819D01*
X68242857Y-119154819D02*
X68338095Y-119202438D01*
X68338095Y-119202438D02*
X68385714Y-119250057D01*
X68385714Y-119250057D02*
X68433333Y-119345295D01*
X68433333Y-119345295D02*
X68433333Y-119488152D01*
X68433333Y-119488152D02*
X68385714Y-119583390D01*
X68385714Y-119583390D02*
X68338095Y-119631009D01*
X68338095Y-119631009D02*
X68242857Y-119678628D01*
X68242857Y-119678628D02*
X67861905Y-119678628D01*
X69385714Y-120154819D02*
X68814286Y-120154819D01*
X69100000Y-120154819D02*
X69100000Y-119154819D01*
X69100000Y-119154819D02*
X69004762Y-119297676D01*
X69004762Y-119297676D02*
X68909524Y-119392914D01*
X68909524Y-119392914D02*
X68814286Y-119440533D01*
X65266666Y-121024819D02*
X65266666Y-121739104D01*
X65266666Y-121739104D02*
X65219047Y-121881961D01*
X65219047Y-121881961D02*
X65123809Y-121977200D01*
X65123809Y-121977200D02*
X64980952Y-122024819D01*
X64980952Y-122024819D02*
X64885714Y-122024819D01*
X65695238Y-121120057D02*
X65742857Y-121072438D01*
X65742857Y-121072438D02*
X65838095Y-121024819D01*
X65838095Y-121024819D02*
X66076190Y-121024819D01*
X66076190Y-121024819D02*
X66171428Y-121072438D01*
X66171428Y-121072438D02*
X66219047Y-121120057D01*
X66219047Y-121120057D02*
X66266666Y-121215295D01*
X66266666Y-121215295D02*
X66266666Y-121310533D01*
X66266666Y-121310533D02*
X66219047Y-121453390D01*
X66219047Y-121453390D02*
X65647619Y-122024819D01*
X65647619Y-122024819D02*
X66266666Y-122024819D01*
D12*
%TO.C,G\u002A\u002A\u002A*%
G36*
X117634188Y-44419907D02*
G01*
X117732241Y-44509580D01*
X117812637Y-44651867D01*
X117851311Y-44764053D01*
X117897468Y-44958285D01*
X117952131Y-45241874D01*
X118016325Y-45622125D01*
X118091076Y-46106348D01*
X118177407Y-46701851D01*
X118276344Y-47415942D01*
X118388910Y-48255928D01*
X118516131Y-49229118D01*
X118659031Y-50342820D01*
X118818634Y-51604343D01*
X118995967Y-53020993D01*
X119074494Y-53652054D01*
X119199690Y-54657398D01*
X119327102Y-55676329D01*
X119453865Y-56686180D01*
X119577111Y-57664284D01*
X119693974Y-58587976D01*
X119801585Y-59434589D01*
X119897080Y-60181457D01*
X119977589Y-60805914D01*
X120034442Y-61241311D01*
X120198317Y-62597603D01*
X120320404Y-63857692D01*
X120399872Y-65007669D01*
X120435891Y-66033624D01*
X120427630Y-66921645D01*
X120401068Y-67382529D01*
X120364862Y-67766325D01*
X120310398Y-68255464D01*
X120240944Y-68827132D01*
X120159767Y-69458519D01*
X120070137Y-70126811D01*
X119975321Y-70809196D01*
X119878589Y-71482862D01*
X119783207Y-72124996D01*
X119692446Y-72712785D01*
X119609572Y-73223418D01*
X119537855Y-73634081D01*
X119480563Y-73921964D01*
X119445211Y-74054233D01*
X119370911Y-74163019D01*
X119277726Y-74134908D01*
X119159039Y-73962490D01*
X119008231Y-73638357D01*
X118952651Y-73502737D01*
X118828715Y-73202510D01*
X118723881Y-72964815D01*
X118656201Y-72830085D01*
X118646054Y-72815998D01*
X118576011Y-72850259D01*
X118447607Y-72992432D01*
X118321144Y-73165131D01*
X117838744Y-73834587D01*
X117390886Y-74367530D01*
X116959085Y-74785333D01*
X116824428Y-74895733D01*
X116484479Y-75148071D01*
X116168773Y-75341635D01*
X115835313Y-75494054D01*
X115442104Y-75622955D01*
X114947148Y-75745968D01*
X114640544Y-75812425D01*
X114547591Y-75839230D01*
X114521796Y-75880359D01*
X114579568Y-75953195D01*
X114737316Y-76075125D01*
X115011450Y-76263534D01*
X115161035Y-76363859D01*
X115466392Y-76574870D01*
X115712085Y-76757520D01*
X115869544Y-76889734D01*
X115912787Y-76944660D01*
X115830805Y-76959747D01*
X115590034Y-76973467D01*
X115198239Y-76985716D01*
X114663184Y-76996394D01*
X113992632Y-77005396D01*
X113194348Y-77012622D01*
X112276097Y-77017968D01*
X111245641Y-77021333D01*
X110110746Y-77022613D01*
X110000000Y-77022623D01*
X108855773Y-77021542D01*
X107815262Y-77018367D01*
X106886231Y-77013201D01*
X106076446Y-77006146D01*
X105393669Y-76997305D01*
X104845666Y-76986779D01*
X104440200Y-76974671D01*
X104185035Y-76961084D01*
X104087935Y-76946120D01*
X104087213Y-76944660D01*
X104152409Y-76869384D01*
X104328947Y-76725819D01*
X104588257Y-76536040D01*
X104838965Y-76363859D01*
X105165474Y-76143224D01*
X105368879Y-75996183D01*
X105465591Y-75905353D01*
X105472019Y-75853347D01*
X105404573Y-75822780D01*
X105359457Y-75812425D01*
X104796108Y-75685600D01*
X104356020Y-75561918D01*
X103997197Y-75423749D01*
X103677642Y-75253466D01*
X103355360Y-75033440D01*
X103175573Y-74895733D01*
X102744998Y-74509547D01*
X102304148Y-74014907D01*
X101834536Y-73390436D01*
X101678857Y-73165131D01*
X101525540Y-72959380D01*
X101405658Y-72834757D01*
X101353947Y-72815998D01*
X101300508Y-72913068D01*
X101204649Y-73124899D01*
X101084422Y-73411058D01*
X101047350Y-73502737D01*
X100884979Y-73876512D01*
X100756825Y-74096224D01*
X100656272Y-74169280D01*
X100576701Y-74103090D01*
X100554789Y-74054233D01*
X100512580Y-73890705D01*
X100453124Y-73584699D01*
X100379689Y-73159030D01*
X100295545Y-72636508D01*
X100203960Y-72039948D01*
X100108201Y-71392160D01*
X100011538Y-70715957D01*
X99917238Y-70034152D01*
X99828570Y-69369557D01*
X99748802Y-68744985D01*
X99681203Y-68183248D01*
X99629041Y-67707158D01*
X99598933Y-67382529D01*
X99563704Y-66584070D01*
X99573243Y-65639319D01*
X99626718Y-64562178D01*
X99723300Y-63366547D01*
X99862160Y-62066331D01*
X99965486Y-61241311D01*
X100030248Y-60744749D01*
X100112540Y-60105595D01*
X100209489Y-59346559D01*
X100318223Y-58490351D01*
X100435873Y-57559682D01*
X100559564Y-56577262D01*
X100686427Y-55565803D01*
X100813589Y-54548015D01*
X100923734Y-53662951D01*
X101109184Y-52175659D01*
X101276518Y-50846641D01*
X101426741Y-49668713D01*
X101560861Y-48634693D01*
X101679886Y-47737399D01*
X101784822Y-46969646D01*
X101876677Y-46324254D01*
X101956458Y-45794039D01*
X102025172Y-45371819D01*
X102083827Y-45050410D01*
X102133429Y-44822631D01*
X102174986Y-44681298D01*
X102187363Y-44651867D01*
X102277153Y-44496896D01*
X102377027Y-44415140D01*
X102504039Y-44415292D01*
X102675246Y-44506044D01*
X102907702Y-44696090D01*
X103218463Y-44994120D01*
X103578003Y-45360628D01*
X104051550Y-45834271D01*
X104463346Y-46201850D01*
X104853537Y-46489055D01*
X105262268Y-46721575D01*
X105729685Y-46925098D01*
X106295932Y-47125313D01*
X106377377Y-47151945D01*
X106980808Y-47336269D01*
X107525424Y-47472639D01*
X108056341Y-47567466D01*
X108618672Y-47627162D01*
X109257534Y-47658140D01*
X110000000Y-47666815D01*
X110757400Y-47657729D01*
X111394130Y-47626199D01*
X111955306Y-47565811D01*
X112486041Y-47470154D01*
X113031452Y-47332815D01*
X113622623Y-47151945D01*
X114204376Y-46950303D01*
X114682173Y-46748632D01*
X115096160Y-46521244D01*
X115486483Y-46242450D01*
X115893286Y-45886561D01*
X116356715Y-45427888D01*
X116421997Y-45360628D01*
X116817543Y-44958298D01*
X117119480Y-44671753D01*
X117344863Y-44492301D01*
X117510748Y-44411250D01*
X117634188Y-44419907D01*
G37*
D13*
%TO.C,R2*%
X65827064Y-116665000D02*
X65372936Y-116665000D01*
X65827064Y-118135000D02*
X65372936Y-118135000D01*
%TO.C,R1*%
X65827064Y-118965000D02*
X65372936Y-118965000D01*
X65827064Y-120435000D02*
X65372936Y-120435000D01*
D12*
%TO.C,G\u002A\u002A\u002A*%
G36*
X90350000Y-108466448D02*
G01*
X90350000Y-109317006D01*
X90091666Y-109317006D01*
X89833333Y-109317006D01*
X89833333Y-108466448D01*
X89833333Y-107615890D01*
X90091666Y-107615890D01*
X90350000Y-107615890D01*
X90350000Y-108466448D01*
G37*
G36*
X90195328Y-109952208D02*
G01*
X90204037Y-109959628D01*
X90209986Y-109977608D01*
X90213699Y-110010739D01*
X90215701Y-110063614D01*
X90216515Y-110140823D01*
X90216666Y-110242613D01*
X90216500Y-110347636D01*
X90215653Y-110423896D01*
X90213599Y-110475985D01*
X90209815Y-110508495D01*
X90203776Y-110526018D01*
X90194958Y-110533146D01*
X90183333Y-110534471D01*
X90171338Y-110533018D01*
X90162628Y-110525598D01*
X90156679Y-110507618D01*
X90152966Y-110474487D01*
X90150965Y-110421613D01*
X90150151Y-110344403D01*
X90150000Y-110242613D01*
X90150165Y-110137590D01*
X90151013Y-110061330D01*
X90153066Y-110009241D01*
X90156850Y-109976731D01*
X90162889Y-109959208D01*
X90171707Y-109952080D01*
X90183333Y-109950755D01*
X90195328Y-109952208D01*
G37*
G36*
X91250813Y-109955022D02*
G01*
X91257473Y-109970708D01*
X91262018Y-110002138D01*
X91264818Y-110053639D01*
X91266243Y-110129537D01*
X91266665Y-110234157D01*
X91266666Y-110242613D01*
X91266301Y-110349392D01*
X91264957Y-110427148D01*
X91262265Y-110480205D01*
X91257853Y-110512892D01*
X91251352Y-110529532D01*
X91242390Y-110534454D01*
X91241666Y-110534471D01*
X91232520Y-110530204D01*
X91225859Y-110514518D01*
X91221314Y-110483088D01*
X91218515Y-110431587D01*
X91217089Y-110355689D01*
X91216668Y-110251069D01*
X91216666Y-110242613D01*
X91217032Y-110135834D01*
X91218375Y-110058079D01*
X91221068Y-110005021D01*
X91225479Y-109972335D01*
X91231980Y-109955694D01*
X91240942Y-109950772D01*
X91241666Y-109950755D01*
X91250813Y-109955022D01*
G37*
G36*
X98636599Y-107351580D02*
G01*
X98672711Y-107358194D01*
X98683333Y-107365725D01*
X98669070Y-107378262D01*
X98641666Y-107382403D01*
X98619898Y-107384120D01*
X98607439Y-107394115D01*
X98601696Y-107419658D01*
X98600075Y-107468017D01*
X98600000Y-107499146D01*
X98597797Y-107559033D01*
X98591895Y-107600414D01*
X98583349Y-107615890D01*
X98583333Y-107615890D01*
X98574783Y-107600464D01*
X98568876Y-107559121D01*
X98566666Y-107499260D01*
X98566666Y-107499146D01*
X98566053Y-107438154D01*
X98562486Y-107403247D01*
X98553369Y-107387157D01*
X98536110Y-107382616D01*
X98525000Y-107382403D01*
X98493678Y-107376694D01*
X98483333Y-107365725D01*
X98498514Y-107356842D01*
X98538172Y-107350819D01*
X98583333Y-107349048D01*
X98636599Y-107351580D01*
G37*
G36*
X88454166Y-109954070D02*
G01*
X88554054Y-109963897D01*
X88627303Y-109982873D01*
X88680052Y-110014093D01*
X88718443Y-110060654D01*
X88736847Y-110096580D01*
X88758158Y-110171672D01*
X88763631Y-110255747D01*
X88753864Y-110336709D01*
X88729452Y-110402465D01*
X88721152Y-110415081D01*
X88677508Y-110465600D01*
X88630881Y-110498779D01*
X88572269Y-110518599D01*
X88492672Y-110529044D01*
X88458717Y-110531193D01*
X88316666Y-110538654D01*
X88316666Y-110471770D01*
X88383333Y-110471770D01*
X88483105Y-110464548D01*
X88551809Y-110455452D01*
X88598592Y-110437821D01*
X88624288Y-110418397D01*
X88671677Y-110351969D01*
X88694387Y-110268960D01*
X88692716Y-110193770D01*
X88667642Y-110115027D01*
X88619227Y-110059654D01*
X88546966Y-110027275D01*
X88457248Y-110017465D01*
X88383333Y-110017465D01*
X88383333Y-110244618D01*
X88383333Y-110471770D01*
X88316666Y-110471770D01*
X88316666Y-110244618D01*
X88316666Y-110242613D01*
X88316666Y-109946572D01*
X88454166Y-109954070D01*
G37*
G36*
X98797857Y-107367387D02*
G01*
X98823640Y-107420533D01*
X98835865Y-107452392D01*
X98873522Y-107555736D01*
X98910738Y-107473239D01*
X98931855Y-107423187D01*
X98945812Y-107383935D01*
X98948977Y-107369895D01*
X98963418Y-107351385D01*
X98975000Y-107349048D01*
X98987827Y-107355332D01*
X98995525Y-107378133D01*
X98999204Y-107423373D01*
X99000000Y-107482469D01*
X98997547Y-107550516D01*
X98991308Y-107595132D01*
X98982961Y-107614217D01*
X98974182Y-107605671D01*
X98966649Y-107567393D01*
X98963370Y-107528332D01*
X98958333Y-107440775D01*
X98925780Y-107528593D01*
X98905375Y-107575370D01*
X98886503Y-107604912D01*
X98876322Y-107610771D01*
X98861305Y-107593379D01*
X98839872Y-107554179D01*
X98822151Y-107514615D01*
X98784886Y-107424097D01*
X98784110Y-107519993D01*
X98781065Y-107571517D01*
X98773978Y-107606326D01*
X98766666Y-107615890D01*
X98758412Y-107600286D01*
X98752612Y-107557685D01*
X98750055Y-107494404D01*
X98750000Y-107482469D01*
X98753127Y-107404740D01*
X98762328Y-107359586D01*
X98777329Y-107347103D01*
X98797857Y-107367387D01*
G37*
G36*
X89842522Y-109951213D02*
G01*
X89891083Y-109953391D01*
X89918380Y-109958497D01*
X89930448Y-109967739D01*
X89933319Y-109982324D01*
X89933333Y-109984110D01*
X89930549Y-110000729D01*
X89917728Y-110010689D01*
X89888165Y-110015668D01*
X89835154Y-110017343D01*
X89800000Y-110017465D01*
X89666666Y-110017465D01*
X89666666Y-110117531D01*
X89666666Y-110217597D01*
X89791666Y-110217597D01*
X89855577Y-110218385D01*
X89893076Y-110221977D01*
X89911071Y-110230217D01*
X89916470Y-110244948D01*
X89916666Y-110250952D01*
X89913714Y-110268006D01*
X89900252Y-110278012D01*
X89869372Y-110282814D01*
X89814167Y-110284255D01*
X89791666Y-110284307D01*
X89666666Y-110284307D01*
X89666666Y-110409389D01*
X89665879Y-110473342D01*
X89662289Y-110510866D01*
X89654054Y-110528873D01*
X89639333Y-110534275D01*
X89633333Y-110534471D01*
X89621338Y-110533018D01*
X89612628Y-110525598D01*
X89606679Y-110507618D01*
X89602966Y-110474487D01*
X89600965Y-110421613D01*
X89600151Y-110344403D01*
X89600000Y-110242613D01*
X89600000Y-109950755D01*
X89766666Y-109950755D01*
X89842522Y-109951213D01*
G37*
G36*
X97511710Y-109954853D02*
G01*
X97557397Y-109967057D01*
X97585107Y-109985642D01*
X97587930Y-110009901D01*
X97585410Y-110014582D01*
X97569381Y-110027166D01*
X97539215Y-110026649D01*
X97501303Y-110017817D01*
X97416848Y-110009049D01*
X97344878Y-110028816D01*
X97288317Y-110073702D01*
X97250094Y-110140285D01*
X97233132Y-110225149D01*
X97240021Y-110323090D01*
X97268326Y-110391727D01*
X97320214Y-110442789D01*
X97389020Y-110472720D01*
X97468082Y-110477964D01*
X97513546Y-110469031D01*
X97550261Y-110460069D01*
X97564083Y-110465515D01*
X97563628Y-110488891D01*
X97563546Y-110489472D01*
X97557726Y-110508877D01*
X97542129Y-110520402D01*
X97509232Y-110526562D01*
X97451515Y-110529874D01*
X97441666Y-110530231D01*
X97365347Y-110529722D01*
X97312673Y-110520905D01*
X97280531Y-110506350D01*
X97220093Y-110448961D01*
X97182246Y-110367136D01*
X97167053Y-110261031D01*
X97166728Y-110240342D01*
X97175214Y-110142044D01*
X97202390Y-110067171D01*
X97251024Y-110009847D01*
X97287347Y-109984020D01*
X97335863Y-109963614D01*
X97394034Y-109952423D01*
X97454953Y-109949739D01*
X97511710Y-109954853D01*
G37*
G36*
X87975856Y-109951213D02*
G01*
X88024416Y-109953391D01*
X88051713Y-109958497D01*
X88063781Y-109967739D01*
X88066653Y-109982324D01*
X88066666Y-109984110D01*
X88063883Y-110000729D01*
X88051062Y-110010689D01*
X88021498Y-110015668D01*
X87968487Y-110017343D01*
X87933333Y-110017465D01*
X87800000Y-110017465D01*
X87800000Y-110109192D01*
X87800000Y-110200919D01*
X87925000Y-110200919D01*
X87988910Y-110201707D01*
X88026410Y-110205299D01*
X88044405Y-110213539D01*
X88049803Y-110228270D01*
X88050000Y-110234274D01*
X88047047Y-110251328D01*
X88033585Y-110261335D01*
X88002705Y-110266137D01*
X87947500Y-110267577D01*
X87925000Y-110267630D01*
X87800000Y-110267630D01*
X87800000Y-110367695D01*
X87800000Y-110467761D01*
X87933333Y-110467761D01*
X87999765Y-110468457D01*
X88039580Y-110471665D01*
X88059482Y-110479060D01*
X88066176Y-110492322D01*
X88066666Y-110501116D01*
X88064379Y-110516297D01*
X88053494Y-110526016D01*
X88027979Y-110531479D01*
X87981801Y-110533894D01*
X87908926Y-110534469D01*
X87900000Y-110534471D01*
X87733333Y-110534471D01*
X87733333Y-110242613D01*
X87733333Y-109950755D01*
X87900000Y-109950755D01*
X87975856Y-109951213D01*
G37*
G36*
X89259189Y-109951213D02*
G01*
X89307749Y-109953391D01*
X89335047Y-109958497D01*
X89347114Y-109967739D01*
X89349986Y-109982324D01*
X89350000Y-109984110D01*
X89347216Y-110000729D01*
X89334395Y-110010689D01*
X89304831Y-110015668D01*
X89251821Y-110017343D01*
X89216666Y-110017465D01*
X89083333Y-110017465D01*
X89083333Y-110109192D01*
X89083333Y-110200919D01*
X89208333Y-110200919D01*
X89272244Y-110201707D01*
X89309743Y-110205299D01*
X89327738Y-110213539D01*
X89333137Y-110228270D01*
X89333333Y-110234274D01*
X89330380Y-110251328D01*
X89316918Y-110261335D01*
X89286039Y-110266137D01*
X89230834Y-110267577D01*
X89208333Y-110267630D01*
X89083333Y-110267630D01*
X89083333Y-110367695D01*
X89083333Y-110467761D01*
X89216666Y-110467761D01*
X89283099Y-110468457D01*
X89322913Y-110471665D01*
X89342815Y-110479060D01*
X89349509Y-110492322D01*
X89350000Y-110501116D01*
X89347712Y-110516297D01*
X89336828Y-110526016D01*
X89311313Y-110531479D01*
X89265134Y-110533894D01*
X89192259Y-110534469D01*
X89183333Y-110534471D01*
X89016666Y-110534471D01*
X89016666Y-110242613D01*
X89016666Y-109950755D01*
X89183333Y-109950755D01*
X89259189Y-109951213D01*
G37*
G36*
X94192522Y-109951213D02*
G01*
X94241083Y-109953391D01*
X94268380Y-109958497D01*
X94280448Y-109967739D01*
X94283319Y-109982324D01*
X94283333Y-109984110D01*
X94280565Y-110000686D01*
X94267807Y-110010641D01*
X94238372Y-110015636D01*
X94185577Y-110017334D01*
X94149129Y-110017465D01*
X94014924Y-110017465D01*
X94019962Y-110105023D01*
X94025000Y-110192580D01*
X94145833Y-110197480D01*
X94208692Y-110201000D01*
X94245155Y-110206640D01*
X94262158Y-110216554D01*
X94266640Y-110232897D01*
X94266666Y-110235005D01*
X94263531Y-110251703D01*
X94249536Y-110261503D01*
X94217800Y-110266199D01*
X94161438Y-110267588D01*
X94141666Y-110267630D01*
X94016666Y-110267630D01*
X94016666Y-110367695D01*
X94016666Y-110467761D01*
X94150000Y-110467761D01*
X94216432Y-110468457D01*
X94256246Y-110471665D01*
X94276148Y-110479060D01*
X94282842Y-110492322D01*
X94283333Y-110501116D01*
X94281045Y-110516297D01*
X94270161Y-110526016D01*
X94244646Y-110531479D01*
X94198468Y-110533894D01*
X94125592Y-110534469D01*
X94116666Y-110534471D01*
X93950000Y-110534471D01*
X93950000Y-110242613D01*
X93950000Y-109950755D01*
X94116666Y-109950755D01*
X94192522Y-109951213D01*
G37*
G36*
X98059189Y-109951213D02*
G01*
X98107749Y-109953391D01*
X98135047Y-109958497D01*
X98147114Y-109967739D01*
X98149986Y-109982324D01*
X98150000Y-109984110D01*
X98147232Y-110000686D01*
X98134474Y-110010641D01*
X98105039Y-110015636D01*
X98052244Y-110017334D01*
X98015795Y-110017465D01*
X97881591Y-110017465D01*
X97886629Y-110105023D01*
X97891666Y-110192580D01*
X98012500Y-110197480D01*
X98075359Y-110201000D01*
X98111822Y-110206640D01*
X98128825Y-110216554D01*
X98133306Y-110232897D01*
X98133333Y-110235005D01*
X98130197Y-110251703D01*
X98116203Y-110261503D01*
X98084466Y-110266199D01*
X98028105Y-110267588D01*
X98008333Y-110267630D01*
X97883333Y-110267630D01*
X97883333Y-110367695D01*
X97883333Y-110467761D01*
X98016666Y-110467761D01*
X98083099Y-110468457D01*
X98122913Y-110471665D01*
X98142815Y-110479060D01*
X98149509Y-110492322D01*
X98150000Y-110501116D01*
X98147712Y-110516297D01*
X98136828Y-110526016D01*
X98111313Y-110531479D01*
X98065134Y-110533894D01*
X97992259Y-110534469D01*
X97983333Y-110534471D01*
X97816666Y-110534471D01*
X97816666Y-110242613D01*
X97816666Y-109950755D01*
X97983333Y-109950755D01*
X98059189Y-109951213D01*
G37*
G36*
X95441496Y-109963275D02*
G01*
X95513694Y-110000839D01*
X95564079Y-110063577D01*
X95592712Y-110151557D01*
X95600000Y-110242613D01*
X95588656Y-110350908D01*
X95554911Y-110435835D01*
X95499195Y-110496422D01*
X95483357Y-110506788D01*
X95421706Y-110528224D01*
X95345108Y-110534393D01*
X95268115Y-110525557D01*
X95205281Y-110501977D01*
X95204975Y-110501791D01*
X95148293Y-110453795D01*
X95112372Y-110389139D01*
X95094999Y-110302718D01*
X95092546Y-110242613D01*
X95092757Y-110240400D01*
X95158333Y-110240400D01*
X95166966Y-110331769D01*
X95194341Y-110398445D01*
X95242669Y-110444703D01*
X95272091Y-110460104D01*
X95321580Y-110478610D01*
X95360286Y-110481406D01*
X95405244Y-110468481D01*
X95426135Y-110460022D01*
X95481983Y-110419233D01*
X95517751Y-110352631D01*
X95532827Y-110261484D01*
X95533307Y-110238979D01*
X95521567Y-110148550D01*
X95488655Y-110078422D01*
X95437931Y-110031581D01*
X95372757Y-110011015D01*
X95296496Y-110019708D01*
X95289091Y-110022065D01*
X95223912Y-110056126D01*
X95182135Y-110108776D01*
X95161502Y-110183781D01*
X95158333Y-110240400D01*
X95092757Y-110240400D01*
X95102908Y-110134024D01*
X95134323Y-110051126D01*
X95187280Y-109993358D01*
X95262272Y-109960158D01*
X95347428Y-109950817D01*
X95441496Y-109963275D01*
G37*
G36*
X91962307Y-109952304D02*
G01*
X91970893Y-109960012D01*
X91976757Y-109978465D01*
X91980417Y-110012254D01*
X91982389Y-110065966D01*
X91983188Y-110144191D01*
X91983333Y-110242613D01*
X91982812Y-110362886D01*
X91979805Y-110450465D01*
X91972147Y-110506013D01*
X91957674Y-110530188D01*
X91934219Y-110523652D01*
X91899619Y-110487065D01*
X91851708Y-110421089D01*
X91788321Y-110326383D01*
X91775000Y-110306181D01*
X91625000Y-110078568D01*
X91620363Y-110306520D01*
X91617882Y-110400000D01*
X91614490Y-110464826D01*
X91609585Y-110505698D01*
X91602566Y-110527315D01*
X91592831Y-110534377D01*
X91591196Y-110534471D01*
X91582199Y-110529916D01*
X91575645Y-110513396D01*
X91571175Y-110480630D01*
X91568428Y-110427338D01*
X91567045Y-110349239D01*
X91566666Y-110242613D01*
X91567034Y-110135796D01*
X91568384Y-110058010D01*
X91571086Y-110004933D01*
X91575507Y-109972247D01*
X91582017Y-109955632D01*
X91590985Y-109950767D01*
X91591596Y-109950755D01*
X91608928Y-109964005D01*
X91640534Y-110000582D01*
X91682707Y-110055729D01*
X91731738Y-110124688D01*
X91762429Y-110169996D01*
X91908333Y-110389236D01*
X91912983Y-110169996D01*
X91915186Y-110080827D01*
X91917941Y-110019739D01*
X91922152Y-109981462D01*
X91928719Y-109960723D01*
X91938544Y-109952250D01*
X91950483Y-109950755D01*
X91962307Y-109952304D01*
G37*
G36*
X92569082Y-109953724D02*
G01*
X92645703Y-109961306D01*
X92691375Y-109974188D01*
X92708196Y-109993318D01*
X92702250Y-110013822D01*
X92686452Y-110025288D01*
X92654761Y-110025451D01*
X92607111Y-110016421D01*
X92513229Y-110008619D01*
X92433375Y-110029857D01*
X92369719Y-110079413D01*
X92353315Y-110100853D01*
X92326096Y-110164605D01*
X92316501Y-110241052D01*
X92324019Y-110318196D01*
X92348141Y-110384035D01*
X92366424Y-110409131D01*
X92428537Y-110453457D01*
X92506490Y-110477818D01*
X92586786Y-110478088D01*
X92590058Y-110477502D01*
X92650000Y-110466249D01*
X92650000Y-110375278D01*
X92650000Y-110284307D01*
X92566666Y-110284307D01*
X92514261Y-110281629D01*
X92488665Y-110272357D01*
X92483333Y-110259291D01*
X92490194Y-110245699D01*
X92514864Y-110237920D01*
X92563475Y-110234639D01*
X92600000Y-110234274D01*
X92716666Y-110234274D01*
X92716666Y-110368108D01*
X92716062Y-110434835D01*
X92712793Y-110475873D01*
X92704678Y-110498887D01*
X92689533Y-110511539D01*
X92673915Y-110518206D01*
X92611132Y-110532058D01*
X92534334Y-110535072D01*
X92456919Y-110528000D01*
X92392288Y-110511595D01*
X92370680Y-110501206D01*
X92306714Y-110447531D01*
X92267568Y-110377535D01*
X92250978Y-110286590D01*
X92250062Y-110254457D01*
X92261376Y-110145636D01*
X92295510Y-110061124D01*
X92352539Y-110000852D01*
X92432537Y-109964750D01*
X92535579Y-109952747D01*
X92569082Y-109953724D01*
G37*
G36*
X93552172Y-109958532D02*
G01*
X93625905Y-109982706D01*
X93673537Y-110024544D01*
X93696869Y-110085313D01*
X93700000Y-110126056D01*
X93690976Y-110179687D01*
X93659287Y-110227133D01*
X93649286Y-110237554D01*
X93598572Y-110288301D01*
X93665952Y-110401794D01*
X93697617Y-110456398D01*
X93721292Y-110499643D01*
X93732830Y-110523880D01*
X93733333Y-110526039D01*
X93719441Y-110532424D01*
X93696468Y-110531462D01*
X93666813Y-110514742D01*
X93629970Y-110470775D01*
X93591005Y-110409389D01*
X93555760Y-110351240D01*
X93530149Y-110316429D01*
X93507797Y-110299035D01*
X93482334Y-110293136D01*
X93465370Y-110292646D01*
X93408333Y-110292646D01*
X93403436Y-110413559D01*
X93399101Y-110479493D01*
X93391833Y-110517570D01*
X93380316Y-110533249D01*
X93374269Y-110534471D01*
X93365354Y-110529746D01*
X93358859Y-110512733D01*
X93354430Y-110479182D01*
X93351712Y-110424839D01*
X93350354Y-110345452D01*
X93350000Y-110242613D01*
X93350000Y-110114751D01*
X93350000Y-110017465D01*
X93400000Y-110017465D01*
X93400000Y-110114751D01*
X93401770Y-110169054D01*
X93406352Y-110208963D01*
X93411111Y-110223156D01*
X93438328Y-110232405D01*
X93483637Y-110233652D01*
X93532952Y-110227603D01*
X93571929Y-110215100D01*
X93614562Y-110183814D01*
X93631661Y-110143173D01*
X93633078Y-110121700D01*
X93618775Y-110070870D01*
X93577223Y-110035810D01*
X93511642Y-110018762D01*
X93483333Y-110017465D01*
X93400000Y-110017465D01*
X93350000Y-110017465D01*
X93350000Y-109950755D01*
X93450535Y-109950755D01*
X93552172Y-109958532D01*
G37*
G36*
X94775664Y-109952812D02*
G01*
X94821270Y-109966039D01*
X94847010Y-109989879D01*
X94850000Y-110004058D01*
X94845743Y-110025330D01*
X94826710Y-110029613D01*
X94795833Y-110023387D01*
X94708389Y-110010080D01*
X94642714Y-110018108D01*
X94600538Y-110046816D01*
X94583593Y-110095549D01*
X94583333Y-110103844D01*
X94585984Y-110129395D01*
X94598051Y-110149514D01*
X94625703Y-110169451D01*
X94675110Y-110194456D01*
X94707259Y-110209296D01*
X94781383Y-110246363D01*
X94828893Y-110280266D01*
X94855188Y-110317131D01*
X94865668Y-110363084D01*
X94866666Y-110390133D01*
X94858294Y-110439401D01*
X94828048Y-110480044D01*
X94815387Y-110491295D01*
X94782209Y-110515274D01*
X94747371Y-110528146D01*
X94699085Y-110532947D01*
X94652887Y-110533155D01*
X94592862Y-110531280D01*
X94544981Y-110527672D01*
X94520833Y-110523426D01*
X94503282Y-110501736D01*
X94500000Y-110483466D01*
X94504783Y-110462898D01*
X94525315Y-110458812D01*
X94554166Y-110464008D01*
X94641147Y-110475113D01*
X94712818Y-110467917D01*
X94764953Y-110444082D01*
X94793327Y-110405273D01*
X94796622Y-110368565D01*
X94788466Y-110343803D01*
X94766297Y-110320775D01*
X94724050Y-110294632D01*
X94670108Y-110267440D01*
X94611035Y-110236936D01*
X94563371Y-110208548D01*
X94535605Y-110187436D01*
X94532863Y-110184052D01*
X94520839Y-110145375D01*
X94517266Y-110091750D01*
X94522793Y-110040658D01*
X94527019Y-110026551D01*
X94553078Y-109994993D01*
X94598898Y-109971289D01*
X94656552Y-109955989D01*
X94718116Y-109949646D01*
X94775664Y-109952812D01*
G37*
G36*
X98642331Y-109952812D02*
G01*
X98687937Y-109966039D01*
X98713676Y-109989879D01*
X98716666Y-110004058D01*
X98712410Y-110025330D01*
X98693376Y-110029613D01*
X98662500Y-110023387D01*
X98575056Y-110010080D01*
X98509380Y-110018108D01*
X98467205Y-110046816D01*
X98450260Y-110095549D01*
X98450000Y-110103844D01*
X98452651Y-110129395D01*
X98464717Y-110149514D01*
X98492369Y-110169451D01*
X98541776Y-110194456D01*
X98573926Y-110209296D01*
X98648050Y-110246363D01*
X98695560Y-110280266D01*
X98721854Y-110317131D01*
X98732334Y-110363084D01*
X98733333Y-110390133D01*
X98724961Y-110439401D01*
X98694714Y-110480044D01*
X98682054Y-110491295D01*
X98648876Y-110515274D01*
X98614037Y-110528146D01*
X98565752Y-110532947D01*
X98519554Y-110533155D01*
X98459528Y-110531280D01*
X98411647Y-110527672D01*
X98387500Y-110523426D01*
X98369948Y-110501736D01*
X98366666Y-110483466D01*
X98371450Y-110462898D01*
X98391982Y-110458812D01*
X98420833Y-110464008D01*
X98507813Y-110475113D01*
X98579484Y-110467917D01*
X98631619Y-110444082D01*
X98659993Y-110405273D01*
X98663288Y-110368565D01*
X98655132Y-110343803D01*
X98632964Y-110320775D01*
X98590717Y-110294632D01*
X98536774Y-110267440D01*
X98477702Y-110236936D01*
X98430037Y-110208548D01*
X98402272Y-110187436D01*
X98399530Y-110184052D01*
X98387506Y-110145375D01*
X98383933Y-110091750D01*
X98389460Y-110040658D01*
X98393686Y-110026551D01*
X98419745Y-109994993D01*
X98465565Y-109971289D01*
X98523219Y-109955989D01*
X98584783Y-109949646D01*
X98642331Y-109952812D01*
G37*
G36*
X96281617Y-109953040D02*
G01*
X96290729Y-109963604D01*
X96296201Y-109988011D01*
X96298939Y-110031826D01*
X96299852Y-110100613D01*
X96299907Y-110146717D01*
X96297972Y-110261110D01*
X96291456Y-110347346D01*
X96279107Y-110410452D01*
X96259673Y-110455461D01*
X96231901Y-110487400D01*
X96211477Y-110501921D01*
X96153058Y-110524069D01*
X96080544Y-110533464D01*
X96008788Y-110529505D01*
X95954023Y-110512370D01*
X95918484Y-110488985D01*
X95892697Y-110460635D01*
X95874943Y-110421691D01*
X95863503Y-110366524D01*
X95856659Y-110289507D01*
X95852694Y-110185011D01*
X95852568Y-110180072D01*
X95850496Y-110088711D01*
X95850087Y-110025511D01*
X95851972Y-109985296D01*
X95856779Y-109962888D01*
X95865138Y-109953109D01*
X95877678Y-109950782D01*
X95880443Y-109950755D01*
X95894021Y-109952644D01*
X95903564Y-109961788D01*
X95909980Y-109983404D01*
X95914175Y-110022709D01*
X95917058Y-110084920D01*
X95919536Y-110175255D01*
X95919541Y-110175487D01*
X95922158Y-110267037D01*
X95925484Y-110331435D01*
X95930545Y-110374882D01*
X95938366Y-110403581D01*
X95949972Y-110423732D01*
X95962962Y-110438159D01*
X96014642Y-110468573D01*
X96078845Y-110477892D01*
X96142273Y-110466117D01*
X96187037Y-110438159D01*
X96202492Y-110420387D01*
X96213325Y-110399130D01*
X96220561Y-110368185D01*
X96225226Y-110321351D01*
X96228345Y-110252427D01*
X96230458Y-110175487D01*
X96232978Y-110084950D01*
X96235950Y-110022572D01*
X96240241Y-109983159D01*
X96246718Y-109961517D01*
X96256248Y-109952452D01*
X96267958Y-109950755D01*
X96281617Y-109953040D01*
G37*
G36*
X96778938Y-109957879D02*
G01*
X96854144Y-109980235D01*
X96903321Y-110019297D01*
X96928638Y-110076541D01*
X96933333Y-110126056D01*
X96924309Y-110179687D01*
X96892620Y-110227133D01*
X96882619Y-110237554D01*
X96831905Y-110288301D01*
X96899286Y-110401794D01*
X96930951Y-110456398D01*
X96954626Y-110499643D01*
X96966164Y-110523880D01*
X96966666Y-110526039D01*
X96952797Y-110532439D01*
X96930285Y-110531462D01*
X96900066Y-110513645D01*
X96860900Y-110466935D01*
X96820175Y-110404296D01*
X96783387Y-110345045D01*
X96757236Y-110309308D01*
X96735831Y-110291630D01*
X96713281Y-110286560D01*
X96694055Y-110287553D01*
X96641666Y-110292646D01*
X96636769Y-110413559D01*
X96633252Y-110476459D01*
X96627616Y-110512946D01*
X96617708Y-110529961D01*
X96601376Y-110534445D01*
X96599269Y-110534471D01*
X96587533Y-110532871D01*
X96579010Y-110525012D01*
X96573188Y-110506308D01*
X96569555Y-110472172D01*
X96567599Y-110418018D01*
X96566807Y-110339259D01*
X96566666Y-110242613D01*
X96566666Y-110114751D01*
X96566666Y-110017465D01*
X96633333Y-110017465D01*
X96633333Y-110114751D01*
X96635104Y-110169054D01*
X96639685Y-110208963D01*
X96644444Y-110223156D01*
X96666920Y-110230322D01*
X96708645Y-110234101D01*
X96720202Y-110234274D01*
X96781766Y-110223869D01*
X96825757Y-110193338D01*
X96860151Y-110142813D01*
X96864027Y-110095469D01*
X96840175Y-110055802D01*
X96791385Y-110028309D01*
X96720444Y-110017488D01*
X96716666Y-110017465D01*
X96633333Y-110017465D01*
X96566666Y-110017465D01*
X96566666Y-109950755D01*
X96675535Y-109950755D01*
X96778938Y-109957879D01*
G37*
G36*
X87326966Y-109958026D02*
G01*
X87400599Y-109980476D01*
X87448784Y-110019063D01*
X87465702Y-110048491D01*
X87479159Y-110115833D01*
X87468622Y-110182797D01*
X87436590Y-110237293D01*
X87424380Y-110248460D01*
X87395729Y-110273815D01*
X87383345Y-110290330D01*
X87383333Y-110290583D01*
X87391445Y-110308523D01*
X87412913Y-110347087D01*
X87443436Y-110398611D01*
X87450000Y-110409389D01*
X87481736Y-110462251D01*
X87505274Y-110503318D01*
X87516330Y-110525068D01*
X87516666Y-110526426D01*
X87502496Y-110532646D01*
X87479166Y-110534294D01*
X87455968Y-110527307D01*
X87430643Y-110503285D01*
X87398927Y-110457305D01*
X87369957Y-110408221D01*
X87334587Y-110347544D01*
X87309461Y-110310683D01*
X87288897Y-110292149D01*
X87267214Y-110286455D01*
X87244957Y-110287485D01*
X87191666Y-110292646D01*
X87186769Y-110413559D01*
X87183252Y-110476459D01*
X87177616Y-110512946D01*
X87167708Y-110529961D01*
X87151376Y-110534445D01*
X87149269Y-110534471D01*
X87137533Y-110532871D01*
X87129010Y-110525012D01*
X87123188Y-110506308D01*
X87119555Y-110472172D01*
X87117599Y-110418018D01*
X87116807Y-110339259D01*
X87116666Y-110242613D01*
X87116666Y-110234274D01*
X87183333Y-110234274D01*
X87259090Y-110234274D01*
X87317742Y-110228548D01*
X87359529Y-110207853D01*
X87375757Y-110193338D01*
X87410151Y-110142813D01*
X87414027Y-110095469D01*
X87390175Y-110055802D01*
X87341385Y-110028309D01*
X87270444Y-110017488D01*
X87266666Y-110017465D01*
X87183333Y-110017465D01*
X87183333Y-110125870D01*
X87183333Y-110234274D01*
X87116666Y-110234274D01*
X87116666Y-110125870D01*
X87116666Y-109950755D01*
X87225535Y-109950755D01*
X87326966Y-109958026D01*
G37*
G36*
X90900813Y-109955022D02*
G01*
X90907473Y-109970708D01*
X90912018Y-110002138D01*
X90914818Y-110053639D01*
X90916243Y-110129537D01*
X90916665Y-110234157D01*
X90916666Y-110242613D01*
X90916118Y-110362722D01*
X90913100Y-110450252D01*
X90905551Y-110505975D01*
X90891413Y-110530665D01*
X90868623Y-110525095D01*
X90835122Y-110490038D01*
X90788849Y-110426266D01*
X90727745Y-110334554D01*
X90716666Y-110317662D01*
X90667510Y-110243416D01*
X90624666Y-110180129D01*
X90591444Y-110132580D01*
X90571157Y-110105551D01*
X90566666Y-110101157D01*
X90563963Y-110116658D01*
X90562470Y-110159322D01*
X90562268Y-110222974D01*
X90563437Y-110301441D01*
X90563824Y-110317639D01*
X90565834Y-110406041D01*
X90566111Y-110466433D01*
X90563938Y-110504143D01*
X90558597Y-110524500D01*
X90549372Y-110532832D01*
X90535546Y-110534470D01*
X90534657Y-110534471D01*
X90522192Y-110533259D01*
X90513142Y-110526558D01*
X90506960Y-110509768D01*
X90503101Y-110478292D01*
X90501019Y-110427531D01*
X90500167Y-110352885D01*
X90500000Y-110249757D01*
X90500000Y-110242613D01*
X90500548Y-110122504D01*
X90503566Y-110034974D01*
X90511114Y-109979251D01*
X90525253Y-109954561D01*
X90548043Y-109960131D01*
X90581544Y-109995189D01*
X90627816Y-110058960D01*
X90688921Y-110150672D01*
X90700000Y-110167564D01*
X90749456Y-110241876D01*
X90793034Y-110305201D01*
X90827320Y-110352745D01*
X90848901Y-110379715D01*
X90854166Y-110384045D01*
X90858815Y-110368528D01*
X90862681Y-110325838D01*
X90865405Y-110262154D01*
X90866632Y-110183656D01*
X90866666Y-110167564D01*
X90867223Y-110077267D01*
X90869274Y-110015379D01*
X90873387Y-109976965D01*
X90880132Y-109957093D01*
X90890077Y-109950827D01*
X90891666Y-109950755D01*
X90900813Y-109955022D01*
G37*
G36*
X91612500Y-107616256D02*
G01*
X91808699Y-107616385D01*
X91974406Y-107616664D01*
X92112462Y-107617188D01*
X92225706Y-107618054D01*
X92316979Y-107619359D01*
X92389122Y-107621199D01*
X92444976Y-107623670D01*
X92487381Y-107626868D01*
X92519178Y-107630891D01*
X92543208Y-107635833D01*
X92562311Y-107641793D01*
X92579328Y-107648865D01*
X92579793Y-107649077D01*
X92643119Y-107694323D01*
X92682740Y-107757538D01*
X92696856Y-107831545D01*
X92683665Y-107909170D01*
X92658020Y-107960598D01*
X92638787Y-107980487D01*
X92596239Y-108018436D01*
X92533369Y-108072019D01*
X92453166Y-108138807D01*
X92358621Y-108216373D01*
X92252724Y-108302289D01*
X92138466Y-108394129D01*
X92018838Y-108489464D01*
X91896829Y-108585868D01*
X91775431Y-108680912D01*
X91669196Y-108763260D01*
X91513393Y-108883388D01*
X92148363Y-108883388D01*
X92783333Y-108883388D01*
X92783333Y-109100197D01*
X92783333Y-109317006D01*
X91779166Y-109316903D01*
X91567731Y-109316794D01*
X91387104Y-109316474D01*
X91234760Y-109315880D01*
X91108175Y-109314950D01*
X91004822Y-109313622D01*
X90922177Y-109311835D01*
X90857715Y-109309527D01*
X90808910Y-109306635D01*
X90773239Y-109303098D01*
X90748176Y-109298854D01*
X90731196Y-109293840D01*
X90725000Y-109291053D01*
X90680164Y-109261244D01*
X90646203Y-109228614D01*
X90624925Y-109179822D01*
X90617321Y-109114026D01*
X90623412Y-109044649D01*
X90643217Y-108985115D01*
X90645833Y-108980423D01*
X90663838Y-108961397D01*
X90704773Y-108924640D01*
X90765245Y-108872887D01*
X90841860Y-108808870D01*
X90931226Y-108735324D01*
X91029949Y-108654981D01*
X91134637Y-108570575D01*
X91241896Y-108484840D01*
X91348334Y-108400509D01*
X91450558Y-108320317D01*
X91545174Y-108246996D01*
X91628790Y-108183280D01*
X91698012Y-108131902D01*
X91708333Y-108124427D01*
X91749493Y-108094592D01*
X91779136Y-108072815D01*
X91786672Y-108067105D01*
X91773544Y-108065050D01*
X91730891Y-108063506D01*
X91662517Y-108062497D01*
X91572226Y-108062048D01*
X91463824Y-108062182D01*
X91341114Y-108062925D01*
X91257506Y-108063723D01*
X90716666Y-108069601D01*
X90716666Y-107842745D01*
X90716666Y-107615890D01*
X91612500Y-107616256D01*
G37*
G36*
X88423466Y-107617574D02*
G01*
X88627842Y-107633466D01*
X88818477Y-107664364D01*
X88991396Y-107709555D01*
X89142625Y-107768327D01*
X89268190Y-107839965D01*
X89308252Y-107870334D01*
X89398268Y-107965399D01*
X89469213Y-108084186D01*
X89519076Y-108221762D01*
X89545845Y-108373192D01*
X89550000Y-108463294D01*
X89537413Y-108635873D01*
X89499279Y-108787837D01*
X89435034Y-108919865D01*
X89344116Y-109032636D01*
X89225961Y-109126829D01*
X89080006Y-109203125D01*
X88905689Y-109262201D01*
X88882927Y-109268143D01*
X88829775Y-109280458D01*
X88776123Y-109289888D01*
X88716019Y-109296909D01*
X88643510Y-109301995D01*
X88552642Y-109305622D01*
X88437462Y-109308267D01*
X88366666Y-109309403D01*
X88251349Y-109310323D01*
X88141091Y-109309817D01*
X88042392Y-109308021D01*
X87961751Y-109305071D01*
X87905667Y-109301102D01*
X87893079Y-109299503D01*
X87693606Y-109257657D01*
X87522397Y-109198379D01*
X87379062Y-109121281D01*
X87263211Y-109025974D01*
X87174453Y-108912071D01*
X87112399Y-108779182D01*
X87076660Y-108626920D01*
X87069959Y-108525886D01*
X87593732Y-108525886D01*
X87604091Y-108614183D01*
X87614530Y-108653803D01*
X87650462Y-108717186D01*
X87709483Y-108777550D01*
X87781816Y-108826302D01*
X87837373Y-108849612D01*
X87926696Y-108869595D01*
X88041212Y-108884125D01*
X88173165Y-108892821D01*
X88314803Y-108895301D01*
X88458372Y-108891182D01*
X88550046Y-108884698D01*
X88665021Y-108871680D01*
X88753726Y-108854551D01*
X88823165Y-108831164D01*
X88880342Y-108799372D01*
X88914422Y-108773037D01*
X88966887Y-108708586D01*
X89002531Y-108624613D01*
X89021456Y-108528675D01*
X89023767Y-108428324D01*
X89009568Y-108331117D01*
X88978962Y-108244607D01*
X88932055Y-108176351D01*
X88905899Y-108153777D01*
X88857152Y-108123482D01*
X88803039Y-108099991D01*
X88738803Y-108082540D01*
X88659688Y-108070366D01*
X88560936Y-108062705D01*
X88437791Y-108058794D01*
X88308333Y-108057846D01*
X88184339Y-108058289D01*
X88088127Y-108059870D01*
X88014154Y-108062969D01*
X87956875Y-108067964D01*
X87910749Y-108075236D01*
X87870231Y-108085162D01*
X87858701Y-108088603D01*
X87766642Y-108123196D01*
X87700677Y-108164271D01*
X87653583Y-108217343D01*
X87627888Y-108264780D01*
X87606090Y-108337791D01*
X87594552Y-108429290D01*
X87593732Y-108525886D01*
X87069959Y-108525886D01*
X87066666Y-108476242D01*
X87078585Y-108305932D01*
X87114798Y-108155961D01*
X87175993Y-108025703D01*
X87262855Y-107914529D01*
X87376073Y-107821814D01*
X87516331Y-107746931D01*
X87684316Y-107689251D01*
X87880716Y-107648150D01*
X87989391Y-107633664D01*
X88209324Y-107617403D01*
X88423466Y-107617574D01*
G37*
G36*
X94311177Y-107624045D02*
G01*
X94467832Y-107635145D01*
X94609098Y-107652272D01*
X94681992Y-107665269D01*
X94820919Y-107702547D01*
X94953423Y-107753979D01*
X95071439Y-107815735D01*
X95166902Y-107883988D01*
X95192293Y-107907497D01*
X95277402Y-108015493D01*
X95340684Y-108145006D01*
X95380802Y-108291244D01*
X95396424Y-108449416D01*
X95387243Y-108607228D01*
X95353691Y-108760988D01*
X95296296Y-108894662D01*
X95214139Y-109009013D01*
X95106303Y-109104803D01*
X94971869Y-109182797D01*
X94809919Y-109243758D01*
X94619536Y-109288448D01*
X94555140Y-109299037D01*
X94489979Y-109305604D01*
X94399427Y-109310365D01*
X94291377Y-109313325D01*
X94173724Y-109314489D01*
X94054361Y-109313861D01*
X93941181Y-109311448D01*
X93842078Y-109307252D01*
X93764945Y-109301279D01*
X93743058Y-109298547D01*
X93552707Y-109259999D01*
X93384922Y-109203712D01*
X93241446Y-109130695D01*
X93124021Y-109041960D01*
X93034386Y-108938515D01*
X92991260Y-108862591D01*
X92954160Y-108767766D01*
X92930732Y-108668990D01*
X92919572Y-108557263D01*
X92919274Y-108423585D01*
X92919289Y-108423161D01*
X93435915Y-108423161D01*
X93437540Y-108526195D01*
X93457696Y-108624874D01*
X93496443Y-108711136D01*
X93537105Y-108762221D01*
X93600841Y-108810275D01*
X93682336Y-108845806D01*
X93786960Y-108870697D01*
X93883333Y-108883464D01*
X93969349Y-108889182D01*
X94073581Y-108891594D01*
X94187275Y-108890950D01*
X94301676Y-108887501D01*
X94408029Y-108881500D01*
X94497580Y-108873197D01*
X94555670Y-108864157D01*
X94666021Y-108832019D01*
X94748494Y-108786970D01*
X94806989Y-108726168D01*
X94842519Y-108655175D01*
X94855645Y-108596152D01*
X94862689Y-108518026D01*
X94863582Y-108433330D01*
X94858255Y-108354600D01*
X94846637Y-108294369D01*
X94844565Y-108288292D01*
X94809723Y-108219907D01*
X94758857Y-108164316D01*
X94689476Y-108120769D01*
X94599091Y-108088516D01*
X94485211Y-108066809D01*
X94345346Y-108054897D01*
X94177006Y-108052032D01*
X94066666Y-108054181D01*
X93927683Y-108059952D01*
X93816992Y-108068709D01*
X93729607Y-108081538D01*
X93660542Y-108099525D01*
X93604808Y-108123756D01*
X93557421Y-108155318D01*
X93541611Y-108168536D01*
X93488011Y-108236271D01*
X93452759Y-108323833D01*
X93435915Y-108423161D01*
X92919289Y-108423161D01*
X92919904Y-108405578D01*
X92923852Y-108321064D01*
X92929589Y-108259652D01*
X92939366Y-108211094D01*
X92955434Y-108165140D01*
X92980046Y-108111540D01*
X92988122Y-108095089D01*
X93058717Y-107978794D01*
X93147709Y-107880822D01*
X93257408Y-107799941D01*
X93390120Y-107734922D01*
X93548154Y-107684536D01*
X93733818Y-107647552D01*
X93858333Y-107631403D01*
X93995482Y-107621724D01*
X94150079Y-107619421D01*
X94311177Y-107624045D01*
G37*
G36*
X96325746Y-107639428D02*
G01*
X96403528Y-107683203D01*
X96453852Y-107734987D01*
X96472063Y-107762902D01*
X96504297Y-107815963D01*
X96548252Y-107890231D01*
X96601629Y-107981772D01*
X96662125Y-108086649D01*
X96727438Y-108200924D01*
X96767141Y-108270877D01*
X97038779Y-108750750D01*
X97096847Y-108646123D01*
X97220360Y-108425049D01*
X97329615Y-108232591D01*
X97424501Y-108068939D01*
X97504904Y-107934278D01*
X97570713Y-107828795D01*
X97621815Y-107752680D01*
X97658098Y-107706117D01*
X97666825Y-107697246D01*
X97745198Y-107645334D01*
X97832650Y-107619978D01*
X97922139Y-107620415D01*
X98006622Y-107645884D01*
X98079056Y-107695624D01*
X98119921Y-107746241D01*
X98132245Y-107774530D01*
X98152627Y-107831402D01*
X98179964Y-107913367D01*
X98213152Y-108016937D01*
X98251088Y-108138624D01*
X98292669Y-108274938D01*
X98336790Y-108422392D01*
X98376696Y-108558091D01*
X98595626Y-109308667D01*
X98337137Y-109313272D01*
X98248054Y-109314517D01*
X98171526Y-109314939D01*
X98113378Y-109314555D01*
X98079435Y-109313386D01*
X98073160Y-109312385D01*
X98067482Y-109295490D01*
X98054254Y-109250634D01*
X98034672Y-109182042D01*
X98009930Y-109093940D01*
X97981225Y-108990555D01*
X97949750Y-108876110D01*
X97949217Y-108874163D01*
X97916592Y-108755009D01*
X97885815Y-108642656D01*
X97858302Y-108542272D01*
X97835470Y-108459025D01*
X97818736Y-108398082D01*
X97810007Y-108366382D01*
X97789252Y-108291333D01*
X97679926Y-108508145D01*
X97626323Y-108611861D01*
X97567397Y-108721468D01*
X97505992Y-108832088D01*
X97444952Y-108938842D01*
X97387122Y-109036853D01*
X97335346Y-109121241D01*
X97292468Y-109187128D01*
X97261333Y-109229636D01*
X97255210Y-109236575D01*
X97202669Y-109280718D01*
X97142597Y-109306137D01*
X97066103Y-109315545D01*
X97000832Y-109314220D01*
X96919223Y-109305288D01*
X96862471Y-109288115D01*
X96838032Y-109273750D01*
X96809238Y-109243563D01*
X96767414Y-109186737D01*
X96714491Y-109106438D01*
X96652403Y-109005831D01*
X96583082Y-108888083D01*
X96508460Y-108756361D01*
X96430471Y-108613829D01*
X96397158Y-108551471D01*
X96260914Y-108294603D01*
X96189233Y-108568149D01*
X96158851Y-108683337D01*
X96125028Y-108810339D01*
X96091337Y-108935812D01*
X96061350Y-109046414D01*
X96053479Y-109075180D01*
X95989406Y-109308667D01*
X95726777Y-109313266D01*
X95464147Y-109317866D01*
X95475850Y-109280969D01*
X95482959Y-109257665D01*
X95498591Y-109205835D01*
X95521715Y-109128912D01*
X95551303Y-109030325D01*
X95586326Y-108913507D01*
X95625753Y-108781889D01*
X95668555Y-108638901D01*
X95700353Y-108532618D01*
X95745316Y-108383070D01*
X95788166Y-108242034D01*
X95827806Y-108113018D01*
X95863136Y-107999530D01*
X95893059Y-107905078D01*
X95916477Y-107833170D01*
X95932293Y-107787315D01*
X95938203Y-107772689D01*
X95992542Y-107700766D01*
X96065363Y-107650974D01*
X96149768Y-107623817D01*
X96238861Y-107619801D01*
X96325746Y-107639428D01*
G37*
G36*
X83821558Y-106258108D02*
G01*
X83924273Y-106259490D01*
X84005959Y-106262295D01*
X84072768Y-106266933D01*
X84130850Y-106273817D01*
X84186355Y-106283355D01*
X84237641Y-106294202D01*
X84535256Y-106377128D01*
X84816213Y-106488006D01*
X85079134Y-106625439D01*
X85322641Y-106788029D01*
X85545356Y-106974379D01*
X85745902Y-107183091D01*
X85922899Y-107412768D01*
X86074971Y-107662012D01*
X86200739Y-107929427D01*
X86298826Y-108213614D01*
X86354116Y-108440483D01*
X86367548Y-108512025D01*
X86377356Y-108578870D01*
X86384052Y-108648418D01*
X86388150Y-108728069D01*
X86390162Y-108825224D01*
X86390599Y-108947283D01*
X86390564Y-108966776D01*
X86389742Y-109092474D01*
X86387563Y-109192027D01*
X86383494Y-109272636D01*
X86377001Y-109341502D01*
X86367552Y-109405824D01*
X86354613Y-109472803D01*
X86352283Y-109483782D01*
X86272727Y-109779595D01*
X86164896Y-110059834D01*
X86030313Y-110322973D01*
X85870500Y-110567488D01*
X85686980Y-110791853D01*
X85481277Y-110994543D01*
X85254912Y-111174032D01*
X85009409Y-111328795D01*
X84746290Y-111457308D01*
X84467077Y-111558043D01*
X84219187Y-111620495D01*
X84147064Y-111631789D01*
X84050792Y-111641980D01*
X83938324Y-111650701D01*
X83817613Y-111657586D01*
X83696611Y-111662270D01*
X83583272Y-111664386D01*
X83485546Y-111663570D01*
X83411389Y-111659453D01*
X83400000Y-111658191D01*
X83105397Y-111606877D01*
X82823381Y-111528494D01*
X82558734Y-111424424D01*
X82507547Y-111400279D01*
X82243713Y-111254057D01*
X82001156Y-111082684D01*
X81780956Y-110887543D01*
X81584191Y-110670019D01*
X81411940Y-110431494D01*
X81265283Y-110173352D01*
X81145297Y-109896975D01*
X81053063Y-109603748D01*
X81029179Y-109504771D01*
X81016988Y-109446438D01*
X81007811Y-109390912D01*
X81001235Y-109332037D01*
X80996851Y-109263659D01*
X80994248Y-109179625D01*
X80993015Y-109073780D01*
X80992739Y-108958437D01*
X80992830Y-108926674D01*
X81834734Y-108926674D01*
X81836028Y-109084752D01*
X81847713Y-109228191D01*
X81857095Y-109288235D01*
X81919216Y-109532296D01*
X82010169Y-109761909D01*
X82127966Y-109975113D01*
X82270619Y-110169946D01*
X82436140Y-110344449D01*
X82622542Y-110496660D01*
X82827837Y-110624618D01*
X83050036Y-110726364D01*
X83287153Y-110799935D01*
X83416666Y-110826574D01*
X83542477Y-110843971D01*
X83647062Y-110849938D01*
X83727354Y-110844527D01*
X83780283Y-110827788D01*
X83790592Y-110820363D01*
X83832763Y-110798527D01*
X83907478Y-110779829D01*
X83973948Y-110769268D01*
X84197745Y-110723130D01*
X84420270Y-110646334D01*
X84635385Y-110541220D01*
X84741666Y-110476547D01*
X84805476Y-110429038D01*
X84882993Y-110362441D01*
X84967485Y-110283464D01*
X85052219Y-110198815D01*
X85130466Y-110115204D01*
X85195494Y-110039337D01*
X85238011Y-109981911D01*
X85362787Y-109761105D01*
X85455948Y-109531672D01*
X85517261Y-109295715D01*
X85546491Y-109055337D01*
X85543405Y-108812639D01*
X85507769Y-108569726D01*
X85439349Y-108328699D01*
X85425938Y-108292025D01*
X85400033Y-108211184D01*
X85390511Y-108151103D01*
X85392133Y-108130770D01*
X85392715Y-108090630D01*
X85377185Y-108040671D01*
X85343644Y-107977151D01*
X85290194Y-107896329D01*
X85234868Y-107820736D01*
X85070376Y-107629003D01*
X84886304Y-107463626D01*
X84684630Y-107325644D01*
X84467330Y-107216095D01*
X84236381Y-107136018D01*
X83993761Y-107086452D01*
X83805592Y-107069934D01*
X83627655Y-107068432D01*
X83469015Y-107080049D01*
X83317722Y-107106288D01*
X83161827Y-107148654D01*
X83150000Y-107152401D01*
X82934636Y-107234196D01*
X82739955Y-107336696D01*
X82559007Y-107464145D01*
X82388110Y-107617528D01*
X82222324Y-107805104D01*
X82083262Y-108010892D01*
X81972691Y-108231850D01*
X81892377Y-108464931D01*
X81888752Y-108478500D01*
X81861542Y-108612158D01*
X81843387Y-108765346D01*
X81834734Y-108926674D01*
X80992830Y-108926674D01*
X80993111Y-108828279D01*
X80994507Y-108725216D01*
X80997345Y-108642992D01*
X81002043Y-108575352D01*
X81009019Y-108516040D01*
X81018691Y-108458802D01*
X81029670Y-108405612D01*
X81110329Y-108111455D01*
X81219747Y-107832746D01*
X81356384Y-107571025D01*
X81518700Y-107327831D01*
X81705156Y-107104707D01*
X81914212Y-106903192D01*
X82144329Y-106724827D01*
X82393967Y-106571153D01*
X82661586Y-106443709D01*
X82945647Y-106344038D01*
X83139203Y-106294693D01*
X83199708Y-106282317D01*
X83256825Y-106273004D01*
X83316806Y-106266335D01*
X83385902Y-106261893D01*
X83470365Y-106259259D01*
X83576445Y-106258015D01*
X83691666Y-106257738D01*
X83821558Y-106258108D01*
G37*
G36*
X83917908Y-107265317D02*
G01*
X84138109Y-107305835D01*
X84353358Y-107376090D01*
X84560735Y-107476332D01*
X84746773Y-107598796D01*
X84890312Y-107718974D01*
X85014600Y-107850573D01*
X85129032Y-108003734D01*
X85147178Y-108031108D01*
X85206853Y-108115601D01*
X85255100Y-108168800D01*
X85285404Y-108188816D01*
X85317962Y-108210615D01*
X85348722Y-108252518D01*
X85379197Y-108317767D01*
X85410898Y-108409603D01*
X85445340Y-108531267D01*
X85445482Y-108531804D01*
X85470061Y-108656542D01*
X85485349Y-108802090D01*
X85491141Y-108957169D01*
X85487229Y-109110498D01*
X85473409Y-109250794D01*
X85459982Y-109325345D01*
X85391518Y-109559003D01*
X85293798Y-109778422D01*
X85168649Y-109981263D01*
X85017899Y-110165188D01*
X84843373Y-110327858D01*
X84646899Y-110466935D01*
X84508333Y-110543552D01*
X84415062Y-110585923D01*
X84314011Y-110625002D01*
X84210144Y-110659602D01*
X84108423Y-110688538D01*
X84013812Y-110710623D01*
X83931271Y-110724670D01*
X83865766Y-110729492D01*
X83822257Y-110723904D01*
X83806688Y-110711311D01*
X83784712Y-110686588D01*
X83738321Y-110667869D01*
X83664631Y-110654389D01*
X83560754Y-110645378D01*
X83558333Y-110645237D01*
X83361425Y-110618338D01*
X83162286Y-110561895D01*
X82966710Y-110478738D01*
X82780489Y-110371698D01*
X82609414Y-110243606D01*
X82477041Y-110116847D01*
X82329064Y-109933580D01*
X82209967Y-109736837D01*
X82119742Y-109529557D01*
X82110894Y-109498573D01*
X82486041Y-109498573D01*
X82489974Y-109534779D01*
X82502708Y-109552520D01*
X82523494Y-109555421D01*
X82574189Y-109558133D01*
X82651367Y-109560593D01*
X82751603Y-109562738D01*
X82871473Y-109564505D01*
X83007553Y-109565832D01*
X83156416Y-109566657D01*
X83289095Y-109566915D01*
X83470897Y-109567080D01*
X83622330Y-109567513D01*
X83746357Y-109568312D01*
X83845941Y-109569579D01*
X83924046Y-109571415D01*
X83983636Y-109573919D01*
X84027674Y-109577194D01*
X84059123Y-109581339D01*
X84080948Y-109586456D01*
X84096110Y-109592645D01*
X84099336Y-109594447D01*
X84156220Y-109644885D01*
X84189537Y-109709760D01*
X84199488Y-109781300D01*
X84186276Y-109851736D01*
X84150101Y-109913295D01*
X84091165Y-109958208D01*
X84089880Y-109958824D01*
X84011265Y-109981858D01*
X83936381Y-109972702D01*
X83873825Y-109940542D01*
X83826456Y-109913401D01*
X83794754Y-109908675D01*
X83783999Y-109913143D01*
X83755211Y-109944606D01*
X83754404Y-109980773D01*
X83777327Y-110017846D01*
X83819730Y-110052024D01*
X83877362Y-110079510D01*
X83945971Y-110096504D01*
X83993211Y-110100116D01*
X84093362Y-110086252D01*
X84151545Y-110062034D01*
X84229350Y-110004159D01*
X84283405Y-109929423D01*
X84313725Y-109843964D01*
X84320325Y-109753920D01*
X84303221Y-109665432D01*
X84262427Y-109584637D01*
X84197959Y-109517675D01*
X84150118Y-109487792D01*
X84075624Y-109450108D01*
X83283645Y-109454437D01*
X82491666Y-109458765D01*
X82486041Y-109498573D01*
X82110894Y-109498573D01*
X82058383Y-109314682D01*
X82049304Y-109253359D01*
X82481563Y-109253359D01*
X82484759Y-109265255D01*
X82495081Y-109274954D01*
X82515087Y-109282681D01*
X82547337Y-109288659D01*
X82594389Y-109293112D01*
X82658804Y-109296263D01*
X82743140Y-109298337D01*
X82849956Y-109299557D01*
X82981811Y-109300147D01*
X83141265Y-109300330D01*
X83330877Y-109300330D01*
X83381325Y-109300328D01*
X83576908Y-109300261D01*
X83742117Y-109299995D01*
X83879914Y-109299437D01*
X83993256Y-109298492D01*
X84085105Y-109297065D01*
X84158420Y-109295062D01*
X84216161Y-109292387D01*
X84261287Y-109288948D01*
X84296759Y-109284648D01*
X84325537Y-109279393D01*
X84350580Y-109273089D01*
X84364585Y-109268908D01*
X84488715Y-109220289D01*
X84593636Y-109155073D01*
X84692103Y-109065292D01*
X84694226Y-109063052D01*
X84774159Y-108966837D01*
X84830473Y-108868589D01*
X84870791Y-108754637D01*
X84875079Y-108738633D01*
X84898420Y-108587655D01*
X84891024Y-108440986D01*
X84855470Y-108301953D01*
X84794339Y-108173887D01*
X84710213Y-108060115D01*
X84605671Y-107963968D01*
X84483296Y-107888772D01*
X84345667Y-107837858D01*
X84195366Y-107814554D01*
X84157789Y-107813440D01*
X84084975Y-107816075D01*
X84013405Y-107823590D01*
X83966123Y-107832608D01*
X83879715Y-107863231D01*
X83789448Y-107907726D01*
X83707807Y-107959183D01*
X83650566Y-108007228D01*
X83618239Y-108044066D01*
X83607424Y-108069780D01*
X83614135Y-108094725D01*
X83615712Y-108097756D01*
X83641294Y-108126540D01*
X83675241Y-108128005D01*
X83721199Y-108101667D01*
X83747039Y-108080380D01*
X83797107Y-108043055D01*
X83860507Y-108004430D01*
X83899239Y-107984483D01*
X83947986Y-107963687D01*
X83993417Y-107950740D01*
X84046097Y-107943875D01*
X84116593Y-107941320D01*
X84158333Y-107941106D01*
X84239121Y-107942108D01*
X84297113Y-107946363D01*
X84342815Y-107955747D01*
X84386735Y-107972139D01*
X84420279Y-107987919D01*
X84541754Y-108065799D01*
X84643103Y-108168768D01*
X84720290Y-108292703D01*
X84721822Y-108295923D01*
X84748179Y-108355390D01*
X84764034Y-108404942D01*
X84771964Y-108457360D01*
X84774542Y-108525429D01*
X84774654Y-108558175D01*
X84772953Y-108638322D01*
X84766592Y-108697453D01*
X84753345Y-108747815D01*
X84730989Y-108801657D01*
X84730070Y-108803637D01*
X84657041Y-108923126D01*
X84558964Y-109027234D01*
X84443178Y-109108474D01*
X84418804Y-109121189D01*
X84309108Y-109175246D01*
X83400606Y-109183585D01*
X83203320Y-109185443D01*
X83036755Y-109187173D01*
X82898301Y-109188883D01*
X82785347Y-109190684D01*
X82695282Y-109192685D01*
X82625496Y-109194997D01*
X82573377Y-109197730D01*
X82536315Y-109200993D01*
X82511699Y-109204896D01*
X82496918Y-109209550D01*
X82489361Y-109215064D01*
X82486418Y-109221548D01*
X82486309Y-109222084D01*
X82482932Y-109239043D01*
X82481563Y-109253359D01*
X82049304Y-109253359D01*
X82025880Y-109095152D01*
X82024083Y-108986320D01*
X82481538Y-108986320D01*
X82484634Y-108998169D01*
X82494773Y-109007849D01*
X82514494Y-109015579D01*
X82546338Y-109021576D01*
X82592845Y-109026060D01*
X82656555Y-109029249D01*
X82740008Y-109031360D01*
X82845745Y-109032613D01*
X82976306Y-109033226D01*
X83134231Y-109033417D01*
X83322060Y-109033405D01*
X83395310Y-109033393D01*
X83623317Y-109033018D01*
X83821847Y-109031948D01*
X83990284Y-109030196D01*
X84128009Y-109027773D01*
X84234407Y-109024692D01*
X84308859Y-109020962D01*
X84350750Y-109016597D01*
X84355911Y-109015450D01*
X84423429Y-108983602D01*
X84491891Y-108929815D01*
X84551233Y-108863631D01*
X84591390Y-108794592D01*
X84592889Y-108790777D01*
X84615290Y-108687873D01*
X84608266Y-108582632D01*
X84574001Y-108482822D01*
X84514678Y-108396208D01*
X84470654Y-108355847D01*
X84372871Y-108299381D01*
X84269889Y-108275755D01*
X84162452Y-108285116D01*
X84142188Y-108290464D01*
X84065819Y-108319798D01*
X84005907Y-108356742D01*
X83967439Y-108397085D01*
X83955400Y-108436615D01*
X83957322Y-108446584D01*
X83979842Y-108476815D01*
X84019425Y-108478763D01*
X84076324Y-108452417D01*
X84093252Y-108441431D01*
X84171695Y-108406322D01*
X84255772Y-108398841D01*
X84337686Y-108416987D01*
X84409640Y-108458758D01*
X84463838Y-108522152D01*
X84472618Y-108538830D01*
X84497992Y-108627561D01*
X84491366Y-108714651D01*
X84453964Y-108795770D01*
X84387008Y-108866591D01*
X84377960Y-108873516D01*
X84367016Y-108881049D01*
X84354323Y-108887444D01*
X84337156Y-108892823D01*
X84312786Y-108897309D01*
X84278489Y-108901022D01*
X84231539Y-108904086D01*
X84169208Y-108906622D01*
X84088771Y-108908751D01*
X83987502Y-108910597D01*
X83862674Y-108912280D01*
X83711561Y-108913923D01*
X83531438Y-108915648D01*
X83411515Y-108916743D01*
X83212957Y-108918591D01*
X83045137Y-108920310D01*
X82905459Y-108922009D01*
X82791327Y-108923795D01*
X82700147Y-108925776D01*
X82629324Y-108928061D01*
X82576262Y-108930757D01*
X82538366Y-108933973D01*
X82513041Y-108937816D01*
X82497691Y-108942394D01*
X82489722Y-108947815D01*
X82486539Y-108954188D01*
X82486312Y-108955242D01*
X82482944Y-108972084D01*
X82481538Y-108986320D01*
X82024083Y-108986320D01*
X82022227Y-108873908D01*
X82042361Y-108698048D01*
X82486041Y-108698048D01*
X82489986Y-108734410D01*
X82502708Y-108752332D01*
X82524009Y-108755545D01*
X82574746Y-108758278D01*
X82651025Y-108760468D01*
X82748952Y-108762050D01*
X82864633Y-108762961D01*
X82994172Y-108763138D01*
X83127969Y-108762557D01*
X83285871Y-108761378D01*
X83413898Y-108760155D01*
X83515506Y-108758679D01*
X83594153Y-108756744D01*
X83653295Y-108754140D01*
X83696390Y-108750660D01*
X83726894Y-108746095D01*
X83748266Y-108740237D01*
X83763962Y-108732878D01*
X83777439Y-108723809D01*
X83777969Y-108723417D01*
X83847829Y-108653935D01*
X83888626Y-108574325D01*
X83900313Y-108490071D01*
X83882840Y-108406655D01*
X83836160Y-108329559D01*
X83781890Y-108279137D01*
X83708059Y-108244250D01*
X83624030Y-108237898D01*
X83537539Y-108260496D01*
X83526914Y-108265389D01*
X83468512Y-108302393D01*
X83440353Y-108341092D01*
X83443590Y-108379300D01*
X83457231Y-108397427D01*
X83476515Y-108412686D01*
X83497372Y-108413296D01*
X83530751Y-108397948D01*
X83551651Y-108386132D01*
X83623084Y-108358730D01*
X83686005Y-108363272D01*
X83739589Y-108399652D01*
X83749796Y-108411606D01*
X83779035Y-108472493D01*
X83776173Y-108536057D01*
X83743128Y-108594769D01*
X83702924Y-108641563D01*
X83097295Y-108649901D01*
X82491666Y-108658240D01*
X82486041Y-108698048D01*
X82042361Y-108698048D01*
X82047416Y-108653890D01*
X82101438Y-108438039D01*
X82184286Y-108229296D01*
X82295952Y-108030601D01*
X82436429Y-107844894D01*
X82483179Y-107793227D01*
X82656269Y-107632616D01*
X82844850Y-107499986D01*
X83046001Y-107395586D01*
X83256803Y-107319669D01*
X83474335Y-107272484D01*
X83695677Y-107254283D01*
X83917908Y-107265317D01*
G37*
G36*
X91883592Y-104525294D02*
G01*
X91883592Y-104614857D01*
X91805971Y-104614857D01*
X91728350Y-104614857D01*
X91728350Y-104525294D01*
X91728350Y-104435732D01*
X91805971Y-104435732D01*
X91883592Y-104435732D01*
X91883592Y-104525294D01*
G37*
G36*
X91883592Y-105235826D02*
G01*
X91883592Y-105689610D01*
X91805971Y-105689610D01*
X91728350Y-105689610D01*
X91728350Y-105235826D01*
X91728350Y-104782041D01*
X91805971Y-104782041D01*
X91883592Y-104782041D01*
X91883592Y-105235826D01*
G37*
G36*
X92409027Y-104644711D02*
G01*
X92409027Y-104782041D01*
X92498590Y-104782041D01*
X92588152Y-104782041D01*
X92588152Y-104847720D01*
X92588152Y-104913400D01*
X92498590Y-104913400D01*
X92409027Y-104913400D01*
X92409027Y-105216062D01*
X92409059Y-105315313D01*
X92409713Y-105393253D01*
X92411828Y-105452457D01*
X92416239Y-105495497D01*
X92423786Y-105524945D01*
X92435306Y-105543375D01*
X92451636Y-105553359D01*
X92473613Y-105557470D01*
X92502076Y-105558280D01*
X92520428Y-105558252D01*
X92588152Y-105558252D01*
X92588152Y-105623931D01*
X92588152Y-105689610D01*
X92483662Y-105689143D01*
X92424345Y-105686789D01*
X92374482Y-105680848D01*
X92341235Y-105672175D01*
X92341135Y-105672132D01*
X92320462Y-105662085D01*
X92303951Y-105650127D01*
X92291135Y-105633639D01*
X92281549Y-105610003D01*
X92274726Y-105576599D01*
X92270200Y-105530811D01*
X92267507Y-105470018D01*
X92266179Y-105391602D01*
X92265750Y-105292946D01*
X92265726Y-105248360D01*
X92265726Y-104913400D01*
X92188105Y-104913400D01*
X92110484Y-104913400D01*
X92110484Y-104847720D01*
X92110484Y-104782041D01*
X92188105Y-104782041D01*
X92265726Y-104782041D01*
X92265726Y-104644711D01*
X92265726Y-104507382D01*
X92337377Y-104507382D01*
X92409027Y-104507382D01*
X92409027Y-104644711D01*
G37*
G36*
X92994170Y-104669445D02*
G01*
X92994170Y-104903158D01*
X93034350Y-104860556D01*
X93090417Y-104813465D01*
X93155981Y-104782926D01*
X93235180Y-104767400D01*
X93292713Y-104764641D01*
X93383012Y-104771293D01*
X93455543Y-104793010D01*
X93511936Y-104830921D01*
X93553819Y-104886155D01*
X93582822Y-104959842D01*
X93584780Y-104967126D01*
X93590704Y-104995282D01*
X93595296Y-105030781D01*
X93598694Y-105076621D01*
X93601038Y-105135799D01*
X93602466Y-105211311D01*
X93603118Y-105306155D01*
X93603197Y-105363722D01*
X93603197Y-105689610D01*
X93525576Y-105689610D01*
X93447955Y-105689610D01*
X93447955Y-105351038D01*
X93447901Y-105252209D01*
X93447602Y-105174355D01*
X93446848Y-105114568D01*
X93445433Y-105069937D01*
X93443147Y-105037555D01*
X93439784Y-105014513D01*
X93435136Y-104997902D01*
X93428993Y-104984814D01*
X93421149Y-104972340D01*
X93420848Y-104971889D01*
X93377729Y-104925319D01*
X93323452Y-104899150D01*
X93256386Y-104892654D01*
X93244081Y-104893415D01*
X93171678Y-104907544D01*
X93108827Y-104935850D01*
X93061371Y-104975508D01*
X93053455Y-104985644D01*
X93035685Y-105013312D01*
X93021788Y-105042718D01*
X93011308Y-105077135D01*
X93003788Y-105119837D01*
X92998774Y-105174098D01*
X92995807Y-105243191D01*
X92994432Y-105330390D01*
X92994170Y-105410878D01*
X92994170Y-105689610D01*
X92922520Y-105689610D01*
X92850870Y-105689610D01*
X92850870Y-105062671D01*
X92850870Y-104435732D01*
X92922520Y-104435732D01*
X92994170Y-104435732D01*
X92994170Y-104669445D01*
G37*
G36*
X96958815Y-104670744D02*
G01*
X96958815Y-104905757D01*
X97001318Y-104856102D01*
X97033356Y-104824116D01*
X97069542Y-104801734D01*
X97119485Y-104783081D01*
X97121993Y-104782302D01*
X97223545Y-104761704D01*
X97319123Y-104763167D01*
X97406988Y-104785245D01*
X97485399Y-104826495D01*
X97552618Y-104885473D01*
X97606906Y-104960732D01*
X97646522Y-105050831D01*
X97669727Y-105154322D01*
X97675317Y-105241796D01*
X97666133Y-105354777D01*
X97639321Y-105454628D01*
X97595995Y-105539979D01*
X97537268Y-105609458D01*
X97464255Y-105661694D01*
X97378067Y-105695317D01*
X97296651Y-105708150D01*
X97210949Y-105706445D01*
X97149882Y-105695066D01*
X97102920Y-105678165D01*
X97056632Y-105655270D01*
X97017405Y-105630185D01*
X96991626Y-105606714D01*
X96986032Y-105597481D01*
X96975573Y-105581878D01*
X96966291Y-105587353D01*
X96960167Y-105611114D01*
X96958815Y-105635873D01*
X96958815Y-105689610D01*
X96887165Y-105689610D01*
X96815515Y-105689610D01*
X96815515Y-105269482D01*
X96961620Y-105269482D01*
X96962308Y-105279620D01*
X96978349Y-105371505D01*
X97010845Y-105449167D01*
X97058633Y-105510785D01*
X97120544Y-105554541D01*
X97145402Y-105565324D01*
X97205196Y-105578137D01*
X97272249Y-105577775D01*
X97336897Y-105565168D01*
X97388421Y-105541952D01*
X97440282Y-105494048D01*
X97479164Y-105430500D01*
X97504886Y-105355830D01*
X97517265Y-105274558D01*
X97516123Y-105191205D01*
X97501278Y-105110292D01*
X97472549Y-105036340D01*
X97429756Y-104973869D01*
X97411849Y-104955938D01*
X97348740Y-104914521D01*
X97275632Y-104893880D01*
X97206151Y-104893691D01*
X97130228Y-104913500D01*
X97067050Y-104952532D01*
X97017608Y-105009216D01*
X96982895Y-105081982D01*
X96963901Y-105169260D01*
X96961620Y-105269482D01*
X96815515Y-105269482D01*
X96815515Y-105062671D01*
X96815515Y-104435732D01*
X96887165Y-104435732D01*
X96958815Y-104435732D01*
X96958815Y-104670744D01*
G37*
G36*
X97929877Y-104784521D02*
G01*
X98015484Y-104788012D01*
X98146370Y-105155181D01*
X98178036Y-105243103D01*
X98207415Y-105322939D01*
X98233515Y-105392129D01*
X98255345Y-105448115D01*
X98271915Y-105488336D01*
X98282233Y-105510234D01*
X98285116Y-105513432D01*
X98290745Y-105500328D01*
X98303016Y-105467361D01*
X98320953Y-105417300D01*
X98343579Y-105352916D01*
X98369916Y-105276982D01*
X98398986Y-105192267D01*
X98415670Y-105143277D01*
X98538363Y-104782041D01*
X98614363Y-104782041D01*
X98653430Y-104783159D01*
X98680856Y-104786081D01*
X98690362Y-104789852D01*
X98686133Y-104804005D01*
X98674123Y-104837756D01*
X98655345Y-104888494D01*
X98630813Y-104953613D01*
X98601543Y-105030504D01*
X98568547Y-105116558D01*
X98532841Y-105209169D01*
X98495438Y-105305726D01*
X98457353Y-105403623D01*
X98419600Y-105500251D01*
X98383192Y-105593001D01*
X98349145Y-105679267D01*
X98318471Y-105756439D01*
X98292187Y-105821909D01*
X98271304Y-105873069D01*
X98256839Y-105907311D01*
X98250728Y-105920476D01*
X98226235Y-105959580D01*
X98198799Y-105994068D01*
X98186004Y-106006594D01*
X98130070Y-106039295D01*
X98062954Y-106056092D01*
X97992519Y-106055489D01*
X97961918Y-106049167D01*
X97944880Y-106042038D01*
X97935324Y-106028391D01*
X97930507Y-106001839D01*
X97928437Y-105971212D01*
X97927111Y-105932524D01*
X97929248Y-105912858D01*
X97936248Y-105907441D01*
X97946350Y-105910185D01*
X97973002Y-105917714D01*
X98007994Y-105924053D01*
X98009685Y-105924277D01*
X98054732Y-105922701D01*
X98092842Y-105903800D01*
X98126431Y-105865512D01*
X98157917Y-105805772D01*
X98163337Y-105793087D01*
X98180835Y-105749184D01*
X98193956Y-105712694D01*
X98200435Y-105690030D01*
X98200752Y-105687184D01*
X98196440Y-105672915D01*
X98184134Y-105638951D01*
X98164783Y-105587744D01*
X98139335Y-105521747D01*
X98108738Y-105443411D01*
X98073938Y-105355189D01*
X98035885Y-105259532D01*
X98022512Y-105226093D01*
X97844271Y-104781030D01*
X97929877Y-104784521D01*
G37*
G36*
X88360790Y-105062671D02*
G01*
X88360790Y-105689610D01*
X88289140Y-105689610D01*
X88217489Y-105689610D01*
X88217489Y-105633449D01*
X88217489Y-105577288D01*
X88172708Y-105620995D01*
X88114061Y-105663077D01*
X88040539Y-105692508D01*
X87958244Y-105708060D01*
X87873276Y-105708506D01*
X87801887Y-105695638D01*
X87750299Y-105679626D01*
X87712304Y-105662684D01*
X87678027Y-105639436D01*
X87642258Y-105608734D01*
X87585894Y-105542497D01*
X87543180Y-105460093D01*
X87515057Y-105365579D01*
X87502468Y-105263013D01*
X87503137Y-105244675D01*
X87658947Y-105244675D01*
X87666941Y-105325441D01*
X87688063Y-105401516D01*
X87722656Y-105468591D01*
X87757032Y-105509805D01*
X87818147Y-105553195D01*
X87888780Y-105576651D01*
X87964315Y-105579490D01*
X88040137Y-105561028D01*
X88056309Y-105554081D01*
X88114543Y-105514326D01*
X88161045Y-105456887D01*
X88194671Y-105385491D01*
X88214277Y-105303862D01*
X88218719Y-105215726D01*
X88206855Y-105124807D01*
X88198252Y-105091707D01*
X88165604Y-105020087D01*
X88116611Y-104962556D01*
X88055210Y-104920815D01*
X87985337Y-104896567D01*
X87910931Y-104891511D01*
X87835926Y-104907349D01*
X87803892Y-104921302D01*
X87751392Y-104960886D01*
X87710304Y-105017325D01*
X87680972Y-105086308D01*
X87663739Y-105163528D01*
X87658947Y-105244675D01*
X87503137Y-105244675D01*
X87506355Y-105156450D01*
X87519597Y-105080745D01*
X87549613Y-104990110D01*
X87594842Y-104914022D01*
X87640322Y-104863237D01*
X87710412Y-104811470D01*
X87792828Y-104777042D01*
X87882269Y-104761176D01*
X87973434Y-104765094D01*
X88020445Y-104775554D01*
X88063233Y-104791076D01*
X88107438Y-104812054D01*
X88147493Y-104835192D01*
X88177831Y-104857189D01*
X88192883Y-104874747D01*
X88193606Y-104878148D01*
X88202711Y-104889190D01*
X88205548Y-104889516D01*
X88210022Y-104877831D01*
X88213520Y-104843766D01*
X88215965Y-104788811D01*
X88217278Y-104714451D01*
X88217489Y-104662624D01*
X88217489Y-104435732D01*
X88289140Y-104435732D01*
X88360790Y-104435732D01*
X88360790Y-105062671D01*
G37*
G36*
X95646329Y-104370380D02*
G01*
X95735538Y-104399603D01*
X95810207Y-104446729D01*
X95869193Y-104511098D01*
X95900193Y-104565309D01*
X95912929Y-104597804D01*
X95920764Y-104632790D01*
X95924730Y-104677308D01*
X95925857Y-104738398D01*
X95925858Y-104740496D01*
X95925256Y-104797429D01*
X95922396Y-104838461D01*
X95915697Y-104871564D01*
X95903579Y-104904709D01*
X95885604Y-104943505D01*
X95873483Y-104967102D01*
X95859576Y-104990190D01*
X95841995Y-105014863D01*
X95818853Y-105043214D01*
X95788262Y-105077337D01*
X95748333Y-105119325D01*
X95697180Y-105171271D01*
X95632913Y-105235268D01*
X95553646Y-105313410D01*
X95539294Y-105327513D01*
X95467510Y-105397701D01*
X95399961Y-105463112D01*
X95338805Y-105521705D01*
X95286198Y-105571442D01*
X95244297Y-105610280D01*
X95215258Y-105636180D01*
X95201900Y-105646743D01*
X95181642Y-105656881D01*
X95164884Y-105656675D01*
X95143101Y-105644344D01*
X95124279Y-105630541D01*
X95104745Y-105613881D01*
X95070663Y-105582642D01*
X95024413Y-105539093D01*
X94968375Y-105485505D01*
X94904927Y-105424148D01*
X94836448Y-105357292D01*
X94789707Y-105311312D01*
X94710409Y-105232847D01*
X94646329Y-105168788D01*
X94595510Y-105116940D01*
X94555996Y-105075112D01*
X94525831Y-105041110D01*
X94503058Y-105012743D01*
X94485722Y-104987818D01*
X94471865Y-104964142D01*
X94461310Y-104943254D01*
X94442610Y-104902446D01*
X94430833Y-104869264D01*
X94424397Y-104835686D01*
X94421716Y-104793692D01*
X94421204Y-104740245D01*
X94421918Y-104682381D01*
X94424958Y-104640847D01*
X94431673Y-104608110D01*
X94443409Y-104576638D01*
X94454802Y-104552407D01*
X94503529Y-104478398D01*
X94568180Y-104422070D01*
X94648421Y-104383606D01*
X94743918Y-104363191D01*
X94803338Y-104359718D01*
X94879181Y-104364398D01*
X94947281Y-104381822D01*
X95013910Y-104414449D01*
X95085341Y-104464737D01*
X95098799Y-104475533D01*
X95132699Y-104502500D01*
X95159089Y-104522290D01*
X95172894Y-104531119D01*
X95173531Y-104531265D01*
X95185183Y-104524261D01*
X95210126Y-104505769D01*
X95243285Y-104479574D01*
X95248263Y-104475533D01*
X95321178Y-104421903D01*
X95388195Y-104386364D01*
X95455585Y-104366457D01*
X95529621Y-104359725D01*
X95543724Y-104359718D01*
X95646329Y-104370380D01*
G37*
G36*
X89127133Y-104765087D02*
G01*
X89215150Y-104788870D01*
X89293836Y-104832638D01*
X89360680Y-104895391D01*
X89411199Y-104972206D01*
X89440216Y-105044144D01*
X89461191Y-105125947D01*
X89471013Y-105204779D01*
X89471368Y-105220422D01*
X89471368Y-105283592D01*
X89131030Y-105283592D01*
X89029405Y-105283430D01*
X88949314Y-105283443D01*
X88888414Y-105284385D01*
X88844359Y-105287010D01*
X88814809Y-105292069D01*
X88797419Y-105300315D01*
X88789846Y-105312502D01*
X88789748Y-105329383D01*
X88794780Y-105351710D01*
X88802600Y-105380235D01*
X88804719Y-105388434D01*
X88832480Y-105452670D01*
X88878199Y-105506091D01*
X88937632Y-105546683D01*
X89006533Y-105572434D01*
X89080658Y-105581329D01*
X89155763Y-105571357D01*
X89176602Y-105564834D01*
X89229758Y-105538848D01*
X89267860Y-105501448D01*
X89294535Y-105453762D01*
X89317244Y-105403009D01*
X89388563Y-105403009D01*
X89459881Y-105403009D01*
X89451728Y-105435849D01*
X89419833Y-105520526D01*
X89370668Y-105592079D01*
X89306817Y-105647461D01*
X89246347Y-105678282D01*
X89172591Y-105698120D01*
X89089722Y-105707829D01*
X89008310Y-105706729D01*
X88950513Y-105697397D01*
X88879107Y-105671940D01*
X88812637Y-105635098D01*
X88759547Y-105591772D01*
X88749583Y-105580775D01*
X88697341Y-105501073D01*
X88660717Y-105406574D01*
X88640928Y-105301532D01*
X88638942Y-105194030D01*
X88644167Y-105152234D01*
X88789609Y-105152234D01*
X89052867Y-105152234D01*
X89141690Y-105151967D01*
X89209153Y-105151068D01*
X89257775Y-105149384D01*
X89290075Y-105146765D01*
X89308572Y-105143059D01*
X89315785Y-105138116D01*
X89316126Y-105136448D01*
X89307569Y-105091259D01*
X89284876Y-105039772D01*
X89252509Y-104990672D01*
X89226765Y-104962627D01*
X89163752Y-104918882D01*
X89095811Y-104896123D01*
X89026691Y-104893086D01*
X88960138Y-104908505D01*
X88899902Y-104941115D01*
X88849731Y-104989652D01*
X88813372Y-105052849D01*
X88797717Y-105107452D01*
X88789609Y-105152234D01*
X88644167Y-105152234D01*
X88650844Y-105098831D01*
X88675203Y-105019252D01*
X88714649Y-104949145D01*
X88771813Y-104882362D01*
X88772637Y-104881536D01*
X88813326Y-104842790D01*
X88847189Y-104816983D01*
X88882780Y-104798781D01*
X88928654Y-104782851D01*
X88933138Y-104781481D01*
X89032292Y-104762290D01*
X89127133Y-104765087D01*
G37*
G36*
X85405419Y-104762328D02*
G01*
X85474671Y-104778760D01*
X85534380Y-104810412D01*
X85579471Y-104856406D01*
X85597383Y-104882247D01*
X85608607Y-104898267D01*
X85609840Y-104899972D01*
X85618740Y-104894696D01*
X85636908Y-104876073D01*
X85644110Y-104867742D01*
X85687906Y-104829605D01*
X85747491Y-104796626D01*
X85814815Y-104772519D01*
X85874114Y-104761591D01*
X85955521Y-104763070D01*
X86030683Y-104781217D01*
X86095775Y-104813947D01*
X86146973Y-104859176D01*
X86180454Y-104914821D01*
X86186022Y-104931581D01*
X86190178Y-104959400D01*
X86193626Y-105009329D01*
X86196307Y-105079604D01*
X86198163Y-105168460D01*
X86199137Y-105274132D01*
X86199275Y-105334345D01*
X86199342Y-105689610D01*
X86121721Y-105689610D01*
X86044100Y-105689610D01*
X86044055Y-105346286D01*
X86043956Y-105246206D01*
X86043567Y-105167126D01*
X86042705Y-105106164D01*
X86041190Y-105060438D01*
X86038839Y-105027065D01*
X86035471Y-105003162D01*
X86030904Y-104985847D01*
X86024955Y-104972237D01*
X86019910Y-104963433D01*
X85982234Y-104923401D01*
X85930003Y-104898735D01*
X85867797Y-104890504D01*
X85800194Y-104899778D01*
X85777606Y-104906817D01*
X85723623Y-104933619D01*
X85683849Y-104973087D01*
X85660695Y-105011443D01*
X85653824Y-105026741D01*
X85648492Y-105044491D01*
X85644509Y-105067759D01*
X85641681Y-105099614D01*
X85639816Y-105143123D01*
X85638723Y-105201357D01*
X85638209Y-105277381D01*
X85638082Y-105372679D01*
X85638082Y-105689610D01*
X85560461Y-105689610D01*
X85482840Y-105689610D01*
X85482821Y-105352257D01*
X85482671Y-105251680D01*
X85482128Y-105172084D01*
X85481031Y-105110564D01*
X85479221Y-105064220D01*
X85476536Y-105030149D01*
X85472819Y-105005449D01*
X85467907Y-104987216D01*
X85461923Y-104973108D01*
X85428264Y-104929364D01*
X85382331Y-104902381D01*
X85328299Y-104891602D01*
X85270338Y-104896469D01*
X85212623Y-104916424D01*
X85159326Y-104950908D01*
X85114618Y-104999365D01*
X85100705Y-105021405D01*
X85091610Y-105038255D01*
X85084537Y-105054560D01*
X85079190Y-105073519D01*
X85075269Y-105098332D01*
X85072478Y-105132199D01*
X85070517Y-105178319D01*
X85069091Y-105239893D01*
X85067900Y-105320121D01*
X85067132Y-105382111D01*
X85063412Y-105689610D01*
X84992496Y-105689610D01*
X84921580Y-105689610D01*
X84921580Y-105235826D01*
X84921580Y-104782041D01*
X84993230Y-104782041D01*
X85064880Y-104782041D01*
X85064880Y-104843384D01*
X85064880Y-104904726D01*
X85123329Y-104850054D01*
X85185580Y-104804978D01*
X85256356Y-104775374D01*
X85331142Y-104761178D01*
X85405419Y-104762328D01*
G37*
G36*
X90339036Y-104782471D02*
G01*
X90364205Y-104785455D01*
X90377697Y-104793529D01*
X90385614Y-104809232D01*
X90389426Y-104820851D01*
X90395762Y-104842274D01*
X90407485Y-104883363D01*
X90423652Y-104940754D01*
X90443318Y-105011085D01*
X90465542Y-105090991D01*
X90489379Y-105177110D01*
X90492230Y-105187438D01*
X90515650Y-105271914D01*
X90537117Y-105348618D01*
X90555792Y-105414608D01*
X90570834Y-105466944D01*
X90581406Y-105502685D01*
X90586667Y-105518888D01*
X90586996Y-105519515D01*
X90590820Y-105509537D01*
X90599488Y-105479221D01*
X90612248Y-105431450D01*
X90628346Y-105369104D01*
X90647029Y-105295065D01*
X90667545Y-105212213D01*
X90671100Y-105197710D01*
X90692436Y-105110599D01*
X90712457Y-105029010D01*
X90730304Y-104956433D01*
X90745116Y-104896358D01*
X90756034Y-104852274D01*
X90762200Y-104827672D01*
X90762418Y-104826822D01*
X90773934Y-104782041D01*
X90855322Y-104782041D01*
X90936710Y-104782041D01*
X91022883Y-105119394D01*
X91045342Y-105207261D01*
X91066285Y-105289089D01*
X91084867Y-105361588D01*
X91100245Y-105421469D01*
X91111574Y-105465442D01*
X91118011Y-105490217D01*
X91118635Y-105492572D01*
X91126900Y-105514521D01*
X91134058Y-105513314D01*
X91135360Y-105510485D01*
X91139899Y-105495657D01*
X91149658Y-105461558D01*
X91163701Y-105411595D01*
X91181091Y-105349176D01*
X91200891Y-105277708D01*
X91222167Y-105200598D01*
X91243981Y-105121254D01*
X91265398Y-105043084D01*
X91285480Y-104969496D01*
X91303293Y-104903896D01*
X91317900Y-104849692D01*
X91328365Y-104810292D01*
X91333751Y-104789104D01*
X91334274Y-104786475D01*
X91345178Y-104784233D01*
X91373744Y-104782638D01*
X91413172Y-104782041D01*
X91457167Y-104783283D01*
X91480623Y-104787457D01*
X91486780Y-104795238D01*
X91486243Y-104797228D01*
X91481723Y-104810858D01*
X91470913Y-104844244D01*
X91454774Y-104894383D01*
X91434266Y-104958274D01*
X91410347Y-105032915D01*
X91383979Y-105115305D01*
X91356120Y-105202442D01*
X91327730Y-105291324D01*
X91299770Y-105378950D01*
X91273198Y-105462317D01*
X91248975Y-105538425D01*
X91228060Y-105604272D01*
X91213327Y-105650800D01*
X91205879Y-105671434D01*
X91195871Y-105683041D01*
X91177143Y-105688219D01*
X91143536Y-105689564D01*
X91121278Y-105689610D01*
X91041492Y-105689610D01*
X90953046Y-105340315D01*
X90930678Y-105252384D01*
X90909993Y-105171841D01*
X90891762Y-105101631D01*
X90876758Y-105044697D01*
X90865751Y-105003985D01*
X90859514Y-104982438D01*
X90858588Y-104979944D01*
X90854285Y-104988261D01*
X90844943Y-105017069D01*
X90831314Y-105063692D01*
X90814151Y-105125450D01*
X90794205Y-105199665D01*
X90772230Y-105283659D01*
X90761287Y-105326254D01*
X90669998Y-105683639D01*
X90589983Y-105687174D01*
X90543706Y-105687816D01*
X90516639Y-105684219D01*
X90504376Y-105675701D01*
X90503464Y-105673760D01*
X90498451Y-105658925D01*
X90486963Y-105623936D01*
X90469836Y-105571375D01*
X90447909Y-105503825D01*
X90422019Y-105423866D01*
X90393006Y-105334081D01*
X90361706Y-105237053D01*
X90356025Y-105219426D01*
X90215090Y-104782041D01*
X90296087Y-104782041D01*
X90339036Y-104782471D01*
G37*
G36*
X86958657Y-104764732D02*
G01*
X87001137Y-104766926D01*
X87033082Y-104771993D01*
X87061166Y-104781115D01*
X87092058Y-104795476D01*
X87101060Y-104800053D01*
X87146616Y-104826889D01*
X87177015Y-104855013D01*
X87198540Y-104888409D01*
X87207100Y-104905465D01*
X87213694Y-104922328D01*
X87218579Y-104942254D01*
X87222010Y-104968494D01*
X87224243Y-105004304D01*
X87225535Y-105052935D01*
X87226142Y-105117643D01*
X87226320Y-105201681D01*
X87226328Y-105241392D01*
X87226552Y-105341983D01*
X87227528Y-105421125D01*
X87229716Y-105481248D01*
X87233574Y-105524786D01*
X87239563Y-105554170D01*
X87248139Y-105571833D01*
X87259763Y-105580205D01*
X87274893Y-105581720D01*
X87290141Y-105579569D01*
X87309174Y-105577351D01*
X87318500Y-105583996D01*
X87321576Y-105605093D01*
X87321862Y-105630853D01*
X87319625Y-105665914D01*
X87313944Y-105690050D01*
X87310205Y-105695405D01*
X87292127Y-105700849D01*
X87259647Y-105706404D01*
X87241540Y-105708597D01*
X87184214Y-105707595D01*
X87141346Y-105689436D01*
X87109969Y-105652038D01*
X87089667Y-105602091D01*
X87083840Y-105591242D01*
X87072978Y-105592268D01*
X87052292Y-105606908D01*
X87033882Y-105622341D01*
X86993169Y-105651445D01*
X86947416Y-105676101D01*
X86929379Y-105683343D01*
X86875397Y-105696720D01*
X86810745Y-105705322D01*
X86744827Y-105708521D01*
X86687051Y-105705688D01*
X86661695Y-105701217D01*
X86585526Y-105672208D01*
X86526964Y-105628564D01*
X86487234Y-105571363D01*
X86474526Y-105536983D01*
X86462641Y-105455702D01*
X86464930Y-105439881D01*
X86629243Y-105439881D01*
X86638744Y-105497389D01*
X86666426Y-105540651D01*
X86711062Y-105567839D01*
X86716572Y-105569654D01*
X86761856Y-105576489D01*
X86819424Y-105575635D01*
X86879309Y-105568075D01*
X86931541Y-105554790D01*
X86951225Y-105546536D01*
X86987804Y-105522530D01*
X87024409Y-105490529D01*
X87033406Y-105480918D01*
X87051751Y-105458629D01*
X87062913Y-105438506D01*
X87068670Y-105413687D01*
X87070799Y-105377313D01*
X87071086Y-105335522D01*
X87070824Y-105286183D01*
X87069219Y-105256401D01*
X87065038Y-105241848D01*
X87057052Y-105238195D01*
X87044217Y-105241061D01*
X87021982Y-105246073D01*
X86982035Y-105253586D01*
X86930280Y-105262534D01*
X86879363Y-105270797D01*
X86793476Y-105286444D01*
X86728820Y-105303931D01*
X86682742Y-105325049D01*
X86652591Y-105351593D01*
X86635714Y-105385355D01*
X86629459Y-105428128D01*
X86629243Y-105439881D01*
X86464930Y-105439881D01*
X86473490Y-105380729D01*
X86506797Y-105313194D01*
X86538162Y-105275997D01*
X86570959Y-105247728D01*
X86609068Y-105225016D01*
X86656804Y-105206267D01*
X86718480Y-105189888D01*
X86798411Y-105174286D01*
X86826281Y-105169569D01*
X86879714Y-105160763D01*
X86928942Y-105152657D01*
X86965757Y-105146603D01*
X86974364Y-105145191D01*
X87011300Y-105131434D01*
X87046311Y-105106054D01*
X87072514Y-105075379D01*
X87083025Y-105045735D01*
X87083028Y-105045293D01*
X87073555Y-104997444D01*
X87048842Y-104952823D01*
X87014446Y-104921104D01*
X87010382Y-104918856D01*
X86961009Y-104901999D01*
X86899329Y-104893075D01*
X86835845Y-104892939D01*
X86787003Y-104900716D01*
X86730901Y-104924806D01*
X86686560Y-104961331D01*
X86659167Y-105005576D01*
X86654734Y-105021047D01*
X86646265Y-105062671D01*
X86570924Y-105066256D01*
X86495582Y-105069841D01*
X86504135Y-105018489D01*
X86526595Y-104938891D01*
X86565313Y-104874811D01*
X86621022Y-104825778D01*
X86694457Y-104791318D01*
X86786352Y-104770959D01*
X86897442Y-104764228D01*
X86898970Y-104764228D01*
X86958657Y-104764732D01*
G37*
D13*
%TO.C,J2*%
X64270000Y-122570000D02*
X65600000Y-122570000D01*
X64270000Y-123900000D02*
X64270000Y-122570000D01*
X64270000Y-125170000D02*
X64270000Y-137930000D01*
X64270000Y-125170000D02*
X66930000Y-125170000D01*
X64270000Y-137930000D02*
X66930000Y-137930000D01*
X66930000Y-125170000D02*
X66930000Y-137930000D01*
D14*
%TO.C,U1*%
X63000022Y-38018822D02*
X65000022Y-36018822D01*
X63000022Y-38018822D02*
X65000022Y-36018822D01*
X63000022Y-84018822D02*
X63000022Y-38018822D01*
X63000022Y-84018822D02*
X63000022Y-38018822D01*
X65000022Y-36018822D02*
X71500022Y-36018822D01*
X65000022Y-36018822D02*
X71500022Y-36018822D01*
X65000022Y-86018822D02*
X63000022Y-84018822D01*
X65000022Y-86018822D02*
X63000022Y-84018822D01*
D10*
X66410014Y-42019581D02*
X71490014Y-42019581D01*
X66410014Y-80119581D02*
X66410014Y-42019581D01*
X71490014Y-42019581D02*
X71490014Y-67419581D01*
X71490014Y-67419581D02*
X71490014Y-80119581D01*
X71490014Y-80119581D02*
X66410014Y-80119581D01*
D14*
X71500022Y-36018822D02*
X72500022Y-37018822D01*
X71500022Y-36018822D02*
X72500022Y-37018822D01*
X72500022Y-37018822D02*
X75500022Y-37018822D01*
X72500022Y-37018822D02*
X75500022Y-37018822D01*
X75500022Y-37018822D02*
X76500022Y-36018822D01*
X75500022Y-37018822D02*
X76500022Y-36018822D01*
X76500022Y-36018822D02*
X79750022Y-36018822D01*
X76500022Y-36018822D02*
X79750022Y-36018822D01*
X79750022Y-36018822D02*
X90500022Y-36018822D01*
X79750022Y-36018822D02*
X90500022Y-36018822D01*
X90500022Y-36018822D02*
X99500022Y-36018822D01*
X90500022Y-36018822D02*
X99500022Y-36018822D01*
X99500022Y-36018822D02*
X100500022Y-37018822D01*
X99500022Y-36018822D02*
X100500022Y-37018822D01*
X100500022Y-37018822D02*
X103500022Y-37018822D01*
X100500022Y-37018822D02*
X103500022Y-37018822D01*
X103500022Y-37018822D02*
X104500022Y-36018822D01*
X103500022Y-37018822D02*
X104500022Y-36018822D01*
X104500022Y-36018822D02*
X111000022Y-36018822D01*
X104500022Y-36018822D02*
X111000022Y-36018822D01*
X111000022Y-36018822D02*
X113000022Y-38018822D01*
X111000022Y-36018822D02*
X113000022Y-38018822D01*
X111000022Y-86018822D02*
X65000022Y-86018822D01*
X111000022Y-86018822D02*
X65000022Y-86018822D01*
X113000022Y-38018822D02*
X113000022Y-84018822D01*
X113000022Y-38018822D02*
X113000022Y-84018822D01*
X113000022Y-84018822D02*
X111000022Y-86018822D01*
X113000022Y-84018822D02*
X111000022Y-86018822D01*
%TD*%
%LPC*%
D15*
%TO.C,R2*%
X66600000Y-117400000D03*
X64600000Y-117400000D03*
%TD*%
%TO.C,R1*%
X66600000Y-119700000D03*
X64600000Y-119700000D03*
%TD*%
D16*
%TO.C,J2*%
X65600000Y-123900000D03*
D17*
X65600000Y-126440000D03*
X65600000Y-128980000D03*
X65600000Y-131520000D03*
X65600000Y-134060000D03*
X65600000Y-136600000D03*
%TD*%
D18*
%TO.C,J4*%
X83680000Y-98630000D03*
X92320000Y-98630000D03*
%TD*%
D19*
%TO.C,J1*%
X88600000Y-93750000D03*
X86200000Y-93750000D03*
X85000000Y-93750000D03*
X87400000Y-93750000D03*
X89800000Y-93750000D03*
X91000000Y-93750000D03*
D20*
X92330000Y-93520000D03*
X83670000Y-93520000D03*
%TD*%
D21*
%TO.C,U1*%
X67680014Y-78849581D03*
X67680014Y-76309581D03*
X67680014Y-73769581D03*
X67680014Y-71229581D03*
X67680014Y-68689581D03*
X67680014Y-66149581D03*
X67680014Y-63609581D03*
X67680014Y-61069581D03*
X67680014Y-58529581D03*
X67680014Y-55989581D03*
X67680014Y-53449581D03*
X67680014Y-50909581D03*
X67680014Y-48369581D03*
X67680014Y-45829581D03*
X67680014Y-43289581D03*
X70220014Y-78849581D03*
X70220014Y-76309581D03*
X70220014Y-73769581D03*
X70220014Y-71229581D03*
X70220014Y-68689581D03*
X70220014Y-66149581D03*
X70220014Y-63609581D03*
X70220014Y-61069581D03*
X70220014Y-58529581D03*
X70220014Y-55989581D03*
X70220014Y-53449581D03*
X70220014Y-50909581D03*
X70220014Y-48369581D03*
X70220014Y-45829581D03*
X70220014Y-43289581D03*
%TD*%
D22*
%TO.C,J3*%
X65700000Y-109900000D03*
D23*
X65700000Y-111900000D03*
%TD*%
%LPD*%
M02*
