M48
; DRILL file {KiCad 8.0.5} date 2024-09-26T19:22:18+0530
; FORMAT={-:-/ absolute / inch / decimal}
; #@! TF.CreationDate,2024-09-26T19:22:18+05:30
; #@! TF.GenerationSoftware,Kicad,Pcbnew,8.0.5
; #@! TF.FileFunction,Plated,1,2,PTH
FMAT,2
INCH
; #@! TA.AperFunction,Plated,PTH,ViaDrill
T1C0.0118
; #@! TA.AperFunction,Plated,PTH,ComponentDrill
T2C0.0177
; #@! TA.AperFunction,Plated,PTH,ComponentDrill
T3C0.0197
; #@! TA.AperFunction,Plated,PTH,ComponentDrill
T4C0.0236
; #@! TA.AperFunction,Plated,PTH,ComponentDrill
T5C0.0295
; #@! TA.AperFunction,Plated,PTH,ComponentDrill
T6C0.0394
%
G90
G05
T1
X2.5394Y-4.5472
X2.6142Y-4.0945
X2.685Y-4.4252
X2.7126Y-4.7992
X3.0315Y-1.7323
X3.0315Y-1.9291
T2
X3.3465Y-3.6909
X3.3937Y-3.6909
X3.4409Y-3.6909
X3.4882Y-3.6909
X3.5354Y-3.6909
X3.5827Y-3.6909
T5
X2.5866Y-4.3268
X2.5866Y-4.4055
T6
X2.5827Y-4.878
X2.5827Y-4.978
X2.5827Y-5.078
X2.5827Y-5.178
X2.5827Y-5.278
X2.5827Y-5.378
X2.6646Y-1.7043
X2.6646Y-1.8043
X2.6646Y-1.9043
X2.6646Y-2.0043
X2.6646Y-2.1043
X2.6646Y-2.2043
X2.6646Y-2.3043
X2.6646Y-2.4043
X2.6646Y-2.5043
X2.6646Y-2.6043
X2.6646Y-2.7043
X2.6646Y-2.8043
X2.6646Y-2.9043
X2.6646Y-3.0043
X2.6646Y-3.1043
X2.7646Y-1.7043
X2.7646Y-1.8043
X2.7646Y-1.9043
X2.7646Y-2.0043
X2.7646Y-2.1043
X2.7646Y-2.2043
X2.7646Y-2.3043
X2.7646Y-2.4043
X2.7646Y-2.5043
X2.7646Y-2.6043
X2.7646Y-2.7043
X2.7646Y-2.8043
X2.7646Y-2.9043
X2.7646Y-3.0043
X2.7646Y-3.1043
T3
G00X3.2945Y-3.8693
M15
G01X3.2945Y-3.8969
M16
G05
G00X3.6346Y-3.8693
M15
G01X3.6346Y-3.8969
M16
G05
T4
G00X3.2941Y-3.7094
M15
G01X3.2941Y-3.6543
M16
G05
G00X3.635Y-3.7094
M15
G01X3.635Y-3.6543
M16
G05
M30
